G04*
G04 #@! TF.GenerationSoftware,Altium Limited,Altium Designer,18.1.9 (240)*
G04*
G04 Layer_Color=8454143*
%FSLAX25Y25*%
%MOIN*%
G70*
G01*
G75*
%ADD10C,0.00787*%
%ADD16C,0.00600*%
%ADD21C,0.00500*%
D10*
X236169Y372790D02*
G03*
X237743Y374365I-0J1575D01*
G01*
X237743Y377435D02*
G03*
X236169Y379010I-1575J0D01*
G01*
X227232Y379010D02*
G03*
X225657Y377435I0J-1575D01*
G01*
Y374365D02*
G03*
X227232Y372790I1575J0D01*
G01*
X227631Y400810D02*
G03*
X226057Y399235I0J-1575D01*
G01*
X226057Y396165D02*
G03*
X227631Y394590I1575J0D01*
G01*
X236568Y394590D02*
G03*
X238143Y396165I-0J1575D01*
G01*
Y399235D02*
G03*
X236568Y400810I-1575J0D01*
G01*
X267890Y362875D02*
Y367343D01*
Y355257D02*
X274110D01*
X267890Y367343D02*
X274110D01*
X267890Y355257D02*
Y359725D01*
X274110Y362875D02*
Y367343D01*
Y355257D02*
Y359725D01*
X274690Y362975D02*
Y367443D01*
Y355357D02*
X280910D01*
X274690Y367443D02*
X280910D01*
X274690Y355357D02*
Y359825D01*
X280910Y362975D02*
Y367443D01*
Y355357D02*
Y359825D01*
X281590Y363075D02*
Y367543D01*
Y355457D02*
X287810D01*
X281590Y367543D02*
X287810D01*
X281590Y355457D02*
Y359925D01*
X287810Y363075D02*
Y367543D01*
Y355457D02*
Y359925D01*
X288590Y363175D02*
Y367643D01*
Y355557D02*
X294810D01*
X288590Y367643D02*
X294810D01*
X288590Y355557D02*
Y360025D01*
X294810Y363175D02*
Y367643D01*
Y355557D02*
Y360025D01*
X235475Y348410D02*
X239943D01*
X227857Y342190D02*
Y348410D01*
X239943Y342190D02*
Y348410D01*
X227857D02*
X232325D01*
X235475Y342190D02*
X239943D01*
X227857D02*
X232325D01*
X227957Y349490D02*
X232425D01*
X240043D02*
Y355710D01*
X227957Y349490D02*
Y355710D01*
X235575Y349490D02*
X240043D01*
X227957Y355710D02*
X232425D01*
X235575D02*
X240043D01*
X227231Y372790D02*
X230125D01*
X237743Y374365D02*
Y377435D01*
X225657Y374365D02*
Y377435D01*
X233275Y372790D02*
X236169D01*
X233275Y379010D02*
X236169D01*
X227231D02*
X230125D01*
X233775Y393310D02*
X238243D01*
X226157Y387090D02*
Y393310D01*
X238243Y387090D02*
Y393310D01*
X226157D02*
X230625D01*
X233775Y387090D02*
X238243D01*
X226157D02*
X230625D01*
X225957Y380390D02*
X230425D01*
X238043D02*
Y386610D01*
X225957Y380390D02*
Y386610D01*
X233575Y380390D02*
X238043D01*
X225957Y386610D02*
X230425D01*
X233575D02*
X238043D01*
X233675Y400810D02*
X236569D01*
X226057Y396165D02*
Y399235D01*
X238143Y396165D02*
Y399235D01*
X227631Y400810D02*
X230525D01*
X227631Y394590D02*
X230525D01*
X233675D02*
X236569D01*
X321190Y363575D02*
Y368043D01*
Y355957D02*
X327410D01*
X321190Y368043D02*
X327410D01*
X321190Y355957D02*
Y360425D01*
X327410Y363575D02*
Y368043D01*
Y355957D02*
Y360425D01*
X328190Y363575D02*
Y368043D01*
Y355957D02*
X334410D01*
X328190Y368043D02*
X334410D01*
X328190Y355957D02*
Y360425D01*
X334410Y363575D02*
Y368043D01*
Y355957D02*
Y360425D01*
D16*
X228304Y360282D02*
Y367181D01*
X232405D01*
X240400Y360282D02*
Y367181D01*
X236299D02*
X240400D01*
X232559Y360282D02*
X236145D01*
D21*
X382600Y383499D02*
Y380500D01*
X381101D01*
X380601Y381000D01*
Y381500D01*
X381101Y381999D01*
X382600D01*
X381101D01*
X380601Y382499D01*
Y382999D01*
X381101Y383499D01*
X382600D01*
X379601Y381999D02*
X377602D01*
X378601Y382999D02*
Y381000D01*
X403800Y383399D02*
Y380400D01*
X402301D01*
X401801Y380900D01*
Y381400D01*
X402301Y381899D01*
X403800D01*
X402301D01*
X401801Y382399D01*
Y382899D01*
X402301Y383399D01*
X403800D01*
X400801Y381899D02*
X398802D01*
X395300Y380000D02*
Y382999D01*
X393301Y380000D01*
Y382999D01*
X392301D02*
X390302D01*
X391301D01*
Y380000D01*
X387303Y382499D02*
X387802Y382999D01*
X388802D01*
X389302Y382499D01*
Y380500D01*
X388802Y380000D01*
X387802D01*
X387303Y380500D01*
X241299Y396301D02*
X240799Y395801D01*
X239800D01*
X239300Y396301D01*
Y398300D01*
X239800Y398800D01*
X240799D01*
X241299Y398300D01*
X242299Y396301D02*
X242799Y395801D01*
X243798D01*
X244298Y396301D01*
Y396801D01*
X243798Y397301D01*
X244298Y397800D01*
Y398300D01*
X243798Y398800D01*
X242799D01*
X242299Y398300D01*
Y397800D01*
X242799Y397301D01*
X242299Y396801D01*
Y396301D01*
X242799Y397301D02*
X243798D01*
X222701Y376799D02*
X223200Y377299D01*
X224200D01*
X224700Y376799D01*
Y374800D01*
X224200Y374300D01*
X223200D01*
X222701Y374800D01*
X221701Y374300D02*
X220701D01*
X221201D01*
Y377299D01*
X221701Y376799D01*
X217202Y377299D02*
X219202D01*
Y375799D01*
X218202Y376299D01*
X217702D01*
X217202Y375799D01*
Y374800D01*
X217702Y374300D01*
X218702D01*
X219202Y374800D01*
X224201Y362900D02*
Y364899D01*
X224700Y365399D01*
X225700D01*
X226200Y364899D01*
Y362900D01*
X225700Y362400D01*
X224700D01*
X225200Y363400D02*
X224201Y362400D01*
X224700D02*
X224201Y362900D01*
X223201Y364899D02*
X222701Y365399D01*
X221702D01*
X221202Y364899D01*
Y364399D01*
X221702Y363899D01*
X222201D01*
X221702D01*
X221202Y363400D01*
Y362900D01*
X221702Y362400D01*
X222701D01*
X223201Y362900D01*
X225000Y382000D02*
Y384999D01*
X223500D01*
X223001Y384499D01*
Y383500D01*
X223500Y383000D01*
X225000D01*
X224000D02*
X223001Y382000D01*
X222001Y382500D02*
X221501Y382000D01*
X220501D01*
X220002Y382500D01*
Y384499D01*
X220501Y384999D01*
X221501D01*
X222001Y384499D01*
Y383999D01*
X221501Y383500D01*
X220002D01*
X224900Y388700D02*
Y391699D01*
X223400D01*
X222901Y391199D01*
Y390199D01*
X223400Y389700D01*
X224900D01*
X223900D02*
X222901Y388700D01*
X221901D02*
X220901D01*
X221401D01*
Y391699D01*
X221901Y391199D01*
X217402Y391699D02*
X219402D01*
Y390199D01*
X218402Y390699D01*
X217902D01*
X217402Y390199D01*
Y389200D01*
X217902Y388700D01*
X218902D01*
X219402Y389200D01*
X226300Y343600D02*
Y346599D01*
X224800D01*
X224301Y346099D01*
Y345099D01*
X224800Y344600D01*
X226300D01*
X225300D02*
X224301Y343600D01*
X223301D02*
X222301D01*
X222801D01*
Y346599D01*
X223301Y346099D01*
X220802Y344100D02*
X220302Y343600D01*
X219302D01*
X218802Y344100D01*
Y346099D01*
X219302Y346599D01*
X220302D01*
X220802Y346099D01*
Y345599D01*
X220302Y345099D01*
X218802D01*
X226200Y350900D02*
Y353899D01*
X224700D01*
X224201Y353399D01*
Y352399D01*
X224700Y351900D01*
X226200D01*
X225200D02*
X224201Y350900D01*
X221202D02*
X223201D01*
X221202Y352899D01*
Y353399D01*
X221702Y353899D01*
X222701D01*
X223201Y353399D01*
X220202D02*
X219702Y353899D01*
X218702D01*
X218203Y353399D01*
Y351400D01*
X218702Y350900D01*
X219702D01*
X220202Y351400D01*
Y353399D01*
X269500Y369800D02*
X272499D01*
Y371300D01*
X271999Y371799D01*
X271000D01*
X270500Y371300D01*
Y369800D01*
Y370800D02*
X269500Y371799D01*
Y374798D02*
Y372799D01*
X271499Y374798D01*
X271999D01*
X272499Y374299D01*
Y373299D01*
X271999Y372799D01*
X269500Y375798D02*
Y376798D01*
Y376298D01*
X272499D01*
X271999Y375798D01*
X276300Y369300D02*
X279299D01*
Y370799D01*
X278799Y371299D01*
X277800D01*
X277300Y370799D01*
Y369300D01*
Y370300D02*
X276300Y371299D01*
Y374298D02*
Y372299D01*
X278299Y374298D01*
X278799D01*
X279299Y373798D01*
Y372799D01*
X278799Y372299D01*
X276300Y377297D02*
Y375298D01*
X278299Y377297D01*
X278799D01*
X279299Y376798D01*
Y375798D01*
X278799Y375298D01*
X283300Y369300D02*
X286299D01*
Y370799D01*
X285799Y371299D01*
X284800D01*
X284300Y370799D01*
Y369300D01*
Y370300D02*
X283300Y371299D01*
Y374298D02*
Y372299D01*
X285299Y374298D01*
X285799D01*
X286299Y373798D01*
Y372799D01*
X285799Y372299D01*
Y375298D02*
X286299Y375798D01*
Y376798D01*
X285799Y377297D01*
X285299D01*
X284800Y376798D01*
Y376298D01*
Y376798D01*
X284300Y377297D01*
X283800D01*
X283300Y376798D01*
Y375798D01*
X283800Y375298D01*
X290504Y369396D02*
X293502D01*
Y370896D01*
X293003Y371396D01*
X292003D01*
X291503Y370896D01*
Y369396D01*
Y370396D02*
X290504Y371396D01*
Y374395D02*
Y372396D01*
X292503Y374395D01*
X293003D01*
X293502Y373895D01*
Y372895D01*
X293003Y372396D01*
X290504Y376894D02*
X293502D01*
X292003Y375395D01*
Y377394D01*
X329400Y346600D02*
X332399D01*
Y348099D01*
X331899Y348599D01*
X330900D01*
X330400Y348099D01*
Y346600D01*
Y347600D02*
X329400Y348599D01*
X331899Y349599D02*
X332399Y350099D01*
Y351098D01*
X331899Y351598D01*
X331399D01*
X330900Y351098D01*
Y350599D01*
Y351098D01*
X330400Y351598D01*
X329900D01*
X329400Y351098D01*
Y350099D01*
X329900Y349599D01*
X331899Y352598D02*
X332399Y353098D01*
Y354098D01*
X331899Y354597D01*
X329900D01*
X329400Y354098D01*
Y353098D01*
X329900Y352598D01*
X331899D01*
X322700Y347800D02*
X325699D01*
Y349300D01*
X325199Y349799D01*
X324200D01*
X323700Y349300D01*
Y347800D01*
Y348800D02*
X322700Y349799D01*
X325199Y350799D02*
X325699Y351299D01*
Y352298D01*
X325199Y352798D01*
X324699D01*
X324200Y352298D01*
Y351799D01*
Y352298D01*
X323700Y352798D01*
X323200D01*
X322700Y352298D01*
Y351299D01*
X323200Y350799D01*
X322700Y353798D02*
Y354798D01*
Y354298D01*
X325699D01*
X325199Y353798D01*
M02*
