M48
;Layer_Color=9474304
;FILE_FORMAT=2:5
INCH,LZ
;TYPE=PLATED
T1F00S00C0.01575
T4F00S00C0.03543
%
T01
X03326Y02488
X03465Y02504
X03575Y02534
X03564Y02601
X03704Y02571
X03713Y02645
X03678Y02747
X03553Y0278
X03535Y02827
X03477Y02958
X03514Y0302169
X0355369
X038266Y03007
X03815Y02966
X03835Y0276
X03919Y02664
X04056Y02864
X04075Y02902
X03325Y02752
X03155Y0307
X03104Y03112
X02746Y03034
X02776Y03
X02801Y02968
X02832Y02935
X02864Y02899
X02898Y02865
X02807Y02867
X027559Y0291339
X0267717
X02682Y02969
X0259842Y0291339
X0244094Y0299213
Y0307087
X02285Y0308126
Y0300252
Y0292378
Y0284504
X0228346Y027559
Y0267717
X0226874Y0260882
X0234748
X0242622
X0250496
X025837
X02905Y02621
X02965Y02623
X02935Y02687
X02877Y02704
X02979Y02727
X02986Y02543
X02895Y02549
X0286Y0247
X02947Y02471
X03053Y02474
X0219Y0260882
Y0268756
Y027663
Y0284504
Y0292378
Y0300252
Y0308126
Y0316
X02239
X02285
X0233
X02375
X02424
X02472
X02518
X02568
X02619
X02661
X02676Y0325
X02622Y03251
X02538
X02494
X02407Y03254
X02361
X02319Y03284
X02278Y03255
X02236Y03256
X02192Y03282
Y0336074
Y0343948
Y0351822
X02233Y0352
X02192Y0359696
Y036757
Y0375444
Y0383318
Y0391192
X0243Y03874
X02429Y03836
X02453Y03787
X02487Y03763
X02522Y03736
X02565
X02567Y03685
X0252
X02607Y03716
X0267Y03738
X02684Y03908
X02724Y03909
X02764Y03908
X02918Y039
X02919Y03935
X03065Y03771
Y03699
Y03636
X03084Y03572
X03036Y0354
X03022Y03593
X03017Y0339268
X02894Y03447
X02887Y03502
X02838Y03512
X02797Y03497
X02707Y03372
X02812Y03233
X02857Y03232
X02903Y03231
Y03182
X0285615Y0318391
X02811Y03185
Y03133
X02858
X02903
X03114Y0316
X02411Y03351
X02435Y03395
X0231Y03406
X02344Y03645
X02415Y037
X02498Y03501
X02535Y03506
X02427Y03993
X03228Y03919
X03258Y03917
X03294Y03938
X03372Y03906
X03346Y03876
X03407Y03864
X03431Y03828
X0351Y03832
X03561Y0385
X03488Y03778
X03498Y03611
X03544Y0361
X03467Y03561
X0337Y03559
X03361Y03509
X03345Y03706
X03183Y03702
X0318Y03658
X03136
X03134Y03702
X03224Y03264
Y03232
X03273Y0318
X03292Y03138
X03241Y03141
X03278Y03298
X03367Y03254
X03455Y03266
X03547Y03218
X03528Y03186
X03639Y03276
X03667Y03313
X03695Y0341
Y03449
Y03484
X03738Y03483
X03739Y03449
X03741Y03413
X03754Y03637
X03802
X03699Y0364
X03687Y03686
X03685Y03727
X03701Y03762
X0374Y03728
X03744Y03686
X03827Y03889
X03777Y03945
X03776Y0402
X03777Y0409
X03546Y04091
X04065Y04081
X04068Y03862
X040139Y0365607
Y0357733
Y0349859
Y0341985
Y0334111
X04016Y03128
X0406178Y03162
T04
X02365Y02682
Y02782
Y02882
X0381704Y0373481
X0391547
X040139
M30
