G04*
G04 #@! TF.GenerationSoftware,Altium Limited,Altium Designer,18.1.9 (240)*
G04*
G04 Layer_Physical_Order=2*
G04 Layer_Color=16711680*
%FSLAX25Y25*%
%MOIN*%
G70*
G01*
G75*
%ADD13C,0.02000*%
%ADD15C,0.01000*%
%ADD23R,0.03858X0.03661*%
%ADD26R,0.03661X0.03858*%
%ADD29R,0.02362X0.04213*%
%ADD93C,0.00800*%
%ADD94C,0.01500*%
%ADD95C,0.03937*%
%ADD97C,0.03150*%
%ADD135R,0.06299X0.06299*%
%ADD136C,0.06299*%
G04:AMPARAMS|DCode=137|XSize=74.8mil|YSize=43.31mil|CornerRadius=0mil|HoleSize=0mil|Usage=FLASHONLY|Rotation=127.000|XOffset=0mil|YOffset=0mil|HoleType=Round|Shape=Round|*
%AMOVALD137*
21,1,0.03150,0.04331,0.00000,0.00000,127.0*
1,1,0.04331,0.00948,-0.01258*
1,1,0.04331,-0.00948,0.01258*
%
%ADD137OVALD137*%

G04:AMPARAMS|DCode=138|XSize=70.87mil|YSize=39.37mil|CornerRadius=0mil|HoleSize=0mil|Usage=FLASHONLY|Rotation=127.000|XOffset=0mil|YOffset=0mil|HoleType=Round|Shape=Round|*
%AMOVALD138*
21,1,0.03150,0.03937,0.00000,0.00000,127.0*
1,1,0.03937,0.00948,-0.01258*
1,1,0.03937,-0.00948,0.01258*
%
%ADD138OVALD138*%

%ADD139C,0.05906*%
%ADD140C,0.02756*%
%ADD141C,0.05906*%
%ADD142R,0.06600X0.08400*%
%ADD143R,0.06243X0.07400*%
%ADD144R,0.03200X0.01700*%
%ADD145R,0.04100X0.09200*%
%ADD146R,0.05700X0.09000*%
%ADD147R,0.11300X0.52500*%
G36*
X409493Y323035D02*
X409464D01*
X409639Y320361D01*
X410162Y317734D01*
X411023Y315197D01*
X412208Y312795D01*
X413664Y310614D01*
X413664D01*
X413700Y310610D01*
X428022Y291839D01*
X427994Y291817D01*
X428240Y291496D01*
X428556Y290733D01*
X428664Y289914D01*
X428588Y289338D01*
X428037Y288067D01*
D01*
X427021Y287072D01*
X409833Y273472D01*
X409795Y273477D01*
X409795Y273477D01*
Y273477D01*
X407075Y271562D01*
X405860Y270706D01*
X404608Y269901D01*
X399787Y266848D01*
X398524Y266117D01*
X398521Y266116D01*
X398521D01*
X397258Y265369D01*
X396392Y264868D01*
X394794Y263976D01*
X393373Y263203D01*
X392129Y262542D01*
X391338Y262130D01*
X389987Y261477D01*
X388746Y260852D01*
X386190Y259565D01*
X383217Y258248D01*
Y258248D01*
X383200Y258203D01*
X380969Y257224D01*
X379196Y256474D01*
X377613Y255825D01*
X376224Y255271D01*
X374931Y254768D01*
X373732Y254313D01*
X372524Y253864D01*
X371195Y253383D01*
X369738Y252869D01*
X368156Y252327D01*
X366441Y251759D01*
X364591Y251166D01*
X362486Y250519D01*
X360117Y249822D01*
X357354Y249054D01*
X355287Y248508D01*
X354432Y248289D01*
X353571Y248074D01*
X352584Y247832D01*
X351592Y247594D01*
X350473Y247332D01*
X349349Y247075D01*
X348094Y246797D01*
X346708Y246499D01*
X345190Y246185D01*
X343409Y245830D01*
X341238Y245420D01*
X338025Y244855D01*
X335315Y244418D01*
X334540Y244299D01*
X333634Y244164D01*
X332727Y244033D01*
X331819Y243905D01*
X330914Y243781D01*
X329873Y243643D01*
X328836Y243511D01*
X327799Y243383D01*
X326632Y243245D01*
X325335Y243097D01*
X324039Y242958D01*
X322618Y242812D01*
X320939Y242651D01*
X319007Y242480D01*
X316316Y242267D01*
X313766Y242091D01*
X311867Y241976D01*
X310226Y241888D01*
X308717Y241816D01*
X307339Y241758D01*
X306089Y241712D01*
X304965Y241675D01*
X303847Y241643D01*
X302852Y241618D01*
X301862Y241597D01*
X300871Y241579D01*
X300006Y241566D01*
X299141Y241556D01*
X298280Y241549D01*
X297540Y241544D01*
X297540Y241544D01*
X296804Y241541D01*
X296066Y241541D01*
X295328Y241541D01*
X294592Y241544D01*
X294592Y241544D01*
X293851Y241549D01*
X292990Y241556D01*
X292126Y241566D01*
X291261Y241579D01*
X290269Y241597D01*
X289279Y241618D01*
X288285Y241643D01*
X287167Y241675D01*
X286042Y241712D01*
X284792Y241758D01*
X283415Y241816D01*
X281905Y241888D01*
X280264Y241976D01*
X278365Y242091D01*
X275816Y242267D01*
X273125Y242480D01*
X271193Y242651D01*
X269513Y242812D01*
X268093Y242958D01*
X266797Y243097D01*
X265499Y243245D01*
X264333Y243383D01*
X263296Y243511D01*
X262258Y243643D01*
X261218Y243781D01*
X260313Y243905D01*
X259404Y244033D01*
X258497Y244164D01*
X257592Y244299D01*
X256817Y244418D01*
X254106Y244855D01*
X250893Y245420D01*
X248723Y245830D01*
X246942Y246185D01*
X245424Y246499D01*
X244037Y246797D01*
X242782Y247076D01*
X241658Y247332D01*
X240540Y247594D01*
X239547Y247832D01*
X238560Y248074D01*
X237699Y248290D01*
X236845Y248508D01*
X234777Y249054D01*
X232015Y249822D01*
X229645Y250519D01*
X227540Y251166D01*
X225691Y251758D01*
X223975Y252327D01*
X222393Y252869D01*
X220936Y253383D01*
X219607Y253865D01*
X218397Y254314D01*
X217200Y254768D01*
X216927Y254874D01*
Y411518D01*
X409493D01*
Y323035D01*
D02*
G37*
%LPC*%
G36*
X361828Y405422D02*
X361828Y405421D01*
X330100D01*
X330100Y405422D01*
X329671Y405336D01*
X329307Y405093D01*
X329307Y405093D01*
X323335Y399121D01*
X248821D01*
Y402800D01*
X248822Y402800D01*
X248736Y403229D01*
X248493Y403593D01*
X247693Y404393D01*
X247329Y404636D01*
X246900Y404722D01*
X246900Y404721D01*
X239000D01*
X238571Y404636D01*
X238207Y404393D01*
X238207Y404393D01*
X234338Y400525D01*
X234208Y400329D01*
X232601D01*
Y396755D01*
X228675Y392829D01*
X226638D01*
Y387571D01*
X226638D01*
X226497Y386129D01*
X226438D01*
Y380871D01*
X231499D01*
Y380871D01*
X232501D01*
Y380871D01*
X236343D01*
X236578Y379400D01*
X236578Y379400D01*
X235292Y378529D01*
X232699D01*
X231199Y378529D01*
X230701Y378529D01*
X226138D01*
X226138Y373271D01*
X227183Y373193D01*
X227190Y371695D01*
Y370132D01*
X227303Y369566D01*
X227623Y369086D01*
X229161Y367548D01*
X229641Y367228D01*
X230206Y367115D01*
X232055D01*
X232167Y366758D01*
X232458Y365700D01*
X232281Y364500D01*
X232443Y363689D01*
X232902Y363002D01*
X233589Y362543D01*
X234400Y362381D01*
X234574Y362416D01*
X234696Y362440D01*
X235101Y362475D01*
X235748Y361933D01*
X236197Y361423D01*
X236211Y361298D01*
X236211Y360352D01*
Y359079D01*
X235886Y358754D01*
X235565Y358274D01*
X235453Y357709D01*
Y357045D01*
X235443Y355549D01*
X234501Y355229D01*
X234501Y354440D01*
X234501Y349971D01*
D01*
X234579Y348360D01*
X233985Y347929D01*
X233399D01*
X232901Y347929D01*
X228338D01*
Y342671D01*
X228338Y342671D01*
X228995Y341171D01*
X228881Y340600D01*
X229043Y339789D01*
X229502Y339102D01*
X230189Y338643D01*
X231000Y338481D01*
X231811Y338643D01*
X232498Y339102D01*
X232957Y339789D01*
X233119Y340600D01*
X233005Y341171D01*
X233399Y342671D01*
X234401D01*
X234899Y342671D01*
X238300D01*
X239178Y342671D01*
X239178Y342043D01*
Y339392D01*
X239170D01*
X239178Y339307D01*
Y337461D01*
X239163D01*
X239178Y337345D01*
Y335964D01*
X239143Y335911D01*
X238981Y335100D01*
X239143Y334289D01*
X239602Y333602D01*
X240289Y333143D01*
X241100Y332981D01*
X241911Y333143D01*
X242598Y333602D01*
X243057Y334289D01*
X243219Y335100D01*
X243057Y335911D01*
X243035Y335945D01*
X243213Y336496D01*
X243824Y337446D01*
X244311Y337543D01*
X244998Y338002D01*
X245457Y338689D01*
X245619Y339500D01*
X245612Y339536D01*
X245698Y339972D01*
X245960Y340364D01*
X245968Y340370D01*
X245963Y340376D01*
X245963Y340376D01*
X247693Y342107D01*
X247693Y342107D01*
X247936Y342471D01*
X248022Y342900D01*
X248022Y342900D01*
Y372321D01*
X248022Y372321D01*
X247936Y372750D01*
X247693Y373114D01*
X241933Y378874D01*
X242102Y380604D01*
X242700Y381078D01*
X243129Y381164D01*
X243163Y381186D01*
X244900D01*
X245173Y381241D01*
X245405Y381395D01*
X245559Y381627D01*
X245614Y381900D01*
Y383600D01*
Y388016D01*
X288723D01*
X288844Y387923D01*
X289733Y387555D01*
X290686Y387429D01*
X291640Y387555D01*
X291800Y387621D01*
X291960Y387555D01*
X292914Y387429D01*
X293867Y387555D01*
X294756Y387923D01*
X294877Y388016D01*
X325800D01*
X326754Y388141D01*
X327642Y388509D01*
X328405Y389095D01*
X328991Y389858D01*
X329226Y390427D01*
X329667Y390609D01*
X330430Y391195D01*
X331016Y391958D01*
X331082Y392118D01*
X331242Y392184D01*
X332005Y392770D01*
X332591Y393533D01*
X332959Y394421D01*
X333039Y395028D01*
X334426Y396416D01*
X353560D01*
X377586Y372389D01*
Y369400D01*
X377641Y369127D01*
X377795Y368895D01*
X378027Y368741D01*
X378300Y368686D01*
X381576D01*
X382168Y368094D01*
X382261Y367980D01*
X382272Y367991D01*
X383247Y367016D01*
X382930Y365300D01*
X382901Y365283D01*
X381831Y365100D01*
X381709Y365182D01*
X381698Y365198D01*
X381011Y365657D01*
X380200Y365819D01*
X379389Y365657D01*
X378702Y365198D01*
X378649Y365119D01*
X376951D01*
X376898Y365198D01*
X376211Y365657D01*
X375400Y365819D01*
X374589Y365657D01*
X373902Y365198D01*
X373520Y364627D01*
X373446Y364515D01*
X373424Y364511D01*
X371915Y364520D01*
X371857Y364811D01*
X371398Y365498D01*
X370711Y365957D01*
X369900Y366119D01*
X369089Y365957D01*
X368402Y365498D01*
X367943Y364811D01*
X367781Y364000D01*
X367943Y363189D01*
X368402Y362502D01*
X368418Y362491D01*
X368600Y362220D01*
X368667Y361880D01*
X368354Y360888D01*
X366869Y360417D01*
X350573Y376713D01*
X350757Y376989D01*
X350919Y377800D01*
X350757Y378611D01*
X350298Y379298D01*
X349611Y379757D01*
X348800Y379919D01*
X348644Y379888D01*
X347312Y380750D01*
X347144Y380996D01*
Y385478D01*
X347144Y385478D01*
X347058Y385907D01*
X346815Y386271D01*
X346815Y386271D01*
X345593Y387493D01*
X345229Y387736D01*
X344800Y387822D01*
X344800Y387822D01*
X344557D01*
X343061Y387830D01*
X342188Y387988D01*
X342185Y387985D01*
X341821Y388228D01*
X341656Y388261D01*
X341511Y388357D01*
X340700Y388519D01*
X339889Y388357D01*
X339202Y387898D01*
X338933Y387496D01*
X338929Y387493D01*
X338929Y387493D01*
X338686Y387129D01*
X338606Y386730D01*
X338594Y386700D01*
X338592D01*
X338514Y386512D01*
X337543Y385553D01*
X337543Y385553D01*
X336494Y384480D01*
X323507Y371493D01*
X323264Y371129D01*
X323178Y370700D01*
X323179Y370700D01*
Y369978D01*
X323161Y368485D01*
X322047Y367562D01*
X321671D01*
Y362999D01*
X321671Y361499D01*
X321671Y361001D01*
X321671Y356438D01*
X322815Y356359D01*
X322822Y354862D01*
Y342812D01*
X317295Y337285D01*
X313672Y340908D01*
X312919Y341411D01*
X312032Y341588D01*
X301700D01*
X300812Y341411D01*
X300060Y340908D01*
X299557Y340156D01*
X299381Y339268D01*
X299557Y338381D01*
X300060Y337628D01*
X300812Y337126D01*
X301700Y336949D01*
X311071D01*
X315060Y332960D01*
X315812Y332457D01*
X315850Y332450D01*
X315857Y332412D01*
X316360Y331660D01*
X319449Y328571D01*
X319863Y328032D01*
X320081Y327506D01*
Y322200D01*
X320257Y321312D01*
X320760Y320560D01*
X321512Y320057D01*
X322400Y319881D01*
X323288Y320057D01*
X324040Y320560D01*
X324543Y321312D01*
X324719Y322200D01*
Y325482D01*
X324740Y325512D01*
X324916Y326400D01*
X324910D01*
X324758Y327936D01*
X324719Y328064D01*
Y328900D01*
X324543Y329788D01*
X324040Y330540D01*
X320446Y334134D01*
X320341Y336150D01*
X325345Y341155D01*
X325666Y341634D01*
X325778Y342200D01*
Y354862D01*
X325782Y355597D01*
X326929Y356438D01*
X326929Y356438D01*
X326929Y356438D01*
X327150Y356656D01*
X328671Y356438D01*
D01*
X329659Y356438D01*
X333929D01*
Y361001D01*
X333929Y362501D01*
X333929Y362999D01*
Y367562D01*
X333553D01*
X332439Y368485D01*
X332421Y369978D01*
Y370864D01*
X338684Y377127D01*
X338944Y377178D01*
X339307Y377421D01*
X340593Y378707D01*
X341979Y378133D01*
Y377026D01*
X341978Y377026D01*
X342064Y376597D01*
X342307Y376233D01*
X367555Y350985D01*
X367555Y350985D01*
X367919Y350742D01*
X368348Y350656D01*
X368348Y350656D01*
X375086D01*
X376256Y349486D01*
Y334943D01*
X357704Y316390D01*
X345069D01*
X344639Y316305D01*
X344275Y316062D01*
X344275Y316061D01*
X332735Y304521D01*
X318025D01*
X317345Y306021D01*
X317457Y306189D01*
X317619Y307000D01*
X317457Y307811D01*
X316998Y308498D01*
X316311Y308957D01*
X315500Y309119D01*
X314689Y308957D01*
X314002Y308498D01*
X313991Y308482D01*
X313720Y308300D01*
X313380Y308233D01*
Y308224D01*
X269400D01*
X268932Y308130D01*
X268535Y307865D01*
X250093Y289423D01*
X242897D01*
Y289437D01*
X242762Y289423D01*
X242761D01*
X241553Y289582D01*
X240350Y290081D01*
Y292050D01*
X232650D01*
Y284350D01*
X240350D01*
Y286319D01*
X241553Y286818D01*
X242761Y286977D01*
X242762D01*
X242897Y286963D01*
Y286977D01*
X250600D01*
X251068Y287070D01*
X251465Y287335D01*
X269907Y305777D01*
X271922D01*
X272687Y304276D01*
X272643Y304211D01*
X272481Y303400D01*
X272643Y302589D01*
X273102Y301902D01*
X273789Y301443D01*
X274334Y301334D01*
X274651Y301207D01*
X275481Y300000D01*
X275643Y299189D01*
X276102Y298502D01*
X276789Y298043D01*
X276815Y298038D01*
X277115Y297941D01*
X277981Y296800D01*
X278013Y296642D01*
X278143Y295989D01*
X278602Y295302D01*
X279289Y294843D01*
X279911Y294719D01*
X280123Y294654D01*
X281081Y293500D01*
X281243Y292689D01*
X281702Y292002D01*
X282389Y291543D01*
X283200Y291381D01*
X283259Y291350D01*
X284317Y290081D01*
X284281Y289900D01*
X284443Y289089D01*
X284902Y288402D01*
X285589Y287943D01*
X286400Y287781D01*
X286504Y287802D01*
X287702Y286604D01*
X287681Y286500D01*
X287843Y285689D01*
X288302Y285002D01*
X288989Y284543D01*
X289800Y284381D01*
X290611Y284543D01*
X291298Y285002D01*
X291319Y285033D01*
X291688Y285280D01*
X292150Y285372D01*
X292161Y285370D01*
Y285379D01*
X334200D01*
X334200Y285378D01*
X334629Y285464D01*
X334993Y285707D01*
X344292Y295006D01*
X344308Y295009D01*
X344705Y295275D01*
X345005Y295575D01*
X345270Y295972D01*
X345363Y296440D01*
Y299238D01*
X347520Y301395D01*
X347799Y301434D01*
X349249Y301003D01*
X349269Y300954D01*
X349697Y300397D01*
X350122Y300071D01*
Y291112D01*
X335688Y276678D01*
X335508D01*
X334016Y276699D01*
X334004Y276704D01*
X333998Y276698D01*
X333311Y277157D01*
X332500Y277319D01*
X331689Y277157D01*
X331002Y276698D01*
X330543Y276011D01*
X330381Y275200D01*
X330543Y274389D01*
X331002Y273702D01*
X331689Y273243D01*
X332500Y273081D01*
X333311Y273243D01*
X333998Y273702D01*
X334004Y273696D01*
X334016Y273701D01*
X335508Y273722D01*
X336300D01*
X336866Y273834D01*
X337345Y274155D01*
X352645Y289455D01*
X352966Y289934D01*
X353078Y290500D01*
Y299608D01*
X367800D01*
X368497Y299700D01*
X368765Y299812D01*
X369146Y299969D01*
X369703Y300397D01*
X388403Y319097D01*
X388831Y319654D01*
X388837Y319668D01*
X393172Y324003D01*
X393599Y324561D01*
X393868Y325210D01*
X393960Y325906D01*
Y362800D01*
X393868Y363497D01*
X393599Y364146D01*
X393172Y364703D01*
X389689Y368186D01*
X390310Y369686D01*
X394742D01*
X395016Y369741D01*
X395247Y369895D01*
X395402Y370127D01*
X395456Y370400D01*
Y377800D01*
X395402Y378073D01*
X395247Y378305D01*
X395016Y378459D01*
X394742Y378514D01*
X389201D01*
X388693Y379021D01*
X388582Y379156D01*
X387510Y380204D01*
X387394Y380320D01*
X387223Y380529D01*
X386144Y381571D01*
X362621Y405093D01*
X362257Y405336D01*
X361828Y405422D01*
D02*
G37*
G36*
X394491Y402629D02*
X393302Y402512D01*
X392159Y402165D01*
X391105Y401602D01*
X390182Y400844D01*
X389424Y399920D01*
X388861Y398867D01*
X388514Y397723D01*
X388397Y396534D01*
X388514Y395345D01*
X388861Y394202D01*
X389424Y393148D01*
X390182Y392225D01*
X391105Y391467D01*
X392159Y390904D01*
X393302Y390557D01*
X394491Y390440D01*
X395680Y390557D01*
X396823Y390904D01*
X397877Y391467D01*
X398800Y392225D01*
X399558Y393148D01*
X400121Y394202D01*
X400468Y395345D01*
X400585Y396534D01*
X400468Y397723D01*
X400121Y398867D01*
X399558Y399920D01*
X398800Y400844D01*
X397877Y401602D01*
X396823Y402165D01*
X395680Y402512D01*
X394491Y402629D01*
D02*
G37*
G36*
X267000Y375919D02*
X266189Y375757D01*
X265502Y375298D01*
X265043Y374611D01*
X264881Y373800D01*
X264912Y373644D01*
X264806Y373292D01*
X264031Y372384D01*
X263780Y372234D01*
X263625Y372254D01*
X262850Y372575D01*
X262229Y373052D01*
X262198Y373098D01*
X261511Y373557D01*
X260700Y373719D01*
X259889Y373557D01*
X259202Y373098D01*
X258743Y372411D01*
X258581Y371600D01*
X258594Y371538D01*
X258087Y371033D01*
X257270Y370505D01*
X256700Y370619D01*
X255889Y370457D01*
X255230Y370017D01*
X255196Y369998D01*
X254350D01*
X253504D01*
X253470Y370017D01*
X252811Y370457D01*
X252000Y370619D01*
X251189Y370457D01*
X250502Y369998D01*
X250043Y369311D01*
X249881Y368500D01*
X250043Y367689D01*
X250502Y367002D01*
X250633Y366874D01*
X250862Y366400D01*
X250863D01*
X250878Y366400D01*
X250964Y365971D01*
X251207Y365607D01*
X253275Y363538D01*
X253275Y363538D01*
X253639Y363295D01*
X254069Y363210D01*
X265955D01*
X267447Y363192D01*
X268371Y362078D01*
Y360799D01*
X268371Y360301D01*
Y355738D01*
X268747D01*
X269861Y354814D01*
X269878Y353400D01*
X269893Y353328D01*
X269964Y352971D01*
X270207Y352607D01*
X271707Y351107D01*
X272071Y350864D01*
X272500Y350778D01*
X272500Y350779D01*
X275818D01*
X276739Y350643D01*
X277581Y349700D01*
X277743Y348889D01*
X278202Y348202D01*
X278889Y347743D01*
X279700Y347581D01*
X280511Y347743D01*
X281198Y348202D01*
X281462Y348597D01*
X281691Y348898D01*
X282989Y349243D01*
X283800Y349081D01*
X284611Y349243D01*
X285168Y349615D01*
X286071Y349486D01*
X286818Y349276D01*
X287202Y348702D01*
X287889Y348243D01*
X288380Y348145D01*
X288575Y346762D01*
X288566Y346642D01*
X287902Y346198D01*
X287443Y345511D01*
X287281Y344700D01*
X287443Y343889D01*
X287902Y343202D01*
X288589Y342743D01*
X289400Y342581D01*
X290211Y342743D01*
X290898Y343202D01*
X291357Y343889D01*
X291467Y344440D01*
X291933Y345747D01*
X291933Y345747D01*
X293393Y347207D01*
X293393Y347207D01*
X293636Y347571D01*
X293722Y348000D01*
Y353179D01*
X293735D01*
X293722Y353319D01*
Y353621D01*
X293746Y355111D01*
X294329Y356038D01*
X294329D01*
X294329Y356369D01*
Y360601D01*
X294329Y362101D01*
X294329Y362599D01*
Y367162D01*
X294329D01*
X293022Y368000D01*
X292936Y368429D01*
X292693Y368793D01*
X286893Y374593D01*
X286529Y374836D01*
X286100Y374922D01*
X286100Y374921D01*
X269369D01*
X269361Y374930D01*
Y374930D01*
X268119Y375552D01*
X267811Y375757D01*
X267000Y375919D01*
D02*
G37*
G36*
X398428Y325664D02*
X397410Y325530D01*
X396461Y325137D01*
X395647Y324512D01*
X395022Y323698D01*
X394629Y322749D01*
X394495Y321731D01*
X394629Y320713D01*
X395022Y319764D01*
X395647Y318950D01*
X396461Y318325D01*
X397410Y317932D01*
X398428Y317798D01*
X399446Y317932D01*
X400395Y318325D01*
X401209Y318950D01*
X401834Y319764D01*
X402227Y320713D01*
X402361Y321731D01*
X402227Y322749D01*
X401834Y323698D01*
X401209Y324512D01*
X400395Y325137D01*
X399446Y325530D01*
X398428Y325664D01*
D02*
G37*
G36*
X402800Y296124D02*
X389472D01*
X389003Y296030D01*
X388606Y295765D01*
X372065Y279223D01*
X357420D01*
Y279233D01*
X357080Y279300D01*
X356809Y279482D01*
X356798Y279498D01*
X356111Y279957D01*
X355300Y280119D01*
X354489Y279957D01*
X353802Y279498D01*
X353343Y278811D01*
X353181Y278000D01*
X353343Y277189D01*
X353802Y276502D01*
X354489Y276043D01*
X355300Y275881D01*
X356111Y276043D01*
X356798Y276502D01*
X356809Y276518D01*
X357080Y276699D01*
X357420Y276767D01*
Y276777D01*
X364884D01*
X365444Y276037D01*
X365796Y275276D01*
X365681Y274700D01*
X365843Y273889D01*
X366302Y273202D01*
X366989Y272743D01*
X367800Y272581D01*
X368611Y272743D01*
X369298Y273202D01*
X369309Y273218D01*
X369580Y273399D01*
X369920Y273467D01*
Y273477D01*
X372100D01*
X372568Y273570D01*
X372965Y273835D01*
X390007Y290877D01*
X399493D01*
X402105Y288265D01*
X403162Y287201D01*
X403408Y286834D01*
X403488Y286431D01*
X403481Y286400D01*
X403643Y285589D01*
X404102Y284902D01*
X404789Y284443D01*
X405600Y284281D01*
X406411Y284443D01*
X407098Y284902D01*
X407557Y285589D01*
X407719Y286400D01*
X407659Y286700D01*
X407594Y287261D01*
X408311Y288243D01*
X408998Y288702D01*
X409457Y289389D01*
X409619Y290200D01*
X409457Y291011D01*
X408998Y291698D01*
X408311Y292157D01*
X407500Y292319D01*
X407480Y292315D01*
X407161Y292378D01*
X406873Y292571D01*
X406866Y292564D01*
X406866Y292564D01*
X403665Y295765D01*
X403268Y296030D01*
X402800Y296124D01*
D02*
G37*
G36*
X366932Y296329D02*
X365743Y296212D01*
X364600Y295866D01*
X363546Y295302D01*
X362622Y294544D01*
X361865Y293621D01*
X361301Y292567D01*
X360955Y291424D01*
X360838Y290235D01*
X360955Y289046D01*
X361301Y287903D01*
X361865Y286849D01*
X362622Y285926D01*
X363546Y285168D01*
X364600Y284605D01*
X365743Y284258D01*
X366932Y284141D01*
X368121Y284258D01*
X369264Y284605D01*
X370318Y285168D01*
X371241Y285926D01*
X371999Y286849D01*
X372562Y287903D01*
X372909Y289046D01*
X373026Y290235D01*
X372909Y291424D01*
X372562Y292567D01*
X371999Y293621D01*
X371241Y294544D01*
X370318Y295302D01*
X369264Y295866D01*
X368121Y296212D01*
X366932Y296329D01*
D02*
G37*
G36*
X236500Y282083D02*
X235495Y281950D01*
X234559Y281563D01*
X233754Y280946D01*
X233137Y280141D01*
X232750Y279205D01*
X232617Y278200D01*
X232750Y277195D01*
X233137Y276259D01*
X233754Y275454D01*
X234559Y274837D01*
X235495Y274449D01*
X236500Y274317D01*
X237505Y274449D01*
X238441Y274837D01*
X239246Y275454D01*
X239863Y276259D01*
X240250Y277195D01*
X240383Y278200D01*
X240250Y279205D01*
X239863Y280141D01*
X239246Y280946D01*
X238441Y281563D01*
X237505Y281950D01*
X236500Y282083D01*
D02*
G37*
G36*
X380648Y270546D02*
X379630Y270412D01*
X378681Y270019D01*
X377867Y269394D01*
X377242Y268580D01*
X376849Y267631D01*
X376715Y266613D01*
X376849Y265595D01*
X377242Y264646D01*
X377867Y263832D01*
X378681Y263207D01*
X379630Y262814D01*
X380648Y262680D01*
X381666Y262814D01*
X382614Y263207D01*
X383429Y263832D01*
X384054Y264646D01*
X384447Y265595D01*
X384581Y266613D01*
X384447Y267631D01*
X384054Y268580D01*
X383429Y269394D01*
X382614Y270019D01*
X381666Y270412D01*
X380648Y270546D01*
D02*
G37*
%LPD*%
D13*
X223700Y396300D02*
X225100Y397700D01*
X229069D01*
D15*
X283821Y294121D02*
G03*
X285320Y293500I1499J1499D01*
G01*
D02*
G03*
X283821Y292879I0J-2120D01*
G01*
X370521Y363379D02*
G03*
X369900Y361880I1499J-1499D01*
G01*
D02*
G03*
X369279Y363379I-2120J0D01*
G01*
X376021Y363079D02*
G03*
X375400Y361580I1499J-1499D01*
G01*
D02*
G03*
X374779Y363079I-2120J0D01*
G01*
X380821Y364321D02*
G03*
X382320Y363700I1499J1499D01*
G01*
D02*
G03*
X380821Y363079I0J-2120D01*
G01*
X243122Y387400D02*
G03*
X242148Y389752I-3327J0D01*
G01*
X242122Y387400D02*
G03*
X240441Y391459I-5741J0D01*
G01*
X406622Y290200D02*
G03*
X406001Y291699I-2120J0D01*
G01*
X406001Y291699D02*
G03*
X407500Y291078I1499J1499D01*
G01*
X404722Y286400D02*
G03*
X404031Y288070I-2361J0D01*
G01*
X404272Y287828D02*
G03*
X405600Y287278I1328J1328D01*
G01*
X222679Y352621D02*
G03*
X223300Y354120I-1499J1499D01*
G01*
D02*
G03*
X223921Y352621I2120J0D01*
G01*
X314879Y306379D02*
G03*
X313380Y307000I-1499J-1499D01*
G01*
D02*
G03*
X314879Y307621I0J2120D01*
G01*
X355921Y278621D02*
G03*
X357420Y278000I1499J1499D01*
G01*
D02*
G03*
X355921Y277379I0J-2120D01*
G01*
X368421Y275321D02*
G03*
X369920Y274700I1499J1499D01*
G01*
D02*
G03*
X368421Y274079I0J-2120D01*
G01*
X237666Y289366D02*
G03*
X240482Y288200I2816J2816D01*
G01*
X238373Y290073D02*
G03*
X242897Y288200I4523J4523D01*
G01*
X240482D02*
G03*
X237666Y287034I0J-3982D01*
G01*
X242897Y288200D02*
G03*
X238373Y286327I0J-6397D01*
G01*
X250600Y288200D02*
X269400Y307000D01*
X236500Y288200D02*
X250600D01*
X400000Y292100D02*
X405650Y286450D01*
X372100Y274700D02*
X389500Y292100D01*
X367800Y274700D02*
X372100D01*
X389500Y292100D02*
X400000D01*
X372572Y278000D02*
X389472Y294900D01*
X402800D01*
X355300Y278000D02*
X372572D01*
X402800Y294900D02*
X407500Y290200D01*
X269400Y307000D02*
X315500D01*
X223300Y359300D02*
X223700Y359700D01*
X223300Y352000D02*
Y359300D01*
X380200Y363700D02*
X384557D01*
X387800Y360457D01*
X375400Y360500D02*
Y363700D01*
X382200Y359400D02*
X385800Y355800D01*
Y328172D02*
Y355800D01*
X376500Y359400D02*
X382200D01*
X375400Y360500D02*
X376500Y359400D01*
X379800Y357400D02*
X383800Y353400D01*
X371700Y357400D02*
X379800D01*
X369900Y359200D02*
X371700Y357400D01*
X369900Y359200D02*
Y364000D01*
X383800Y329000D02*
Y353400D01*
X283200Y293500D02*
X334400D01*
X340140Y299240D01*
Y301402D01*
X348506Y309769D01*
X240400Y391500D02*
X242800Y389100D01*
X366225Y305768D02*
X387800Y327343D01*
X365397Y307769D02*
X385800Y328172D01*
X387800Y327343D02*
Y360457D01*
X364568Y309769D02*
X383800Y329000D01*
X350163Y305768D02*
X366225D01*
X344140Y299745D02*
X350163Y305768D01*
X344140Y296440D02*
Y299745D01*
X348506Y309769D02*
X364568D01*
X342140Y298140D02*
Y300573D01*
X349335Y307769D01*
X365397D01*
X343840Y296140D02*
X344140Y296440D01*
X342040Y298040D02*
X342140Y298140D01*
D23*
X271000Y364331D02*
D03*
Y358268D02*
D03*
X277800Y364431D02*
D03*
Y358368D02*
D03*
X284700Y364531D02*
D03*
Y358468D02*
D03*
X291700Y364631D02*
D03*
Y358568D02*
D03*
X324300Y365031D02*
D03*
Y358968D02*
D03*
X331300Y365031D02*
D03*
Y358968D02*
D03*
D26*
X236931Y345300D02*
D03*
X230868D02*
D03*
X230969Y352600D02*
D03*
X237032D02*
D03*
X228668Y375900D02*
D03*
X234731D02*
D03*
X235231Y390200D02*
D03*
X229168D02*
D03*
X228969Y383500D02*
D03*
X235032D02*
D03*
X235132Y397700D02*
D03*
X229069D02*
D03*
D29*
X238092Y358869D02*
D03*
X230612D02*
D03*
X234352Y368594D02*
D03*
D93*
X243500Y340478D02*
G03*
X245169Y341170I0J2361D01*
G01*
X245169Y341170D02*
G03*
X244478Y339500I1670J-1670D01*
G01*
X240300Y337461D02*
G03*
X241226Y335226I3161J0D01*
G01*
X240300Y339392D02*
G03*
X241792Y335791I5092J0D01*
G01*
X260826Y371726D02*
G03*
X262525Y371022I1699J1699D01*
G01*
X261391Y372291D02*
G03*
X264456Y371022I3065J3065D01*
G01*
X252629Y367752D02*
G03*
X252000Y366400I1136J-1351D01*
G01*
D02*
G03*
X251371Y367752I-1766J0D01*
G01*
X267691Y374492D02*
G03*
X269361Y373800I1670J1670D01*
G01*
D02*
G03*
X267691Y373109I0J-2361D01*
G01*
X257392Y369192D02*
G03*
X259061Y368500I1670J1670D01*
G01*
D02*
G03*
X257392Y367809I0J-2361D01*
G01*
X278722Y349700D02*
G03*
X278030Y351370I-2361J0D01*
G01*
X278030Y351370D02*
G03*
X279700Y350678I1670J1670D01*
G01*
X282822Y351200D02*
G03*
X282131Y352870I-2361J0D01*
G01*
X282131Y352870D02*
G03*
X283800Y352178I1670J1670D01*
G01*
X288522Y350200D02*
G03*
X287477Y352723I-3568J0D01*
G01*
X287722Y350200D02*
G03*
X286111Y354089I-5500J0D01*
G01*
X289400Y345678D02*
G03*
X290899Y346299I0J2120D01*
G01*
X291140Y346540D02*
G03*
X290378Y344700I1840J-1840D01*
G01*
X287091Y290592D02*
G03*
X288761Y289900I1670J1670D01*
G01*
D02*
G03*
X287091Y289209I0J-2361D01*
G01*
X290492Y287192D02*
G03*
X292161Y286500I1670J1670D01*
G01*
D02*
G03*
X290492Y285808I0J-2361D01*
G01*
X278292Y300692D02*
G03*
X279961Y300000I1670J1670D01*
G01*
D02*
G03*
X278292Y299308I0J-2361D01*
G01*
X275291Y304092D02*
G03*
X276961Y303400I1670J1670D01*
G01*
D02*
G03*
X275291Y302709I0J-2361D01*
G01*
X230309Y341291D02*
G03*
X231000Y342961I-1670J1670D01*
G01*
D02*
G03*
X231692Y341291I2361J0D01*
G01*
X343100Y381822D02*
G03*
X341430Y381131I0J-2361D01*
G01*
X341430Y381131D02*
G03*
X342122Y382800I-1670J1670D01*
G01*
X343792Y382108D02*
G03*
X343100Y380439I1670J-1670D01*
G01*
D02*
G03*
X342408Y382108I-2361J0D01*
G01*
X340700Y385722D02*
G03*
X338348Y384748I0J-3327D01*
G01*
X339313Y385713D02*
G03*
X339722Y386700I-987J987D01*
G01*
X341391Y387192D02*
G03*
X343061Y386500I1670J1670D01*
G01*
Y386700D02*
G03*
X341391Y386009I0J-2361D01*
G01*
X390594Y373481D02*
G03*
X389143Y376986I-4956J0D01*
G01*
X389794Y373481D02*
G03*
X387777Y378351I-6887J0D01*
G01*
X388994Y373481D02*
G03*
X386411Y379717I-8818J0D01*
G01*
X389067Y377061D02*
G03*
X391547Y376034I2480J2480D01*
G01*
X227957Y384610D02*
G03*
X228969Y387052I-2442J2442D01*
G01*
D02*
G03*
X229980Y384610I3454J0D01*
G01*
X237194Y390406D02*
G03*
X235033Y391050I-1676J-1676D01*
G01*
X238240Y389360D02*
G03*
X235197Y390267I-2361J-2361D01*
G01*
X239287Y388313D02*
G03*
X235360Y389484I-3046J-3046D01*
G01*
X229614Y389656D02*
G03*
X228969Y388096I1559J-1559D01*
G01*
X230180Y389090D02*
G03*
X228969Y386165I2925J-2925D01*
G01*
Y387130D02*
G03*
X228157Y389090I-2772J0D01*
G01*
X290754Y365705D02*
G03*
X291700Y367800I-1847J2095D01*
G01*
D02*
G03*
X292646Y365705I2793J0D01*
G01*
X292600Y355111D02*
G03*
X291352Y358122I-4259J0D01*
G01*
X292600Y353179D02*
G03*
X290787Y357557I-6191J0D01*
G01*
X283754Y365605D02*
G03*
X284700Y367700I-1847J2095D01*
G01*
D02*
G03*
X285646Y365605I2793J0D01*
G01*
X285591Y357349D02*
G03*
X284700Y355500I1472J-1849D01*
G01*
D02*
G03*
X283809Y357349I-2364J0D01*
G01*
X278658Y364271D02*
G03*
X278012Y366288I-2281J381D01*
G01*
X277869Y364404D02*
G03*
X276914Y367386I-3374J564D01*
G01*
X277080Y364535D02*
G03*
X275815Y368485I-4467J747D01*
G01*
X278812Y357357D02*
G03*
X277800Y354914I2442J-2442D01*
G01*
D02*
G03*
X276788Y357357I-3454J0D01*
G01*
X269890Y363320D02*
G03*
X267447Y364331I-2442J-2442D01*
G01*
D02*
G03*
X269890Y365343I0J3454D01*
G01*
X272012Y357257D02*
G03*
X271000Y354814I2442J-2442D01*
G01*
D02*
G03*
X269988Y357257I-3454J0D01*
G01*
X231880Y344190D02*
G03*
X231000Y342065I2125J-2125D01*
G01*
Y343361D02*
G03*
X230422Y344756I-1972J0D01*
G01*
X231000Y341430D02*
G03*
X229857Y344190I-3903J0D01*
G01*
X330288Y366043D02*
G03*
X331300Y368485I-2442J2442D01*
G01*
D02*
G03*
X332312Y366043I3454J0D01*
G01*
X323288D02*
G03*
X324300Y368485I-2442J2442D01*
G01*
D02*
G03*
X325312Y366043I3454J0D01*
G01*
X361828Y404300D02*
X392347Y373781D01*
X239000Y403600D02*
X246900D01*
X235132Y399732D02*
X239000Y403600D01*
X235132Y397700D02*
Y399732D01*
X228969Y383500D02*
Y391405D01*
X229168Y391737D02*
X235132Y397700D01*
X229168Y390200D02*
Y391737D01*
X228969Y391405D02*
X229068Y391505D01*
X323800Y398000D02*
X330100Y404300D01*
X247700Y398500D02*
X248200Y398000D01*
X246900Y403600D02*
X247700Y402800D01*
Y398500D02*
Y402800D01*
X248200Y398000D02*
X323800D01*
X330100Y404300D02*
X361828D01*
X241200Y383700D02*
X242700Y382200D01*
X340700Y386700D02*
X344800D01*
X340300D02*
X340700D01*
X346022Y376649D02*
Y385478D01*
X324300Y370700D02*
X340300Y386700D01*
X344800D02*
X346022Y385478D01*
X338514Y378214D02*
X343100Y382800D01*
X338186Y378214D02*
X338514D01*
X338186D02*
X339029Y379057D01*
X331300Y371329D02*
X338186Y378214D01*
X343100Y377026D02*
Y382800D01*
X346022Y376649D02*
X368971Y353700D01*
X343100Y377026D02*
X368348Y351778D01*
X331300Y365031D02*
Y371329D01*
X324300Y365031D02*
Y370700D01*
X358169Y315268D02*
X377378Y334478D01*
Y349951D01*
X375551Y351778D02*
X377378Y349951D01*
X237700Y379400D02*
Y382100D01*
X236300Y383500D02*
X237700Y382100D01*
X239200Y382300D02*
X240300Y381200D01*
X239200Y382300D02*
Y388400D01*
X237700Y379400D02*
X242000Y375100D01*
X240300Y378921D02*
Y381200D01*
Y378921D02*
X246900Y372321D01*
X245100Y347400D02*
Y372000D01*
X242000Y375100D02*
X245100Y372000D01*
X377978Y355500D02*
X380978Y352500D01*
X370200Y355500D02*
X377978D01*
X376174Y353700D02*
X379178Y350696D01*
X368971Y353700D02*
X376174D01*
X368348Y351778D02*
X375551D01*
X348800Y376900D02*
X370200Y355500D01*
X348800Y376900D02*
Y377800D01*
X380978Y331047D02*
Y352500D01*
X280100Y296800D02*
X334500D01*
X337400Y299700D01*
Y301349D01*
X347720Y311668D01*
X379178Y333732D02*
Y350696D01*
X237400Y390200D02*
X239200Y388400D01*
X235231Y390200D02*
X237400D01*
X358914Y313469D02*
X379178Y333732D01*
X361600Y311668D02*
X380978Y331047D01*
X347720Y311668D02*
X361600D01*
X346568Y313469D02*
X358914D01*
X345069Y315268D02*
X358169D01*
X333200Y303400D02*
X345069Y315268D01*
X235032Y383500D02*
X236300D01*
X246900Y342900D02*
Y372321D01*
X240900Y376200D02*
X242000Y375100D01*
X230868Y345300D02*
X231000Y345168D01*
Y340600D02*
Y345168D01*
X333100Y300000D02*
X346568Y313469D01*
X277600Y300000D02*
X333100D01*
X274600Y303400D02*
X333200D01*
X333900Y289900D02*
X342040Y298040D01*
X334200Y286500D02*
X343840Y296140D01*
X289800Y286500D02*
X334200D01*
X286400Y289900D02*
X333900D01*
X277800Y364431D02*
Y366500D01*
X256700Y368500D02*
X275800D01*
X277800Y366500D01*
X260878Y371022D02*
X281378D01*
X284700Y364531D02*
Y367700D01*
X281378Y371022D02*
X284700Y367700D01*
X267000Y373800D02*
X286100D01*
X291900Y368000D01*
X291700Y367800D02*
X291900Y368000D01*
X291700Y364631D02*
Y367800D01*
X271000Y353400D02*
Y358268D01*
Y353400D02*
X272500Y351900D01*
X277500D01*
X279700Y349700D01*
X281200Y353800D02*
X283800Y351200D01*
X278400Y353800D02*
X281200D01*
X277800Y354400D02*
X278400Y353800D01*
X277800Y354400D02*
Y358368D01*
X288700Y350200D02*
Y351500D01*
X284700Y355500D02*
Y358468D01*
Y355500D02*
X288700Y351500D01*
X289400Y344700D02*
Y344800D01*
X292600Y348000D01*
Y357668D01*
X291700Y358568D02*
X292600Y357668D01*
X254069Y364331D02*
X271000D01*
X252000Y366400D02*
X254069Y364331D01*
X252000Y366400D02*
Y368500D01*
X240300Y335900D02*
X241100Y335100D01*
X240300Y335900D02*
Y342700D01*
X243300Y345700D01*
X243400D01*
X243500Y339500D02*
X246900Y342900D01*
X243400Y345700D02*
X245100Y347400D01*
D94*
X240872Y370000D02*
G03*
X239438Y373462I-4896J0D01*
G01*
X351600Y300170D02*
G03*
X350956Y301725I-2199J0D01*
G01*
X332944Y275644D02*
G03*
X334016Y275200I1072J1072D01*
G01*
D02*
G03*
X332944Y274756I0J-1516D01*
G01*
X233956Y364944D02*
G03*
X234400Y366016I-1072J1072D01*
G01*
D02*
G03*
X234844Y364944I1516J0D01*
G01*
X229433Y375037D02*
G03*
X228668Y373193I1845J-1845D01*
G01*
D02*
G03*
X227904Y375037I-2609J0D01*
G01*
X236948Y375952D02*
G03*
X234483Y376139I-1342J-1342D01*
G01*
X238183Y374717D02*
G03*
X235371Y374931I-1531J-1531D01*
G01*
X238056Y374844D02*
G03*
X234731Y376221I-3325J-3325D01*
G01*
X240617Y372283D02*
G03*
X234731Y374721I-5886J-5886D01*
G01*
X235571Y376581D02*
G03*
X237000Y375900I1429J1160D01*
G01*
D02*
G03*
X235571Y375219I0J-1840D01*
G01*
X238397Y357639D02*
G03*
X236931Y354101I3538J-3538D01*
G01*
X230969Y356042D02*
G03*
X230307Y357639I-2259J0D01*
G01*
X229223Y357800D02*
G03*
X230307Y358249I0J1533D01*
G01*
X236167Y346163D02*
G03*
X236931Y348007I-1845J1845D01*
G01*
D02*
G03*
X237696Y346163I2609J0D01*
G01*
X230204Y353463D02*
G03*
X230969Y355308I-1845J1845D01*
G01*
D02*
G03*
X231733Y353463I2609J0D01*
G01*
X237796Y351737D02*
G03*
X236931Y349651I2087J-2087D01*
G01*
Y350134D02*
G03*
X236267Y351737I-2267J0D01*
G01*
Y353463D02*
G03*
X236931Y355066I-1603J1603D01*
G01*
Y355549D02*
G03*
X237796Y353463I2951J0D01*
G01*
X330437Y358204D02*
G03*
X328592Y358968I-1845J-1845D01*
G01*
D02*
G03*
X330437Y359733I0J2609D01*
G01*
X325163D02*
G03*
X327008Y358968I1845J1845D01*
G01*
D02*
G03*
X325163Y358204I0J-2609D01*
G01*
X325064D02*
G03*
X324300Y356359I1845J-1845D01*
G01*
D02*
G03*
X323536Y358204I-2609J0D01*
G01*
X223700Y396300D02*
Y400600D01*
Y359700D02*
Y396300D01*
X351600Y290500D02*
Y302300D01*
X234352Y368594D02*
X234400Y368546D01*
Y364500D02*
Y368546D01*
X229542Y357800D02*
X230612Y358869D01*
X225600Y357800D02*
X229542D01*
X223700Y359700D02*
X225600Y357800D01*
X316700Y334600D02*
X324300Y342200D01*
X316700Y334600D02*
X318000Y333300D01*
X336300Y275200D02*
X351600Y290500D01*
X332500Y275200D02*
X336300D01*
X324300Y342200D02*
Y358968D01*
X331300D01*
X237000Y375900D02*
X241500Y371400D01*
X234731Y375900D02*
X237000D01*
X241500Y370000D02*
Y371400D01*
X228668Y370132D02*
X230206Y368594D01*
X228668Y370132D02*
Y375900D01*
X230206Y368594D02*
X234352D01*
X230612Y358869D02*
X230969Y358512D01*
Y352600D02*
Y358512D01*
X236931Y345300D02*
Y357709D01*
X238092Y358869D01*
D95*
X382689Y373481D02*
G03*
X384175Y369894I5073J0D01*
G01*
X382000Y372069D02*
X391268Y362800D01*
X351600Y302300D02*
X367800D01*
X381704Y373481D02*
X382000Y373186D01*
Y372069D02*
Y373186D01*
X391268Y325906D02*
Y362800D01*
X367800Y302300D02*
X386500Y321000D01*
Y321138D01*
X391268Y325906D01*
D97*
X322597Y326400D02*
G03*
X320968Y330332I-5560J0D01*
G01*
X322400Y326400D02*
Y328900D01*
Y323200D02*
Y326400D01*
Y322200D02*
Y323200D01*
X301700Y339268D02*
X312032D01*
X318000Y333300D02*
X322400Y328900D01*
X312032Y339268D02*
X316700Y334600D01*
D135*
X236500Y288200D02*
D03*
D136*
Y278200D02*
D03*
Y268200D02*
D03*
D137*
X398418Y270289D02*
D03*
X389414Y282238D02*
D03*
D138*
X425586Y290762D02*
D03*
X416582Y302711D02*
D03*
D139*
X381704Y373481D02*
D03*
X391547D02*
D03*
X401389D02*
D03*
D140*
X354600Y409100D02*
D03*
X336700Y325400D02*
D03*
X354700Y321800D02*
D03*
X280700Y286700D02*
D03*
X268200Y296900D02*
D03*
X382700Y388900D02*
D03*
X406800Y386200D02*
D03*
X406500Y408100D02*
D03*
X377700Y394500D02*
D03*
X377600Y402000D02*
D03*
X377700Y409000D02*
D03*
X406178Y316200D02*
D03*
X401600Y312800D02*
D03*
X383500Y276000D02*
D03*
X391900Y266400D02*
D03*
X371300Y264500D02*
D03*
X370400Y257100D02*
D03*
X357500Y253400D02*
D03*
X346500Y250400D02*
D03*
X332600Y248800D02*
D03*
X298600Y254300D02*
D03*
X289500Y254900D02*
D03*
X296500Y262300D02*
D03*
X290500Y262100D02*
D03*
X293500Y268700D02*
D03*
X297900Y272700D02*
D03*
X287700Y270400D02*
D03*
X305300Y247400D02*
D03*
X294700Y247100D02*
D03*
X286000Y247000D02*
D03*
X370100Y376200D02*
D03*
X334600Y387600D02*
D03*
X337200Y390600D02*
D03*
X346700Y356100D02*
D03*
X318000Y365800D02*
D03*
X313600D02*
D03*
X318300Y370200D02*
D03*
X313400D02*
D03*
X308400Y357200D02*
D03*
X306500Y363600D02*
D03*
Y369900D02*
D03*
Y377100D02*
D03*
X270700Y337200D02*
D03*
X253500Y350600D02*
D03*
X353500Y282700D02*
D03*
X381500Y296600D02*
D03*
X382660Y300700D02*
D03*
X352800Y318600D02*
D03*
X347700Y295800D02*
D03*
X327800Y329800D02*
D03*
X327300Y318000D02*
D03*
X329200Y313800D02*
D03*
X324100Y314100D02*
D03*
X245300Y378700D02*
D03*
X256500Y373600D02*
D03*
X252200D02*
D03*
X259842Y291339D02*
D03*
X267717D02*
D03*
X275590D02*
D03*
X244094Y299213D02*
D03*
Y307087D02*
D03*
X228346Y267717D02*
D03*
Y275590D02*
D03*
X228500Y284504D02*
D03*
Y292378D02*
D03*
Y300252D02*
D03*
Y308126D02*
D03*
X401390Y334111D02*
D03*
Y341985D02*
D03*
Y349859D02*
D03*
Y357733D02*
D03*
Y365607D02*
D03*
X258370Y260882D02*
D03*
X250496D02*
D03*
X242622D02*
D03*
X234748D02*
D03*
X226874D02*
D03*
X219000D02*
D03*
Y268756D02*
D03*
Y276630D02*
D03*
Y284504D02*
D03*
Y292378D02*
D03*
Y300252D02*
D03*
Y308126D02*
D03*
X219200Y391192D02*
D03*
Y383318D02*
D03*
Y375444D02*
D03*
Y367570D02*
D03*
Y359696D02*
D03*
Y351822D02*
D03*
Y343948D02*
D03*
Y336074D02*
D03*
X266100Y316000D02*
D03*
X261900D02*
D03*
X256800D02*
D03*
X251800D02*
D03*
X247200D02*
D03*
X242400D02*
D03*
X237500D02*
D03*
X233000D02*
D03*
X228500D02*
D03*
X223900D02*
D03*
X219000D02*
D03*
X267600Y325000D02*
D03*
X262200Y325100D02*
D03*
X253800D02*
D03*
X249400D02*
D03*
X240700Y325400D02*
D03*
X236100D02*
D03*
X231900Y328400D02*
D03*
X227800Y325500D02*
D03*
X223600Y325600D02*
D03*
X219200Y328200D02*
D03*
X345500Y326600D02*
D03*
X248700Y376300D02*
D03*
X290300Y313300D02*
D03*
Y318200D02*
D03*
Y323100D02*
D03*
X285800Y313300D02*
D03*
X285615Y318391D02*
D03*
X285700Y323200D02*
D03*
X281100Y313300D02*
D03*
Y318500D02*
D03*
X281200Y323300D02*
D03*
X366700Y331300D02*
D03*
X363900Y327600D02*
D03*
X369500Y341000D02*
D03*
Y344900D02*
D03*
Y348400D02*
D03*
X374100Y341300D02*
D03*
X373900Y344900D02*
D03*
X373800Y348300D02*
D03*
X337000Y355900D02*
D03*
X336100Y350900D02*
D03*
X354400Y361000D02*
D03*
X349800Y361100D02*
D03*
X356100Y385000D02*
D03*
X351000Y383200D02*
D03*
X374000Y372800D02*
D03*
X368500Y372700D02*
D03*
X368700Y368600D02*
D03*
X374400D02*
D03*
X340700Y386400D02*
D03*
X343100Y382800D02*
D03*
X356400Y260100D02*
D03*
X367800Y274700D02*
D03*
X355300Y278000D02*
D03*
X310400Y311200D02*
D03*
X311400Y316000D02*
D03*
X322400Y323200D02*
D03*
X315500Y307000D02*
D03*
X223300Y352000D02*
D03*
X234400Y364500D02*
D03*
X249800Y350100D02*
D03*
X405600Y286400D02*
D03*
X407500Y290200D02*
D03*
X334500Y370600D02*
D03*
X325800Y391700D02*
D03*
X303600Y354000D02*
D03*
X302200Y359300D02*
D03*
X243000Y387400D02*
D03*
X242700Y399300D02*
D03*
X242900Y383600D02*
D03*
X291800Y390000D02*
D03*
X291900Y393500D02*
D03*
X276400Y390800D02*
D03*
X272400Y390900D02*
D03*
X268400Y390800D02*
D03*
X329400Y393800D02*
D03*
X322400Y326400D02*
D03*
X380200Y363700D02*
D03*
X348800Y377800D02*
D03*
X375400Y363700D02*
D03*
X369900Y364000D02*
D03*
X332500Y275200D02*
D03*
X355369Y302169D02*
D03*
X351400D02*
D03*
X241500Y370000D02*
D03*
X231000Y340600D02*
D03*
X274600Y303400D02*
D03*
X277600Y300000D02*
D03*
X280100Y296800D02*
D03*
X283200Y293500D02*
D03*
X289800Y286500D02*
D03*
X286400Y289900D02*
D03*
X289400Y344700D02*
D03*
X288700Y350200D02*
D03*
X283800Y351200D02*
D03*
X279700Y349700D02*
D03*
X256700Y368500D02*
D03*
X267000Y373800D02*
D03*
X252000Y368500D02*
D03*
X260700Y371600D02*
D03*
X301700Y339268D02*
D03*
X322800Y391900D02*
D03*
X241100Y335100D02*
D03*
X243500Y339500D02*
D03*
D141*
X329400Y395375D02*
G03*
X327309Y394509I0J-2958D01*
G01*
X328692Y395891D02*
G03*
X327825Y393800I2091J-2091D01*
G01*
X291356Y391700D02*
G03*
X293014Y392387I0J2344D01*
G01*
X290787D02*
G03*
X292444Y391700I1657J1657D01*
G01*
X292914Y391113D02*
G03*
X291498Y391700I-1416J-1416D01*
G01*
X292102D02*
G03*
X290686Y391113I0J-2002D01*
G01*
X355086Y400100D02*
X381704Y373481D01*
X244229Y391700D02*
X276400D01*
X291900D01*
X325800D01*
X332900Y400100D02*
X355086D01*
X324650Y391850D02*
X332900Y400100D01*
D142*
X381600Y373600D02*
D03*
D143*
X391621Y374100D02*
D03*
D144*
X243300Y382750D02*
D03*
D145*
X242850Y388200D02*
D03*
D146*
X242750Y396200D02*
D03*
D147*
X402550Y355850D02*
D03*
M02*
