G04*
G04 #@! TF.GenerationSoftware,Altium Limited,Altium Designer,18.1.9 (240)*
G04*
G04 Layer_Color=16711935*
%FSLAX25Y25*%
%MOIN*%
G70*
G01*
G75*
%ADD53R,0.04658X0.04461*%
%ADD60R,0.04461X0.04658*%
%ADD63R,0.03162X0.05013*%
%ADD87R,0.07099X0.07099*%
%ADD88C,0.07099*%
G04:AMPARAMS|DCode=89|XSize=82.8mil|YSize=51.31mil|CornerRadius=0mil|HoleSize=0mil|Usage=FLASHONLY|Rotation=127.000|XOffset=0mil|YOffset=0mil|HoleType=Round|Shape=Round|*
%AMOVALD89*
21,1,0.03150,0.05131,0.00000,0.00000,127.0*
1,1,0.05131,0.00948,-0.01258*
1,1,0.05131,-0.00948,0.01258*
%
%ADD89OVALD89*%

G04:AMPARAMS|DCode=90|XSize=78.87mil|YSize=47.37mil|CornerRadius=0mil|HoleSize=0mil|Usage=FLASHONLY|Rotation=127.000|XOffset=0mil|YOffset=0mil|HoleType=Round|Shape=Round|*
%AMOVALD90*
21,1,0.03150,0.04737,0.00000,0.00000,127.0*
1,1,0.04737,0.00948,-0.01258*
1,1,0.04737,-0.00948,0.01258*
%
%ADD90OVALD90*%

%ADD91C,0.06706*%
%ADD92C,0.03556*%
D53*
X271000Y364331D02*
D03*
Y358268D02*
D03*
X277800Y364431D02*
D03*
Y358368D02*
D03*
X284700Y364531D02*
D03*
Y358468D02*
D03*
X291700Y364631D02*
D03*
Y358568D02*
D03*
X324300Y365031D02*
D03*
Y358968D02*
D03*
X331300Y365031D02*
D03*
Y358968D02*
D03*
D60*
X236931Y345300D02*
D03*
X230868D02*
D03*
X230969Y352600D02*
D03*
X237032D02*
D03*
X228668Y375900D02*
D03*
X234731D02*
D03*
X235231Y390200D02*
D03*
X229168D02*
D03*
X228969Y383500D02*
D03*
X235032D02*
D03*
X235132Y397700D02*
D03*
X229069D02*
D03*
D63*
X238092Y358869D02*
D03*
X230612D02*
D03*
X234352Y368594D02*
D03*
D87*
X236500Y288200D02*
D03*
D88*
Y278200D02*
D03*
Y268200D02*
D03*
D89*
X398418Y270289D02*
D03*
X389414Y282238D02*
D03*
D90*
X425586Y290762D02*
D03*
X416582Y302711D02*
D03*
D91*
X381704Y373481D02*
D03*
X391547D02*
D03*
X401389D02*
D03*
D92*
X354600Y409100D02*
D03*
X336700Y325400D02*
D03*
X354700Y321800D02*
D03*
M02*
