G04*
G04 #@! TF.GenerationSoftware,Altium Limited,Altium Designer,18.1.9 (240)*
G04*
G04 Layer_Physical_Order=1*
G04 Layer_Color=255*
%FSLAX25Y25*%
%MOIN*%
G70*
G01*
G75*
%ADD13C,0.02000*%
%ADD15C,0.01000*%
%ADD23R,0.03858X0.03661*%
%ADD24R,0.02362X0.02559*%
%ADD25R,0.02559X0.02362*%
%ADD26R,0.03661X0.03858*%
%ADD27R,0.04567X0.05787*%
%ADD28R,0.05512X0.04724*%
%ADD29R,0.02362X0.04213*%
%ADD30R,0.04724X0.02362*%
%ADD31R,0.02756X0.04921*%
%ADD34R,0.06299X0.03150*%
%ADD35R,0.11811X0.08268*%
%ADD38R,0.04724X0.13780*%
%ADD41R,0.04724X0.05512*%
%ADD42R,0.04754X0.06697*%
%ADD43R,0.12284X0.07087*%
%ADD44R,0.04213X0.02362*%
%ADD45O,0.02400X0.06693*%
%ADD46R,0.09055X0.09055*%
%ADD47O,0.03937X0.06299*%
%ADD48O,0.03937X0.05512*%
%ADD49R,0.03937X0.06299*%
G04:AMPARAMS|DCode=50|XSize=39.37mil|YSize=27.56mil|CornerRadius=0mil|HoleSize=0mil|Usage=FLASHONLY|Rotation=307.000|XOffset=0mil|YOffset=0mil|HoleType=Round|Shape=Rectangle|*
%AMROTATEDRECTD50*
4,1,4,-0.02285,0.00743,-0.00084,0.02401,0.02285,-0.00743,0.00084,-0.02401,-0.02285,0.00743,0.0*
%
%ADD50ROTATEDRECTD50*%

G04:AMPARAMS|DCode=51|XSize=39.37mil|YSize=31.5mil|CornerRadius=0mil|HoleSize=0mil|Usage=FLASHONLY|Rotation=307.000|XOffset=0mil|YOffset=0mil|HoleType=Round|Shape=Rectangle|*
%AMROTATEDRECTD51*
4,1,4,-0.02442,0.00624,0.00073,0.02520,0.02442,-0.00624,-0.00073,-0.02520,-0.02442,0.00624,0.0*
%
%ADD51ROTATEDRECTD51*%

%ADD52R,0.05118X0.03228*%
%ADD93C,0.00800*%
%ADD94C,0.01500*%
%ADD95C,0.03937*%
%ADD96C,0.02362*%
%ADD97C,0.03150*%
%ADD98C,0.02756*%
%ADD99R,0.14567X0.14567*%
%ADD100R,0.00787X0.03150*%
%ADD101R,0.03150X0.00787*%
%ADD102R,0.02169X0.01989*%
%ADD103R,0.03543X0.02756*%
%ADD104O,0.02205X0.07303*%
%ADD105R,0.02362X0.06299*%
%ADD106R,0.07874X0.11811*%
%ADD107R,0.01968X0.06299*%
%ADD108R,0.08268X0.11811*%
%ADD109C,0.01968*%
%ADD110R,0.06600X0.08200*%
%ADD111R,0.03100X0.20700*%
%ADD112R,0.23300X0.07100*%
%ADD113R,0.04185X0.08918*%
%ADD114R,0.06400X0.08200*%
%ADD115R,0.05000X0.03700*%
%ADD116R,0.05000X0.19100*%
%ADD117R,0.03900X0.06000*%
%ADD118R,0.07000X0.21600*%
%ADD119R,0.26700X0.14800*%
%ADD120R,0.06900X0.06700*%
%ADD121R,0.03400X0.20500*%
%ADD122R,0.33600X0.10200*%
%ADD123R,0.10400X0.45900*%
%ADD124R,0.28673X0.01968*%
%ADD125R,0.28663X0.01968*%
%ADD126R,0.01968X0.20450*%
%ADD127R,0.15420X0.01968*%
%ADD128R,0.01968X0.11010*%
%ADD129R,0.15670X0.01968*%
%ADD130R,0.15650X0.01968*%
%ADD131R,0.15790X0.01968*%
%ADD132R,0.01968X0.11050*%
%ADD133R,0.01520X0.01973*%
%ADD134R,0.20970X0.01968*%
%ADD135R,0.06299X0.06299*%
%ADD136C,0.06299*%
G04:AMPARAMS|DCode=137|XSize=74.8mil|YSize=43.31mil|CornerRadius=0mil|HoleSize=0mil|Usage=FLASHONLY|Rotation=127.000|XOffset=0mil|YOffset=0mil|HoleType=Round|Shape=Round|*
%AMOVALD137*
21,1,0.03150,0.04331,0.00000,0.00000,127.0*
1,1,0.04331,0.00948,-0.01258*
1,1,0.04331,-0.00948,0.01258*
%
%ADD137OVALD137*%

G04:AMPARAMS|DCode=138|XSize=70.87mil|YSize=39.37mil|CornerRadius=0mil|HoleSize=0mil|Usage=FLASHONLY|Rotation=127.000|XOffset=0mil|YOffset=0mil|HoleType=Round|Shape=Round|*
%AMOVALD138*
21,1,0.03150,0.03937,0.00000,0.00000,127.0*
1,1,0.03937,0.00948,-0.01258*
1,1,0.03937,-0.00948,0.01258*
%
%ADD138OVALD138*%

%ADD139C,0.05906*%
%ADD140C,0.02756*%
G36*
X239186Y381900D02*
X239241Y381627D01*
X239395Y381395D01*
X239627Y381241D01*
X239900Y381186D01*
X244900D01*
X245173Y381241D01*
X245405Y381395D01*
X245559Y381627D01*
X245614Y381900D01*
Y385574D01*
X247114Y386195D01*
X249245Y384064D01*
X249239Y384059D01*
X249289Y384020D01*
X250434Y382875D01*
Y378838D01*
X250574Y378135D01*
X250972Y377539D01*
X251568Y377141D01*
X252272Y377001D01*
X252975Y377141D01*
X253344Y377387D01*
X253581Y377539D01*
X254900D01*
X255136Y377387D01*
X255505Y377141D01*
X256209Y377001D01*
X256912Y377141D01*
X257281Y377387D01*
X257518Y377539D01*
X258837D01*
X259073Y377387D01*
X259442Y377141D01*
X260146Y377001D01*
X260849Y377141D01*
X261218Y377387D01*
X261455Y377539D01*
X262773D01*
X263010Y377387D01*
X263379Y377141D01*
X264083Y377001D01*
X264786Y377141D01*
X264933Y377239D01*
X265121Y377291D01*
X265489Y377130D01*
X265553Y377044D01*
X265502Y375298D01*
X265043Y374611D01*
X264881Y373800D01*
X264888Y373767D01*
X264556Y373283D01*
X263790Y372751D01*
X262213Y373076D01*
X262198Y373098D01*
X261511Y373557D01*
X260700Y373719D01*
X259889Y373557D01*
X259202Y373098D01*
X258743Y372411D01*
X258581Y371600D01*
X258594Y371538D01*
X258087Y371033D01*
X257270Y370505D01*
X256700Y370619D01*
X255889Y370457D01*
X255230Y370017D01*
X255196Y369998D01*
X254350D01*
X253504D01*
X253470Y370017D01*
X252811Y370457D01*
X252000Y370619D01*
X251189Y370457D01*
X250502Y369998D01*
X250043Y369311D01*
X249881Y368500D01*
X250043Y367689D01*
X250082Y367630D01*
X248917Y366674D01*
X248385Y367206D01*
X247905Y367526D01*
X247340Y367639D01*
X246858D01*
Y368435D01*
X244720D01*
X244553Y368535D01*
X243606Y369935D01*
X243619Y370000D01*
X243457Y370811D01*
X242998Y371498D01*
X242311Y371957D01*
X241500Y372119D01*
X240689Y371957D01*
X240002Y371498D01*
X239543Y370811D01*
X239381Y370000D01*
X239394Y369935D01*
X239159Y368435D01*
X239159D01*
X239159Y364583D01*
X237872Y363372D01*
X237559Y363407D01*
X236519Y364500D01*
X236357Y365311D01*
X235898Y365998D01*
X235211Y366457D01*
X234400Y366619D01*
X233589Y366457D01*
X232902Y365998D01*
X232443Y365311D01*
X232281Y364500D01*
X232443Y363689D01*
X232902Y363002D01*
X232896Y362996D01*
X232901Y362984D01*
X232922Y362100D01*
X233034Y361534D01*
X233355Y361055D01*
X234155Y360255D01*
X234634Y359934D01*
X235200Y359822D01*
X239159D01*
Y358965D01*
X245822D01*
X246858Y358965D01*
X247322Y357657D01*
Y356000D01*
X247434Y355434D01*
X247755Y354955D01*
X249355Y353355D01*
X249834Y353034D01*
X250400Y352922D01*
X278141D01*
X278536Y351422D01*
X278202Y351198D01*
X277743Y350511D01*
X277581Y349700D01*
X277601Y349601D01*
X276361Y348462D01*
X271471D01*
X271471Y348462D01*
X269973Y348468D01*
Y349817D01*
X263062D01*
Y343692D01*
X269973D01*
Y343692D01*
X271471Y343686D01*
Y343401D01*
X276729D01*
Y343631D01*
X278229Y344276D01*
X278978Y343675D01*
Y336416D01*
X278309Y335039D01*
X277559Y335021D01*
X261610D01*
X261268Y335500D01*
X261312Y337000D01*
X261312D01*
Y343124D01*
X254400D01*
Y342443D01*
X252900Y341621D01*
X252229Y341899D01*
Y341899D01*
X246971D01*
Y340391D01*
X245471Y340243D01*
X245457Y340311D01*
X244998Y340998D01*
X244311Y341457D01*
X243500Y341619D01*
X242689Y341457D01*
X242002Y340998D01*
X241543Y340311D01*
X241381Y339500D01*
X241543Y338689D01*
X241565Y338655D01*
X241387Y338104D01*
X240776Y337154D01*
X240289Y337057D01*
X239602Y336598D01*
X239244Y336063D01*
X238888Y335866D01*
X237557Y335629D01*
X234523Y338663D01*
X233468Y339729D01*
D01*
X233030Y341048D01*
X232957Y341411D01*
X232498Y342098D01*
X231811Y342557D01*
X231000Y342719D01*
X230189Y342557D01*
X229502Y342098D01*
X229043Y341411D01*
X228881Y340600D01*
X229043Y339789D01*
X229502Y339102D01*
X230189Y338643D01*
X230552Y338570D01*
X231871Y338132D01*
D01*
X232937Y337077D01*
X238507Y331507D01*
X238507Y331507D01*
X238871Y331264D01*
X239300Y331178D01*
X243135D01*
X246607Y327707D01*
X246607Y327707D01*
X246971Y327464D01*
X247400Y327378D01*
X247400Y327379D01*
X268964D01*
X272608Y323735D01*
X271722Y322500D01*
X269978D01*
X269890Y322517D01*
X267654D01*
Y322779D01*
X260546D01*
Y322780D01*
X259780Y322808D01*
Y322808D01*
X259057Y322808D01*
X256843D01*
X255820Y322808D01*
Y322808D01*
X255354Y322779D01*
Y322779D01*
X248450D01*
X248246Y322779D01*
Y322779D01*
X246979Y322708D01*
Y322708D01*
X243021D01*
X243021Y322708D01*
X241954Y322880D01*
X241954Y322880D01*
X241592Y322880D01*
X234846D01*
Y322880D01*
X233980Y322908D01*
Y322908D01*
X233357Y322908D01*
X230020D01*
Y322908D01*
X229054Y322980D01*
Y322979D01*
X228550Y322979D01*
X222608D01*
X221946Y322979D01*
X221946Y322980D01*
X221180Y322808D01*
Y322808D01*
X217220D01*
X216913Y324181D01*
X216900Y390783D01*
X218400Y392200D01*
X239186D01*
Y381900D01*
D02*
G37*
G36*
X409493Y323035D02*
X409464D01*
X409639Y320361D01*
X410162Y317734D01*
X411023Y315197D01*
X412208Y312795D01*
X413664Y310614D01*
X413664D01*
X413700Y310610D01*
X428022Y291839D01*
X427994Y291817D01*
X428240Y291496D01*
X428556Y290733D01*
X428664Y289914D01*
X428588Y289338D01*
X428037Y288067D01*
D01*
X427021Y287072D01*
X409833Y273472D01*
X409795Y273477D01*
X409795Y273477D01*
Y273477D01*
X407075Y271562D01*
X405860Y270706D01*
X404608Y269901D01*
X399787Y266848D01*
X398524Y266117D01*
X398521Y266116D01*
X398521D01*
X397258Y265369D01*
X396392Y264868D01*
X394794Y263976D01*
X393373Y263203D01*
X392129Y262542D01*
X391338Y262130D01*
X389987Y261477D01*
X388746Y260852D01*
X386190Y259565D01*
X383217Y258248D01*
Y258248D01*
X383200Y258203D01*
X380969Y257224D01*
X379196Y256474D01*
X377613Y255825D01*
X376224Y255271D01*
X374931Y254768D01*
X373732Y254313D01*
X372524Y253864D01*
X371195Y253383D01*
X369738Y252869D01*
X368156Y252327D01*
X366441Y251759D01*
X364591Y251166D01*
X362486Y250519D01*
X360117Y249822D01*
X357354Y249054D01*
X355287Y248508D01*
X354432Y248289D01*
X353571Y248074D01*
X352584Y247832D01*
X351592Y247594D01*
X350473Y247332D01*
X349349Y247075D01*
X348094Y246797D01*
X346708Y246499D01*
X345190Y246185D01*
X343409Y245830D01*
X341238Y245420D01*
X338025Y244855D01*
X335315Y244418D01*
X334540Y244299D01*
X333634Y244164D01*
X332727Y244033D01*
X331819Y243905D01*
X330914Y243781D01*
X329873Y243643D01*
X328836Y243511D01*
X327799Y243383D01*
X326632Y243245D01*
X325335Y243097D01*
X324039Y242958D01*
X322618Y242812D01*
X320939Y242651D01*
X319007Y242480D01*
X316316Y242267D01*
X313766Y242091D01*
X311867Y241976D01*
X310226Y241888D01*
X308717Y241816D01*
X307339Y241758D01*
X306089Y241712D01*
X304965Y241675D01*
X303847Y241643D01*
X302852Y241618D01*
X301862Y241597D01*
X300871Y241579D01*
X300006Y241566D01*
X299141Y241556D01*
X298280Y241549D01*
X297540Y241544D01*
X297540Y241544D01*
X296804Y241541D01*
X296066Y241541D01*
X295328Y241541D01*
X294592Y241544D01*
X294592Y241544D01*
X293851Y241549D01*
X292990Y241556D01*
X292126Y241566D01*
X291261Y241579D01*
X290269Y241597D01*
X289279Y241618D01*
X288285Y241643D01*
X287167Y241675D01*
X286042Y241712D01*
X284792Y241758D01*
X283415Y241816D01*
X281905Y241888D01*
X280264Y241976D01*
X278365Y242091D01*
X275816Y242267D01*
X273125Y242480D01*
X271193Y242651D01*
X269513Y242812D01*
X268093Y242958D01*
X266797Y243097D01*
X265499Y243245D01*
X264333Y243383D01*
X263296Y243511D01*
X262258Y243643D01*
X261218Y243781D01*
X260313Y243905D01*
X259404Y244033D01*
X258497Y244164D01*
X257592Y244299D01*
X256817Y244418D01*
X254106Y244855D01*
X250893Y245420D01*
X248723Y245830D01*
X246942Y246185D01*
X245424Y246499D01*
X244037Y246797D01*
X242782Y247076D01*
X241658Y247332D01*
X240540Y247594D01*
X239547Y247832D01*
X238560Y248074D01*
X237699Y248290D01*
X236845Y248508D01*
X234777Y249054D01*
X232015Y249822D01*
X229645Y250519D01*
X227540Y251166D01*
X225691Y251758D01*
X223975Y252327D01*
X222393Y252869D01*
X220936Y253383D01*
X219607Y253865D01*
X218397Y254314D01*
X217200Y254768D01*
X216927Y254875D01*
X216916Y309122D01*
X217800Y310006D01*
X218073Y310061D01*
X218305Y310215D01*
X218459Y310447D01*
X218514Y310720D01*
Y312688D01*
X218459Y312962D01*
X218305Y313193D01*
X218073Y313348D01*
X217800Y313402D01*
X216915D01*
X216915Y317672D01*
X218414Y319046D01*
X221180D01*
Y319046D01*
X221946Y319020D01*
Y319020D01*
X222669Y319021D01*
X228572D01*
X229054Y319020D01*
Y319020D01*
X230020Y319146D01*
Y319146D01*
X233980D01*
X233980Y319146D01*
X234846Y318920D01*
X234846Y318920D01*
X235386Y318920D01*
X241531D01*
X241954Y318920D01*
Y318920D01*
X243021Y318946D01*
Y318946D01*
X246979D01*
Y318946D01*
X248246Y318820D01*
Y318820D01*
X248428Y318821D01*
X249937D01*
X250127Y318783D01*
X250316Y318821D01*
X255354D01*
Y318820D01*
X255820Y319046D01*
X259780D01*
X259780Y319046D01*
X260546Y318820D01*
X260546Y318821D01*
X261186Y318821D01*
X267654D01*
Y319083D01*
X269890D01*
X270031Y319111D01*
X271969D01*
Y319632D01*
X273700D01*
Y315576D01*
X271254D01*
X270825Y315490D01*
X270461Y315247D01*
X270461Y315247D01*
X266335Y311122D01*
X257900D01*
X257900Y311122D01*
X257471Y311036D01*
X257107Y310793D01*
X257107Y310793D01*
X254558Y308244D01*
X254553Y308250D01*
X254505Y308191D01*
X253446Y307132D01*
X253446Y307132D01*
X252145Y306652D01*
X251651Y306587D01*
X251002Y306318D01*
X250445Y305891D01*
X250017Y305333D01*
X249748Y304684D01*
X249657Y303987D01*
Y302413D01*
X249748Y301716D01*
X250017Y301067D01*
X250445Y300509D01*
X251002Y300082D01*
X251651Y299813D01*
X252348Y299721D01*
X253045Y299813D01*
X253694Y300082D01*
X254251Y300509D01*
X254679Y301067D01*
X254948Y301716D01*
X255040Y302413D01*
Y303987D01*
X255037Y304008D01*
X255163Y304966D01*
X255375Y305477D01*
X256144Y306658D01*
X256144Y306658D01*
X256144Y306658D01*
X258365Y308878D01*
X264733D01*
X265306Y307493D01*
X263990Y306176D01*
X263738Y306097D01*
X262125Y306284D01*
X261568Y306712D01*
X260919Y306981D01*
X260222Y307073D01*
X259525Y306981D01*
X258876Y306712D01*
X258319Y306284D01*
X257891Y305727D01*
X257622Y305078D01*
X257530Y304381D01*
Y302019D01*
X257622Y301322D01*
X257891Y300673D01*
X258319Y300116D01*
X258876Y299688D01*
X259525Y299419D01*
X260222Y299327D01*
X260919Y299419D01*
X261568Y299688D01*
X262125Y300116D01*
X262553Y300673D01*
X262822Y301322D01*
X262914Y302019D01*
Y302141D01*
X263029Y302164D01*
X263393Y302407D01*
X272200Y311214D01*
X273700Y310593D01*
Y310210D01*
X277005D01*
X277634Y310210D01*
X277634Y309581D01*
Y308691D01*
X277606Y308551D01*
Y306192D01*
X276293Y304879D01*
X276098Y304898D01*
X275411Y305357D01*
X274600Y305519D01*
X273789Y305357D01*
X273102Y304898D01*
X272643Y304211D01*
X272481Y303400D01*
X272643Y302589D01*
X273102Y301902D01*
X273789Y301443D01*
X274334Y301334D01*
X274651Y301207D01*
X275481Y300000D01*
X275643Y299189D01*
X276102Y298502D01*
X276789Y298043D01*
X276815Y298038D01*
X277115Y297941D01*
X277981Y296800D01*
X278013Y296642D01*
X278143Y295989D01*
X278602Y295302D01*
X279289Y294843D01*
X279911Y294719D01*
X280123Y294654D01*
X281081Y293500D01*
X281243Y292689D01*
X281702Y292002D01*
X282389Y291543D01*
X283200Y291381D01*
X283259Y291350D01*
X284317Y290081D01*
X284281Y289900D01*
X284443Y289089D01*
X284902Y288402D01*
X285589Y287943D01*
X286400Y287781D01*
X286504Y287802D01*
X287702Y286604D01*
X287681Y286500D01*
X287843Y285689D01*
X288302Y285002D01*
X287817Y283522D01*
X249600D01*
X249171Y283436D01*
X248807Y283193D01*
X248807Y283193D01*
X245331Y279717D01*
X243862Y279642D01*
X242371Y279622D01*
X242337D01*
X241249Y279765D01*
X240163Y280215D01*
X239296Y280879D01*
X239246Y280946D01*
X238441Y281563D01*
X237505Y281950D01*
X236500Y282083D01*
X235495Y281950D01*
X234559Y281563D01*
X233754Y280946D01*
X233137Y280141D01*
X232750Y279205D01*
X232617Y278200D01*
X232750Y277195D01*
X233137Y276259D01*
X233754Y275454D01*
X234559Y274837D01*
X235495Y274449D01*
X236500Y274317D01*
X237505Y274449D01*
X238441Y274837D01*
X239246Y275454D01*
X239285Y275506D01*
X240227Y276279D01*
X241358Y276883D01*
X242586Y277256D01*
X243831Y277379D01*
X245700D01*
X245700Y277378D01*
X246129Y277464D01*
X246493Y277707D01*
X250065Y281278D01*
X266331D01*
X266719Y280636D01*
X266892Y279779D01*
X263807Y276693D01*
X263564Y276329D01*
X263478Y275900D01*
X263478Y275900D01*
Y275378D01*
X263461Y273886D01*
X262347Y272962D01*
X261971D01*
Y268399D01*
X261971Y266899D01*
X261971Y266401D01*
Y261838D01*
X262347D01*
X263461Y260915D01*
X263478Y259422D01*
Y257967D01*
X263365Y257104D01*
X263031Y256299D01*
X263009Y256270D01*
X261838D01*
Y251642D01*
X268356D01*
Y256270D01*
X265722D01*
Y257768D01*
X265748Y257968D01*
X265748D01*
X265722Y259468D01*
X265739Y260915D01*
X266853Y261838D01*
X267229D01*
Y266401D01*
X267229Y267901D01*
X267229Y268399D01*
Y272962D01*
X266853D01*
X265739Y273886D01*
X265722Y275378D01*
Y275435D01*
X268365Y278079D01*
X270633D01*
X271206Y276693D01*
X271007Y276493D01*
X270764Y276129D01*
X270678Y275700D01*
X270678Y275700D01*
Y275278D01*
X270661Y273786D01*
X269547Y272862D01*
X269171D01*
Y268299D01*
X269171Y266799D01*
X269171Y266301D01*
Y261738D01*
X269547D01*
X270661Y260815D01*
X270678Y259322D01*
Y249200D01*
X270678Y249200D01*
X270764Y248771D01*
X271007Y248407D01*
X271807Y247607D01*
X272171Y247364D01*
X272600Y247278D01*
X273168Y247267D01*
X274044Y246130D01*
X280562D01*
Y250142D01*
X280562Y251642D01*
X281179Y252821D01*
X282674Y252834D01*
X283356D01*
X283356Y252834D01*
X283785Y252920D01*
X284149Y253163D01*
X285993Y255007D01*
X285993Y255007D01*
X286236Y255371D01*
X286322Y255800D01*
X286321Y255800D01*
Y263100D01*
X286236Y263529D01*
X285993Y263893D01*
X285993Y263893D01*
X284893Y264993D01*
X284529Y265236D01*
X284100Y265322D01*
X282928Y265340D01*
X281929Y266427D01*
Y267701D01*
X281929Y268199D01*
Y272762D01*
X281929D01*
X281515Y274131D01*
X281532Y274779D01*
X295100D01*
X295100Y274778D01*
X295529Y274864D01*
X295893Y275107D01*
X299078Y278292D01*
X300578Y277671D01*
Y261100D01*
X300578Y261100D01*
X300664Y260671D01*
X300907Y260307D01*
X308007Y253207D01*
X308007Y253207D01*
X312875Y248339D01*
X312875Y248338D01*
X313239Y248095D01*
X313404Y248062D01*
Y247054D01*
X318348D01*
Y250991D01*
Y255147D01*
X313404D01*
Y255147D01*
X311925Y254787D01*
X311875Y254811D01*
X304421Y262265D01*
Y263932D01*
X305807Y264507D01*
X307307Y263007D01*
X307307Y263007D01*
X307671Y262764D01*
X308100Y262679D01*
X308722D01*
X310215Y262661D01*
X311138Y261547D01*
Y261171D01*
X316199D01*
Y265146D01*
X316700Y266478D01*
X317129Y266564D01*
X317129Y266564D01*
X317493Y266807D01*
X317493Y266807D01*
X317493Y266807D01*
X318377Y267661D01*
X318773Y268087D01*
X319447Y268380D01*
X320131Y268649D01*
X320131Y268649D01*
X320240Y268671D01*
X322662D01*
Y273929D01*
X318099D01*
X317601Y273929D01*
Y273929D01*
X316900D01*
X316314Y274557D01*
X316299Y275571D01*
X316299Y275571D01*
X316299Y275571D01*
Y280829D01*
X316299D01*
X316060Y281397D01*
X317017Y282571D01*
X317401D01*
X317899Y282571D01*
X322462D01*
Y286145D01*
X323190Y286872D01*
X329367D01*
Y285187D01*
X333129D01*
Y290778D01*
X333129Y290800D01*
X333181Y292279D01*
X338018D01*
X339105Y291281D01*
X339280Y291134D01*
X339636Y290382D01*
X339916Y289598D01*
X339916Y289598D01*
X339938Y289490D01*
Y286871D01*
X344501D01*
X344999Y286871D01*
X346264D01*
X346365Y286759D01*
X346611Y286138D01*
X346101Y284729D01*
X346101D01*
Y279471D01*
X346324D01*
X346869Y278938D01*
X347344Y278360D01*
X347362Y277882D01*
X347362D01*
Y271561D01*
X351518D01*
Y277882D01*
X351518D01*
X351453Y278114D01*
X351162Y279471D01*
X351162Y279471D01*
X351162Y279471D01*
Y284729D01*
X351023D01*
X350641Y285430D01*
X351062Y286871D01*
X351062D01*
Y292129D01*
X346499D01*
X344999Y292129D01*
X344501Y292129D01*
X343959D01*
X342468Y292151D01*
X341141Y292567D01*
X340776Y292811D01*
X339393Y294193D01*
X339029Y294436D01*
X338600Y294522D01*
X338600Y294521D01*
X329700D01*
X329700Y294522D01*
X329271Y294436D01*
X328907Y294193D01*
X328907Y294193D01*
X327235Y292522D01*
X309565D01*
X308522Y293565D01*
Y313400D01*
X308522Y313400D01*
X308436Y313829D01*
X308193Y314193D01*
X308193Y314193D01*
X304255Y318132D01*
X304514Y319167D01*
X304831Y319632D01*
X306738D01*
Y319071D01*
X311799D01*
Y324329D01*
X309079D01*
X308277Y325829D01*
X308377Y325978D01*
X314691D01*
X314691Y325978D01*
X315120Y326064D01*
X315484Y326307D01*
X321156Y331979D01*
X328500D01*
X328500Y331978D01*
X328929Y332064D01*
X330228Y331782D01*
X330652Y331545D01*
X330910Y331075D01*
X330796Y330502D01*
X330338Y329904D01*
X330029Y329158D01*
X329924Y328358D01*
X329922D01*
X329912Y327595D01*
X329922D01*
X329922Y326857D01*
Y324078D01*
X329911Y323973D01*
X329922D01*
Y317600D01*
X330034Y317034D01*
X330355Y316555D01*
X332555Y314355D01*
X332631Y314303D01*
X332833Y313894D01*
X332955Y312878D01*
X332934Y312581D01*
X331507Y311154D01*
X328655D01*
Y307392D01*
X334779D01*
Y309151D01*
X334807Y309292D01*
X335330Y309919D01*
X335799Y310422D01*
X342220D01*
X343571Y310062D01*
Y305001D01*
X342819Y303812D01*
X341329D01*
Y303899D01*
X336071D01*
Y303812D01*
X331717D01*
X331022Y303674D01*
X328655D01*
Y299912D01*
X330038D01*
X330077Y299853D01*
X330830Y299350D01*
X331717Y299174D01*
X336071D01*
Y298838D01*
X341329D01*
Y299174D01*
X343571D01*
Y298938D01*
X345337D01*
X345503Y298869D01*
X346200Y298777D01*
X351400D01*
X352097Y298869D01*
X352746Y299138D01*
X352797Y299177D01*
X355369D01*
X356065Y299269D01*
X356714Y299538D01*
X357272Y299965D01*
X357699Y300523D01*
X357968Y301172D01*
X358060Y301869D01*
X358054Y301915D01*
X358091Y302200D01*
X358000Y302897D01*
X357731Y303546D01*
X357303Y304103D01*
X356746Y304531D01*
X356097Y304800D01*
X355400Y304891D01*
X354703Y304800D01*
X354125Y304560D01*
X352628D01*
Y312250D01*
X352516Y312816D01*
X352195Y313295D01*
X350399Y315091D01*
X350439Y316591D01*
X350439Y316987D01*
Y322716D01*
X343527D01*
Y321740D01*
X338633D01*
Y322913D01*
X334871D01*
Y319580D01*
X333371Y318797D01*
X332878Y319140D01*
Y324140D01*
X333030Y325290D01*
X333455Y326316D01*
X333737Y326505D01*
X334084Y327024D01*
X334893D01*
Y329241D01*
X334990Y329731D01*
X334893Y330220D01*
Y330342D01*
X337111Y332560D01*
X338611Y331939D01*
Y327024D01*
X342373D01*
Y328408D01*
X342658Y328465D01*
X342944Y328656D01*
X343138Y328785D01*
X344034Y329661D01*
X344024Y329671D01*
X345524Y331171D01*
X346490Y332138D01*
X346594Y332223D01*
X346584Y332232D01*
X346945Y332593D01*
X347266Y333073D01*
X347378Y333639D01*
Y335562D01*
X347385Y337059D01*
X348529Y337138D01*
X348529Y337919D01*
Y341701D01*
X348529Y342199D01*
X348529D01*
Y343201D01*
X348529D01*
Y348262D01*
X347059D01*
X346736Y349043D01*
X346621Y349911D01*
Y351300D01*
X346536Y351729D01*
X346293Y352093D01*
X346293Y352093D01*
X345093Y353293D01*
X344729Y353536D01*
X344300Y353622D01*
X343778Y354940D01*
Y355839D01*
X339622D01*
Y349518D01*
X339033Y348262D01*
X335771D01*
Y343699D01*
X335771Y342199D01*
X335771Y341701D01*
Y337138D01*
X335771Y337138D01*
X335435Y335805D01*
X335026Y335378D01*
X333049Y333400D01*
X332724Y333463D01*
X332401Y333723D01*
X331711Y335079D01*
X331714Y335098D01*
X332052Y336458D01*
X332125Y336636D01*
X332511Y337138D01*
X334229D01*
Y341701D01*
X334229Y343201D01*
X334229Y343699D01*
Y348262D01*
X332396D01*
X331128Y348822D01*
X330058Y349872D01*
X329477Y350453D01*
X329418Y350525D01*
X329411Y350519D01*
X327682Y352248D01*
X327618Y352322D01*
X326782Y353503D01*
X327180Y354099D01*
X327320Y354802D01*
Y359901D01*
X327180Y360604D01*
X326782Y361200D01*
X326186Y361598D01*
X325483Y361738D01*
X324779Y361598D01*
X324496Y361409D01*
X324171Y361200D01*
X322857D01*
X322532Y361409D01*
X322249Y361598D01*
X321546Y361738D01*
X320842Y361598D01*
X320559Y361409D01*
X320234Y361200D01*
X318920D01*
X318595Y361409D01*
X318312Y361598D01*
X317609Y361738D01*
X316905Y361598D01*
X316622Y361409D01*
X316297Y361200D01*
X314983D01*
X314658Y361409D01*
X314375Y361598D01*
X313672Y361738D01*
X312968Y361598D01*
X312372Y361200D01*
X311974Y360604D01*
X311834Y359901D01*
Y354802D01*
X311974Y354099D01*
X312372Y353503D01*
X312386Y353494D01*
X312475Y353280D01*
X312476D01*
Y351407D01*
X311435Y350365D01*
X311291Y350149D01*
X311170Y349968D01*
X311170Y349968D01*
X311076Y349500D01*
X311062Y348744D01*
X309820Y348062D01*
X309671D01*
Y343499D01*
X309671Y341999D01*
X309671Y341501D01*
Y336938D01*
X309659Y336914D01*
X309329Y336883D01*
X307829Y338252D01*
Y341899D01*
X302571D01*
Y341899D01*
X301484Y341344D01*
X300929Y341799D01*
Y341799D01*
X295671D01*
X294578Y342783D01*
Y350224D01*
X294466Y350789D01*
X294145Y351269D01*
X289969Y355445D01*
X289489Y355766D01*
X288924Y355878D01*
X265950D01*
X265520Y356956D01*
X265433Y357378D01*
X265780Y357899D01*
X265920Y358602D01*
Y363701D01*
X265780Y364404D01*
X265382Y365000D01*
X265340Y365028D01*
X265204Y365356D01*
Y365377D01*
X265207Y365396D01*
X265204D01*
Y370215D01*
X266129Y371332D01*
X266136Y371340D01*
X266528Y371602D01*
X266964Y371689D01*
X267000Y371681D01*
X267811Y371843D01*
X268498Y372302D01*
X268957Y372989D01*
X269119Y373800D01*
X268957Y374611D01*
X268498Y375298D01*
X268084Y375575D01*
X268338Y377044D01*
X268347Y377066D01*
X268723Y377141D01*
X268791Y377186D01*
X273109D01*
Y374831D01*
X273171Y374357D01*
Y372301D01*
X274937D01*
X275103Y372232D01*
X275800Y372140D01*
X276497Y372232D01*
X276663Y372301D01*
X278429D01*
Y374357D01*
X278491Y374831D01*
Y377186D01*
X289686D01*
Y373900D01*
X289741Y373627D01*
X289895Y373395D01*
X290127Y373241D01*
X290400Y373186D01*
X293828D01*
Y373021D01*
X299952D01*
Y387095D01*
X301452Y387716D01*
X307673Y381495D01*
X307664Y381487D01*
X307763Y381406D01*
X310234Y378935D01*
X310224Y378925D01*
X310305Y378863D01*
X311834Y377334D01*
Y375038D01*
X311974Y374335D01*
X312372Y373739D01*
X312968Y373341D01*
X313672Y373201D01*
X314375Y373341D01*
X314744Y373587D01*
X314981Y373739D01*
X316300D01*
X316536Y373587D01*
X316905Y373341D01*
X317609Y373201D01*
X318312Y373341D01*
X318681Y373587D01*
X318918Y373739D01*
X320236D01*
X320473Y373587D01*
X320842Y373341D01*
X321546Y373201D01*
X322249Y373341D01*
X322618Y373587D01*
X322855Y373739D01*
X324173D01*
X324410Y373587D01*
X324779Y373341D01*
X325483Y373201D01*
X326186Y373341D01*
X327295Y373495D01*
X327527Y373341D01*
X327800Y373286D01*
X328989D01*
X329420Y373201D01*
X329850Y373286D01*
X331200D01*
X331473Y373341D01*
X331705Y373495D01*
X331859Y373727D01*
X331914Y374000D01*
Y392200D01*
X342935D01*
Y389287D01*
X341855Y388261D01*
X341816Y388229D01*
X341656Y388261D01*
X341511Y388357D01*
X340700Y388519D01*
X339889Y388357D01*
X339202Y387898D01*
X338743Y387211D01*
X338581Y386400D01*
X338743Y385589D01*
X339202Y384902D01*
X339889Y384443D01*
X339895Y384441D01*
X340783Y383850D01*
X340984Y382812D01*
X340981Y382800D01*
X341143Y381989D01*
X341602Y381302D01*
X342010Y381029D01*
X341806Y379641D01*
X341761Y379529D01*
X340699D01*
X340201Y379529D01*
X335638D01*
Y374271D01*
X335688D01*
X336930Y373589D01*
X336945Y373231D01*
X337038Y372763D01*
X337038Y372763D01*
X337303Y372366D01*
X337303Y372366D01*
X337390Y372279D01*
X338035Y371635D01*
X338432Y371370D01*
X338900Y371276D01*
X341145D01*
X342501Y370929D01*
Y365671D01*
X342501D01*
X343210Y364830D01*
X343295Y364401D01*
X343362Y364301D01*
Y359361D01*
X347518D01*
Y365671D01*
X347562D01*
Y370929D01*
X346310D01*
X346263Y371168D01*
X346255D01*
Y371168D01*
X346162Y371637D01*
X345897Y372034D01*
X345159Y372771D01*
X345781Y374271D01*
X346762D01*
Y374858D01*
X347264Y375261D01*
X348262Y375788D01*
X348800Y375681D01*
X349611Y375843D01*
X350298Y376302D01*
X350757Y376989D01*
X350919Y377800D01*
X350757Y378611D01*
X350298Y379298D01*
X349611Y379757D01*
X348800Y379919D01*
X348154Y379790D01*
X346762Y379529D01*
X346762Y379529D01*
X346762Y379529D01*
X345694D01*
X344586Y381029D01*
X344673Y381380D01*
X345300Y381666D01*
Y381667D01*
X345300Y381678D01*
X345729Y381764D01*
X346093Y382007D01*
X350532Y386445D01*
X350532Y386445D01*
X350775Y386809D01*
X350860Y387239D01*
X350860Y387239D01*
Y389144D01*
X350874D01*
X350875Y389148D01*
X351620D01*
Y392200D01*
X357701D01*
Y389148D01*
X357849D01*
Y387418D01*
X357981Y386754D01*
X358357Y386192D01*
X359498Y385051D01*
Y382229D01*
X358701D01*
Y376971D01*
X358871D01*
Y373200D01*
X359003Y372537D01*
X359020Y372510D01*
Y372396D01*
X358999Y372363D01*
X358867Y371700D01*
Y365035D01*
X358854Y364902D01*
X358867D01*
Y362703D01*
X358862D01*
X358867Y361542D01*
X358999Y360878D01*
X359374Y360316D01*
X359387Y360307D01*
Y358771D01*
X365000D01*
Y362533D01*
X362365D01*
X362333Y362692D01*
Y365034D01*
X362439Y366106D01*
X362790Y367264D01*
X363360Y368331D01*
X363423Y368406D01*
X364987D01*
Y375594D01*
X364059D01*
X363762Y376971D01*
X363762D01*
Y382229D01*
X362965D01*
Y385769D01*
X362833Y386432D01*
X362457Y386994D01*
X361703Y387748D01*
X361464Y389148D01*
X361464D01*
Y392200D01*
X369500D01*
Y398597D01*
X374553D01*
Y411518D01*
X409493D01*
Y323035D01*
D02*
G37*
G36*
X293380Y324384D02*
Y319659D01*
X293380D01*
Y318698D01*
X293380D01*
Y314935D01*
Y310826D01*
X278879D01*
X278250Y310826D01*
X278250Y311455D01*
Y316511D01*
Y321234D01*
Y325956D01*
X293380D01*
Y324384D01*
D02*
G37*
%LPC*%
G36*
X394491Y402629D02*
X393302Y402512D01*
X392159Y402165D01*
X391105Y401602D01*
X390182Y400844D01*
X389424Y399920D01*
X388861Y398867D01*
X388514Y397723D01*
X388397Y396534D01*
X388514Y395345D01*
X388861Y394202D01*
X389424Y393148D01*
X390182Y392225D01*
X391105Y391467D01*
X392159Y390904D01*
X393302Y390557D01*
X394491Y390440D01*
X395680Y390557D01*
X396823Y390904D01*
X397877Y391467D01*
X398800Y392225D01*
X399558Y393148D01*
X400121Y394202D01*
X400468Y395345D01*
X400585Y396534D01*
X400468Y397723D01*
X400121Y398867D01*
X399558Y399920D01*
X398800Y400844D01*
X397877Y401602D01*
X396823Y402165D01*
X395680Y402512D01*
X394491Y402629D01*
D02*
G37*
G36*
X394700Y378414D02*
X388300D01*
X388027Y378359D01*
X387795Y378205D01*
X387641Y377973D01*
X387586Y377700D01*
Y372429D01*
X386086Y371809D01*
X385714Y372182D01*
Y377700D01*
X385659Y377973D01*
X385505Y378205D01*
X385273Y378359D01*
X385000Y378414D01*
X378400D01*
X378127Y378359D01*
X377895Y378205D01*
X377741Y377973D01*
X377686Y377700D01*
Y369500D01*
X377741Y369227D01*
X377895Y368995D01*
X378127Y368841D01*
X378400Y368786D01*
X380118D01*
X380169Y368662D01*
X380597Y368105D01*
X380949Y367835D01*
X381741Y366925D01*
X381011Y365657D01*
X380200Y365819D01*
X379389Y365657D01*
X378702Y365198D01*
X378649Y365119D01*
X376951D01*
X376898Y365198D01*
X376211Y365657D01*
X375400Y365819D01*
X374589Y365657D01*
X373902Y365198D01*
X373520Y364627D01*
X373446Y364515D01*
X373424Y364511D01*
X371915Y364520D01*
X371895Y364624D01*
X371857Y364811D01*
X371398Y365498D01*
X370711Y365957D01*
X369900Y366119D01*
X369089Y365957D01*
X368402Y365498D01*
X367943Y364811D01*
X367781Y364000D01*
X367943Y363189D01*
X368105Y362947D01*
X368568Y361639D01*
X368400Y360377D01*
X368493Y359909D01*
X368577Y359783D01*
Y357900D01*
X368663Y357466D01*
Y354753D01*
X368810Y354012D01*
X369230Y353384D01*
X369859Y352964D01*
X370600Y352816D01*
X371341Y352964D01*
X371970Y353384D01*
X372306Y353887D01*
X373100Y353963D01*
X373894Y353887D01*
X374230Y353384D01*
X374859Y352964D01*
X375600Y352816D01*
X376341Y352964D01*
X376970Y353384D01*
X377306Y353887D01*
X378100Y353963D01*
X378894Y353887D01*
X379230Y353384D01*
X379859Y352964D01*
X380600Y352816D01*
X381341Y352964D01*
X381970Y353384D01*
X382306Y353887D01*
X383100Y353963D01*
X383894Y353887D01*
X384230Y353384D01*
X384859Y352964D01*
X385600Y352816D01*
X386341Y352964D01*
X386970Y353384D01*
X387390Y354012D01*
X387537Y354753D01*
Y355031D01*
X387647Y355140D01*
X392800D01*
X392820Y355143D01*
X392839Y355140D01*
X393536Y355232D01*
X393703Y355301D01*
X395429D01*
Y356434D01*
X395699Y356786D01*
X395968Y357435D01*
X396060Y358132D01*
X395968Y358828D01*
X395699Y359477D01*
X395492Y359748D01*
Y359800D01*
X395429Y360274D01*
Y360362D01*
X395417D01*
X395400Y360497D01*
X395288Y360766D01*
X395131Y361146D01*
X394703Y361703D01*
X393468Y362939D01*
X393387Y363037D01*
X393378Y363028D01*
X389120Y367286D01*
X389741Y368786D01*
X394700D01*
X394973Y368841D01*
X395205Y368995D01*
X395359Y369227D01*
X395414Y369500D01*
Y377700D01*
X395359Y377973D01*
X395205Y378205D01*
X394973Y378359D01*
X394700Y378414D01*
D02*
G37*
G36*
X355276Y358793D02*
X349663D01*
Y355031D01*
X353227D01*
X353395Y354997D01*
Y354997D01*
X353594Y354951D01*
X354025Y354058D01*
X353403Y352973D01*
X350558D01*
Y344486D01*
X364242D01*
Y352973D01*
X359559D01*
X359259Y353697D01*
X359133Y354650D01*
Y354761D01*
X359137Y354800D01*
X359133D01*
Y354800D01*
X359001Y355463D01*
X358626Y356026D01*
X357472Y357179D01*
X357477Y357184D01*
X356526Y358126D01*
X356399Y358210D01*
X355963Y358501D01*
X355300Y358633D01*
X355276D01*
Y358793D01*
D02*
G37*
G36*
X364242Y342714D02*
X350558D01*
Y334227D01*
X354099D01*
X355110Y332749D01*
X354921Y332294D01*
X354921D01*
X354921Y332294D01*
Y325106D01*
X356507D01*
X357002Y324504D01*
X357162Y324205D01*
X357188Y322716D01*
X357188D01*
Y316591D01*
X359323D01*
X359681Y316352D01*
X360344Y316220D01*
X361007Y316352D01*
X361365Y316591D01*
X364100D01*
Y322716D01*
X363471D01*
X362617Y322995D01*
X362084Y323929D01*
X362077Y325426D01*
Y325560D01*
X361946Y326223D01*
X361570Y326785D01*
X361543Y326812D01*
X361449Y327121D01*
X360914Y328121D01*
X360888Y328257D01*
Y332294D01*
X360888D01*
X360786Y333809D01*
X361090Y334227D01*
X364242D01*
Y342714D01*
D02*
G37*
G36*
X375600Y338984D02*
X374859Y338836D01*
X374230Y338416D01*
X373810Y337788D01*
X373663Y337047D01*
Y332753D01*
X373810Y332012D01*
X374230Y331384D01*
X374263Y331362D01*
X374377Y331087D01*
Y331075D01*
X374375Y331064D01*
X374377D01*
Y329289D01*
X374366Y329272D01*
X374272Y328804D01*
X374129Y328629D01*
X373601D01*
Y323371D01*
X378662D01*
Y328629D01*
X377238D01*
X377231Y328668D01*
X376965Y329065D01*
X376823Y329207D01*
Y331064D01*
X376825D01*
X376823Y331075D01*
Y331087D01*
X376937Y331362D01*
X376970Y331384D01*
X377390Y332012D01*
X377537Y332753D01*
Y337047D01*
X377390Y337788D01*
X376970Y338416D01*
X376341Y338836D01*
X375600Y338984D01*
D02*
G37*
G36*
X385600Y339892D02*
X384903Y339800D01*
X384254Y339531D01*
X383697Y339103D01*
X383269Y338546D01*
X383000Y337897D01*
X382909Y337200D01*
Y334900D01*
Y331942D01*
X382438Y331747D01*
X381880Y331320D01*
X381453Y330762D01*
X381184Y330113D01*
X381092Y329416D01*
X381184Y328720D01*
X381453Y328071D01*
X381880Y327513D01*
X382050Y326084D01*
X382080Y325788D01*
X382104Y325707D01*
X382177Y324285D01*
Y322630D01*
X382177Y321906D01*
X382050Y321794D01*
X382177Y321906D01*
X382177Y322483D01*
X382034Y321779D01*
X381998Y321748D01*
X381993Y321744D01*
X380731Y321400D01*
X379570Y321400D01*
X374702D01*
Y313303D01*
X375088D01*
Y311306D01*
X375179Y310609D01*
X375291Y310340D01*
X375448Y309960D01*
X375876Y309403D01*
X377786Y307493D01*
Y304781D01*
X383671D01*
X385094Y304016D01*
X384977Y302985D01*
X384989Y302282D01*
X385183Y301607D01*
X385545Y301005D01*
X385545Y301005D01*
X390971Y294190D01*
X391476Y293702D01*
X391997Y293414D01*
X396625Y287600D01*
X396763Y287484D01*
X398229Y285538D01*
X401561Y288050D01*
X402915Y287263D01*
X403520Y286207D01*
X403643Y285589D01*
X404102Y284902D01*
X404789Y284443D01*
X405600Y284281D01*
X406411Y284443D01*
X407098Y284902D01*
X407557Y285589D01*
X407719Y286400D01*
X407659Y286700D01*
X407594Y287261D01*
X408311Y288243D01*
X408998Y288702D01*
X409457Y289389D01*
X409619Y290200D01*
X409457Y291011D01*
X408998Y291698D01*
X408944Y291734D01*
X408772Y293436D01*
X408795Y293500D01*
X410980Y295147D01*
X409480Y297137D01*
X409372Y297347D01*
X408436Y298523D01*
X407768Y299409D01*
X407744Y299391D01*
X404062Y304017D01*
X403788Y304249D01*
X403527Y304494D01*
X403474Y304514D01*
X403430Y304551D01*
X403089Y304660D01*
X402754Y304787D01*
X402697Y304786D01*
X402643Y304803D01*
X402286Y304773D01*
X401928Y304762D01*
X401876Y304739D01*
X401819Y304734D01*
X401501Y304570D01*
X401174Y304423D01*
X393857Y299207D01*
X390451Y303485D01*
X390710Y305771D01*
X391699D01*
Y307537D01*
X391768Y307703D01*
X391860Y308400D01*
X391768Y309097D01*
X391699Y309263D01*
Y311029D01*
X389643D01*
X389169Y311091D01*
X389154D01*
X389083Y311101D01*
X389012Y311091D01*
X383910D01*
Y311693D01*
X382288D01*
X381931Y312128D01*
X381122Y313641D01*
X380856Y314517D01*
Y319952D01*
X380856Y319987D01*
X380856Y319987D01*
X380856Y320205D01*
X381222Y320460D01*
X382356Y320756D01*
X382538Y320560D01*
X382609Y320468D01*
X382965Y320003D01*
X385164Y317804D01*
X385160Y317800D01*
X385207Y317761D01*
X386346Y316622D01*
Y313303D01*
X392500D01*
Y321400D01*
X390914D01*
X389423Y321438D01*
X388981Y321621D01*
X387914Y322667D01*
X387560Y323021D01*
Y324717D01*
X387685Y326188D01*
X387711Y326457D01*
X387614Y327441D01*
X387931Y327854D01*
X388200Y328503D01*
X388292Y329200D01*
Y334900D01*
Y337200D01*
X388200Y337897D01*
X387931Y338546D01*
X387503Y339103D01*
X386946Y339531D01*
X386297Y339800D01*
X385600Y339892D01*
D02*
G37*
G36*
X398428Y325664D02*
X397410Y325530D01*
X396461Y325137D01*
X395647Y324512D01*
X395022Y323698D01*
X394629Y322749D01*
X394495Y321731D01*
X394629Y320713D01*
X395022Y319764D01*
X395647Y318950D01*
X396461Y318325D01*
X397410Y317932D01*
X398428Y317798D01*
X399446Y317932D01*
X400395Y318325D01*
X401209Y318950D01*
X401834Y319764D01*
X402227Y320713D01*
X402361Y321731D01*
X402227Y322749D01*
X401834Y323698D01*
X401209Y324512D01*
X400395Y325137D01*
X399446Y325530D01*
X398428Y325664D01*
D02*
G37*
G36*
X325724Y311154D02*
X319600D01*
Y307392D01*
X325724D01*
Y311154D01*
D02*
G37*
G36*
X322400Y328519D02*
X321589Y328357D01*
X320902Y327898D01*
X320851Y327822D01*
X320729Y327740D01*
X320226Y326988D01*
X320049Y326100D01*
Y321129D01*
X313860Y314940D01*
X313357Y314188D01*
X313181Y313300D01*
Y307000D01*
Y304762D01*
X313071D01*
Y299701D01*
X314876D01*
X315500Y299577D01*
X322144D01*
X322662Y299474D01*
X323550Y299650D01*
X323941Y299912D01*
X325724D01*
Y303674D01*
X323993D01*
X323447Y304039D01*
X322559Y304215D01*
X319998D01*
X318551Y304345D01*
X318329Y304762D01*
X317819Y306217D01*
Y312339D01*
X324009Y318529D01*
X324511Y319281D01*
X324688Y320169D01*
Y326100D01*
X324511Y326988D01*
X324009Y327740D01*
X324000Y327746D01*
X323898Y327898D01*
X323211Y328357D01*
X322400Y328519D01*
D02*
G37*
G36*
X239268Y307050D02*
X233931D01*
Y299350D01*
X234217D01*
X235359Y298474D01*
X235377Y296981D01*
Y294680D01*
X235209Y293405D01*
X234656Y292070D01*
X234640Y292050D01*
X232650D01*
Y284350D01*
X240350D01*
Y292050D01*
X238409D01*
X237974Y293101D01*
X237824Y294242D01*
Y294687D01*
X237838Y294838D01*
X237824D01*
Y296981D01*
X237841Y298474D01*
X238983Y299350D01*
X239268D01*
Y307050D01*
D02*
G37*
G36*
X366932Y296329D02*
X365743Y296212D01*
X364600Y295866D01*
X363546Y295302D01*
X362622Y294544D01*
X361865Y293621D01*
X361301Y292567D01*
X360955Y291424D01*
X360838Y290235D01*
X360955Y289046D01*
X361301Y287903D01*
X361865Y286849D01*
X362622Y285926D01*
X363546Y285168D01*
X364600Y284605D01*
X365743Y284258D01*
X366932Y284141D01*
X368121Y284258D01*
X369264Y284605D01*
X370318Y285168D01*
X371241Y285926D01*
X371999Y286849D01*
X372562Y287903D01*
X372909Y289046D01*
X373026Y290235D01*
X372909Y291424D01*
X372562Y292567D01*
X371999Y293621D01*
X371241Y294544D01*
X370318Y295302D01*
X369264Y295866D01*
X368121Y296212D01*
X366932Y296329D01*
D02*
G37*
G36*
X336869Y281076D02*
X333107D01*
Y281072D01*
X332583Y279960D01*
X332060Y279223D01*
X331760Y278831D01*
X331659Y278664D01*
X331501Y278458D01*
X331403Y278224D01*
X331161Y277805D01*
X330864Y277788D01*
X329389Y279082D01*
Y281076D01*
X325627D01*
Y275463D01*
X325627Y275463D01*
X325238Y274429D01*
X325238D01*
X325238Y274124D01*
Y269171D01*
X325669D01*
X326378Y267951D01*
X326407Y267833D01*
X325805Y267317D01*
X325270Y266929D01*
X325038D01*
Y261671D01*
X329601D01*
X331101Y261671D01*
X331599Y261671D01*
X336162D01*
Y263158D01*
X336256Y263230D01*
X337216Y263627D01*
X338203Y263757D01*
X343331D01*
X343339Y263749D01*
X343622Y262307D01*
Y261718D01*
X347778D01*
Y268039D01*
X343622D01*
Y267450D01*
X343339Y266009D01*
X343331Y266000D01*
X338245D01*
Y266009D01*
X338160Y266000D01*
X337808D01*
X336314Y266016D01*
X336162Y266929D01*
X335192Y266929D01*
X331599D01*
X330527Y266929D01*
X329601Y268338D01*
X329959Y269050D01*
X330299Y269171D01*
X331301D01*
Y269171D01*
X331799Y269171D01*
X333357D01*
X333831Y269109D01*
X334305Y269171D01*
X336362D01*
Y270936D01*
X336431Y271103D01*
X336523Y271800D01*
Y273411D01*
X336550D01*
X336523Y273616D01*
Y275463D01*
X336869D01*
Y276344D01*
X336891Y276366D01*
X337319Y276923D01*
X337588Y277573D01*
X337680Y278269D01*
X337588Y278966D01*
X337319Y279615D01*
X336891Y280172D01*
X336869Y280189D01*
Y281076D01*
D02*
G37*
G36*
X367800Y276819D02*
X367184Y276696D01*
X366989Y276657D01*
X366989Y276657D01*
X366302Y276198D01*
X366029Y275862D01*
X360771D01*
Y270801D01*
X366029D01*
X366431Y272099D01*
X366480Y272118D01*
X366900Y272201D01*
X367169Y272381D01*
X367729Y272595D01*
X367800Y272581D01*
X368611Y272743D01*
X369298Y273202D01*
X369757Y273889D01*
X369919Y274700D01*
X369757Y275511D01*
X369298Y276198D01*
X368611Y276657D01*
X367800Y276819D01*
D02*
G37*
G36*
X355300Y280119D02*
X354489Y279957D01*
X353802Y279498D01*
X353343Y278811D01*
X353181Y278000D01*
X353343Y277189D01*
X353571Y276062D01*
X353571Y276062D01*
X353571Y276062D01*
Y271001D01*
X358829D01*
Y276062D01*
X358680D01*
X357438Y276744D01*
X357419Y278000D01*
X357257Y278811D01*
X356798Y279498D01*
X356111Y279957D01*
X355300Y280119D01*
D02*
G37*
G36*
X380648Y270546D02*
X379630Y270412D01*
X378681Y270019D01*
X377867Y269394D01*
X377242Y268580D01*
X376849Y267631D01*
X376715Y266613D01*
X376849Y265595D01*
X377242Y264646D01*
X377867Y263832D01*
X378681Y263207D01*
X379630Y262814D01*
X380648Y262680D01*
X381666Y262814D01*
X382614Y263207D01*
X383429Y263832D01*
X384054Y264646D01*
X384447Y265595D01*
X384581Y266613D01*
X384447Y267631D01*
X384054Y268580D01*
X383429Y269394D01*
X382614Y270019D01*
X381666Y270412D01*
X380648Y270546D01*
D02*
G37*
G36*
X337699Y259229D02*
X332638D01*
Y258853D01*
X331714Y257739D01*
X330222Y257721D01*
X327400D01*
X327400Y257722D01*
X326971Y257636D01*
X326607Y257393D01*
X326597Y257403D01*
Y257403D01*
X326596Y257404D01*
X325688Y256487D01*
X325542Y256340D01*
X325542Y256340D01*
X324779Y255571D01*
X324531Y255317D01*
X324417Y255147D01*
X322852D01*
Y250991D01*
Y247054D01*
X327796D01*
Y250991D01*
Y255146D01*
X329158Y255479D01*
X330222D01*
X331714Y255461D01*
X332638Y254347D01*
Y253971D01*
X337699D01*
Y259229D01*
D02*
G37*
%LPD*%
D13*
X333260Y369555D02*
G03*
X334668Y368900I1408J1187D01*
G01*
X334789Y370844D02*
G03*
X338968Y368900I4179J3522D01*
G01*
X332723Y367223D02*
G03*
X334122Y370600I-3377J3377D01*
G01*
X317318Y296104D02*
G03*
X319509Y295196I2191J2191D01*
G01*
D02*
G03*
X317318Y294288I0J-3098D01*
G01*
X314985Y323785D02*
G03*
X314162Y321798I1987J-1987D01*
G01*
X318400Y327200D02*
G03*
X316162Y321798I5401J-5401D01*
G01*
X338889Y339081D02*
G03*
X337800Y336452I2629J-2629D01*
G01*
X359287Y320617D02*
G03*
X360344Y323168I-2552J2552D01*
G01*
Y322716D02*
G03*
X361214Y320617I2969J0D01*
G01*
X345626Y318690D02*
G03*
X342449Y320006I-3177J-3177D01*
G01*
X344152D02*
G03*
X345626Y320617I0J2084D01*
G01*
X360344Y323929D02*
G03*
X358411Y328596I-6601J0D01*
G01*
X360344Y319100D02*
G03*
X356996Y327182I-11430J0D01*
G01*
X359188Y328090D02*
G03*
X360158Y325746I3315J0D01*
G01*
X359942Y325962D02*
G03*
X357904Y326806I-2038J-2038D01*
G01*
X356996Y330218D02*
G03*
X357904Y332409I-2191J2191D01*
G01*
D02*
G03*
X358811Y330218I3098J0D01*
G01*
X351639Y327043D02*
G03*
X350896Y325604I1022J-1439D01*
G01*
D02*
G03*
X350153Y327043I-1765J0D01*
G01*
X352048Y327523D02*
G03*
X352657Y323843I2875J-1414D01*
G01*
X351639Y327043D02*
G03*
X350896Y325604I1022J-1439D01*
G01*
D02*
G03*
X350153Y327043I-1765J0D01*
G01*
X380600Y342106D02*
G03*
X378363Y346293I-5037J0D01*
G01*
X380600Y338363D02*
G03*
X377251Y344630I-7539J0D01*
G01*
X380600Y334620D02*
G03*
X376139Y342967I-10041J0D01*
G01*
X338381Y367811D02*
G03*
X335752Y368900I-2629J-2629D01*
G01*
X339556Y367614D02*
G03*
X338969Y366196I1418J-1418D01*
G01*
D02*
G03*
X338381Y367614I-2005J0D01*
G01*
X337924Y363980D02*
G03*
X338969Y365130I-110J1150D01*
G01*
X337693Y363871D02*
G03*
X338969Y366952I-3081J3081D01*
G01*
X338968Y365130D02*
G03*
X338338Y363604I1523J-1523D01*
G01*
X361819Y378914D02*
G03*
X360604Y375981I2933J-2933D01*
G01*
X360644Y380286D02*
G03*
X361231Y381704I-1418J1418D01*
G01*
D02*
G03*
X361819Y380286I2005J0D01*
G01*
X354661Y382930D02*
G03*
X355756Y380286I3740J0D01*
G01*
X360604Y379089D02*
G03*
X362912Y373518I7878J0D01*
G01*
Y370482D02*
G03*
X360600Y364902I5581J-5581D01*
G01*
Y362703D02*
G03*
X361397Y360780I2720J0D01*
G01*
X356247Y355953D02*
G03*
X353438Y356736I-2098J-2098D01*
G01*
X356936Y355264D02*
G03*
X353395Y356731I-3542J-3542D01*
G01*
X355616Y350542D02*
G03*
X357400Y354800I-4188J4257D01*
G01*
D02*
G03*
X359184Y350542I5972J0D01*
G01*
X359198Y336672D02*
G03*
X357904Y333547I3125J-3125D01*
G01*
Y331114D02*
G03*
X355602Y336672I-7861J0D01*
G01*
X369582Y326772D02*
G03*
X370600Y328763I-1438J1991D01*
G01*
X369481Y326686D02*
G03*
X370600Y329387I-2701J2701D01*
G01*
X390344Y326886D02*
G03*
X390932Y328304I-1418J1418D01*
G01*
D02*
G03*
X391519Y326886I2005J0D01*
G01*
X395819Y308987D02*
G03*
X397237Y308400I1418J1418D01*
G01*
D02*
G03*
X395819Y307813I0J-2005D01*
G01*
X366499Y307274D02*
G03*
X364174Y308237I-2325J-2325D01*
G01*
D02*
G03*
X366499Y309200I0J3289D01*
G01*
X324436Y282020D02*
X325516Y283100D01*
X332300D01*
X334400Y368900D02*
X338969D01*
X331114Y365614D02*
X334400Y368900D01*
X329420Y363920D02*
X330200Y364700D01*
X321800Y330600D02*
X326100D01*
X315532Y324332D02*
X321800Y330600D01*
X315332Y324332D02*
X315532D01*
X326100Y330600D02*
X327300Y329400D01*
Y296100D02*
Y329400D01*
X353900Y312300D02*
Y322600D01*
X358237Y308237D02*
X367462D01*
X358100Y308100D02*
X358237Y308237D01*
X353900Y312300D02*
X358100Y308100D01*
X350896Y325604D02*
X353900Y322600D01*
X350896Y325604D02*
Y328700D01*
X355300Y356900D02*
X357400Y354800D01*
Y349329D02*
Y354800D01*
Y348729D02*
Y349329D01*
X358000Y348729D01*
X352469Y356912D02*
X352481Y356900D01*
X355300D01*
X370600Y334900D02*
Y337200D01*
Y328763D02*
Y334900D01*
Y341900D01*
X378100Y345900D02*
X380600Y343400D01*
Y334900D02*
Y343400D01*
X390932Y326200D02*
Y341632D01*
X405978Y308400D02*
X406178Y308200D01*
X395232Y308400D02*
X405978D01*
X370037Y328200D02*
X370600Y328763D01*
X361231Y379600D02*
Y385769D01*
X360604Y373200D02*
Y379600D01*
X359582Y387418D02*
X361231Y385769D01*
X359582Y387418D02*
Y392998D01*
X361231Y379600D02*
X361800D01*
X360604D02*
X361231D01*
X354661Y380108D02*
X355168Y379600D01*
X354661Y380108D02*
Y392998D01*
X337960Y362921D02*
Y364121D01*
X338969Y365130D01*
Y368900D01*
X329420Y357351D02*
Y363920D01*
X327400Y305700D02*
X327600Y305500D01*
X326496Y295196D02*
X327400Y296100D01*
X315800Y295196D02*
X326496D01*
X327633Y305533D02*
X331717D01*
X357904Y328000D02*
X360344Y325560D01*
Y317953D02*
Y325560D01*
X357904Y328000D02*
Y338374D01*
X337800Y335700D02*
Y339769D01*
X332512Y330412D02*
X337800Y335700D01*
X357904Y338374D02*
X358000Y338471D01*
X360604Y373200D02*
X362194Y371610D01*
X360600Y361542D02*
Y371700D01*
X337252Y320006D02*
X347630D01*
X332512Y327731D02*
Y330412D01*
D15*
X370521Y363379D02*
G03*
X369800Y361639I1740J-1740D01*
G01*
Y362122D02*
G03*
X369279Y363379I-1778J0D01*
G01*
X376021Y363079D02*
G03*
X375600Y362063I1016J-1016D01*
G01*
Y361098D02*
G03*
X374779Y363079I-2802J0D01*
G01*
X380600Y360615D02*
G03*
X379579Y363079I-3485J0D01*
G01*
X406622Y290200D02*
G03*
X406001Y291699I-2120J0D01*
G01*
X406001Y291699D02*
G03*
X407500Y291078I1499J1499D01*
G01*
X404722Y286400D02*
G03*
X404101Y287899I-2120J0D01*
G01*
X404101Y287899D02*
G03*
X405600Y287278I1499J1499D01*
G01*
X249179Y349479D02*
G03*
X247680Y350100I-1499J-1499D01*
G01*
D02*
G03*
X249179Y350721I0J2120D01*
G01*
X250421Y349479D02*
G03*
X249800Y347980I1499J-1499D01*
G01*
D02*
G03*
X249179Y349479I-2120J0D01*
G01*
X223921Y352621D02*
G03*
X225420Y352000I1499J1499D01*
G01*
D02*
G03*
X223921Y351379I0J-2120D01*
G01*
X356200Y276122D02*
G03*
X355386Y278086I-2778J0D01*
G01*
X356200Y273708D02*
G03*
X354679Y277379I-5192J0D01*
G01*
X356400Y260222D02*
G03*
X354731Y259530I0J-2361D01*
G01*
X356400Y259222D02*
G03*
X353023Y257823I0J-4775D01*
G01*
X355779Y260721D02*
G03*
X356200Y261737I-1016J1016D01*
G01*
Y262702D02*
G03*
X357021Y260721I2802J0D01*
G01*
X235334Y289366D02*
G03*
X236600Y292424I-3057J3057D01*
G01*
X234627Y290073D02*
G03*
X236600Y294838I-4765J4765D01*
G01*
Y291941D02*
G03*
X237666Y289366I3641J0D01*
G01*
X236600Y294355D02*
G03*
X238373Y290073I6055J0D01*
G01*
X268445Y361578D02*
G03*
X269474Y361152I1028J1028D01*
G01*
D02*
G03*
X268445Y360726I0J-1454D01*
G01*
X402659Y290817D02*
G03*
X403703Y288297I3565J0D01*
G01*
X405803Y293186D02*
G03*
X406716Y290984I3114J0D01*
G01*
X405721Y291979D02*
G03*
X404925Y292309I-795J-795D01*
G01*
X364500Y274208D02*
G03*
X366431Y273331I1932J1690D01*
G01*
D02*
G03*
X364500Y272455I0J-2567D01*
G01*
X362361Y266327D02*
G03*
X359606Y267468I-2754J-2754D01*
G01*
X360572D02*
G03*
X362361Y268209I0J2530D01*
G01*
X355259Y274472D02*
G03*
X356200Y276744I-2272J2272D01*
G01*
D02*
G03*
X357141Y274472I3213J0D01*
G01*
X357239Y268409D02*
G03*
X359511Y267468I2272J2272D01*
G01*
D02*
G03*
X357239Y266527I0J-3213D01*
G01*
X357141D02*
G03*
X356200Y264256I2272J-2272D01*
G01*
D02*
G03*
X355259Y266527I-3213J0D01*
G01*
X342172Y257442D02*
G03*
X344448Y256500I2276J2276D01*
G01*
X344440D02*
G03*
X342172Y255561I0J-3207D01*
G01*
X237638Y300980D02*
G03*
X236600Y298474I2507J-2507D01*
G01*
D02*
G03*
X235562Y300980I-3545J0D01*
G01*
X311359Y346472D02*
G03*
X312300Y348744I-2272J2272D01*
G01*
D02*
G03*
X313241Y346472I3213J0D01*
G01*
X317961Y346572D02*
G03*
X318900Y348840I-2268J2268D01*
G01*
Y348848D02*
G03*
X319843Y346572I3218J0D01*
G01*
X324059Y346672D02*
G03*
X325000Y348944I-2272J2272D01*
G01*
D02*
G03*
X325941Y346672I3213J0D01*
G01*
X331171Y345731D02*
G03*
X330253Y347947I-3133J0D01*
G01*
X330171Y345731D02*
G03*
X328546Y349654I-5547J0D01*
G01*
X339109Y375861D02*
G03*
X338169Y373589I2272J-2272D01*
G01*
D02*
G03*
X337228Y375861I-3213J0D01*
G01*
X369800Y360254D02*
G03*
X370388Y358834I2007J0D01*
G01*
X369800Y362668D02*
G03*
X371095Y359541I4421J0D01*
G01*
X369925Y359233D02*
G03*
X369623Y360377I-1133J313D01*
G01*
X380105Y359541D02*
G03*
X380600Y360736I-1195J1195D01*
G01*
D02*
G03*
X381095Y359541I1690J0D01*
G01*
X375105D02*
G03*
X375600Y360736I-1195J1195D01*
G01*
D02*
G03*
X376095Y359541I1690J0D01*
G01*
Y332259D02*
G03*
X375600Y331064I1195J-1195D01*
G01*
D02*
G03*
X375105Y332259I-1690J0D01*
G01*
X345973Y367261D02*
G03*
X345032Y364989I2272J-2272D01*
G01*
D02*
G03*
X344091Y367261I-3213J0D01*
G01*
X344200Y369437D02*
G03*
X345032Y371168I-1386J1731D01*
G01*
D02*
G03*
X345863Y369437I2217J0D01*
G01*
X345032Y366710D02*
G03*
X346061Y364225I3514J0D01*
G01*
X375844Y326261D02*
G03*
X375496Y328804I-1848J1043D01*
G01*
X375884Y326318D02*
G03*
X375817Y328483I-1185J1047D01*
G01*
X296987Y359684D02*
G03*
X293444Y361152I-3544J-3544D01*
G01*
X296280Y358977D02*
G03*
X291030Y361152I-5251J-5251D01*
G01*
X295573Y358270D02*
G03*
X288615Y361152I-6958J-6958D01*
G01*
X227370Y350232D02*
G03*
X224771Y352000I-2599J-1028D01*
G01*
X226440Y349865D02*
G03*
X223300Y352000I-3140J-1241D01*
G01*
X225601D02*
G03*
X227894Y352997I0J3136D01*
G01*
X223300Y352000D02*
G03*
X227163Y353679I0J5281D01*
G01*
X233811Y351649D02*
G03*
X237550Y350100I3739J3739D01*
G01*
X234518Y352356D02*
G03*
X239964Y350100I5446J5446D01*
G01*
X235226Y353063D02*
G03*
X242379Y350100I7153J7153D01*
G01*
X235933Y353770D02*
G03*
X244793Y350100I8860J8860D01*
G01*
X239479D02*
G03*
X235933Y348631I0J-5016D01*
G01*
X264262Y340062D02*
G03*
X263288Y342412I-3323J0D01*
G01*
X263823Y341877D02*
G03*
X266124Y340924I2301J2301D01*
G01*
X262116Y343584D02*
G03*
X266124Y341924I4008J4008D01*
G01*
X260111Y346755D02*
G03*
X260936Y344764I2816J0D01*
G01*
X260909Y344791D02*
G03*
X258249Y345893I-2660J-2660D01*
G01*
X262616Y343084D02*
G03*
X258249Y344893I-4367J-4367D01*
G01*
X248758Y346373D02*
G03*
X249800Y348889I-2517J2517D01*
G01*
Y348399D02*
G03*
X250639Y346373I2866J0D01*
G01*
X325908Y354376D02*
G03*
X325483Y353348I1028J-1028D01*
G01*
D02*
G03*
X325057Y354376I-1454J0D01*
G01*
X321972D02*
G03*
X321546Y353348I1028J-1028D01*
G01*
D02*
G03*
X321120Y354376I-1454J0D01*
G01*
X318035D02*
G03*
X317609Y353348I1028J-1028D01*
G01*
D02*
G03*
X317183Y354376I-1454J0D01*
G01*
X314097D02*
G03*
X313700Y353417I960J-960D01*
G01*
Y353280D02*
G03*
X313246Y354376I-1551J0D01*
G01*
X230792Y352000D02*
X231592Y351201D01*
X232692Y350100D01*
X295325Y361152D02*
X296890Y359586D01*
X268020Y361152D02*
X295325D01*
X303400Y364700D02*
X330200D01*
X331114Y365614D01*
X298286Y359586D02*
X303400Y364700D01*
X296890Y359586D02*
X298286D01*
X363200Y267468D02*
X363400Y267268D01*
X356200Y267468D02*
X363200D01*
X341231Y256600D02*
X341331Y256500D01*
X351700D01*
X356200Y261000D01*
Y267468D01*
X236500Y288200D02*
X236600Y288300D01*
Y303200D01*
X366431Y273331D02*
X367800Y274700D01*
X363400Y273331D02*
X366431D01*
X355300Y278000D02*
X356200Y277100D01*
Y273531D02*
Y277100D01*
X401426Y290574D02*
X405600Y286400D01*
X401426Y290574D02*
Y291289D01*
X404570Y293130D02*
X407500Y290200D01*
X404570Y293130D02*
Y293658D01*
X249600Y345432D02*
X249800Y345632D01*
Y350100D01*
X232692D02*
X249800D01*
X223300Y352000D02*
X230792D01*
X258945Y346755D02*
X265638Y340062D01*
X266518D01*
X257856Y346755D02*
X258945D01*
X375600Y328700D02*
X376100Y328200D01*
X375600Y328700D02*
Y337200D01*
X343700Y372500D02*
X345032Y371168D01*
X338169Y373231D02*
Y376900D01*
Y373231D02*
X338900Y372500D01*
X343700D01*
X345032Y362521D02*
Y371168D01*
X325483Y352717D02*
X331600Y346600D01*
Y345731D02*
Y346600D01*
X325483Y352717D02*
Y357351D01*
X321546Y352554D02*
X325000Y349100D01*
Y345731D02*
Y349100D01*
X321546Y352554D02*
Y357351D01*
X318900Y345731D02*
X319000Y345631D01*
X318900Y345731D02*
Y349700D01*
X317609Y350991D02*
X318900Y349700D01*
X317609Y350991D02*
Y357351D01*
X313672D02*
X313700Y357323D01*
Y350900D02*
Y357323D01*
X312300Y349500D02*
X313700Y350900D01*
X312300Y345531D02*
Y349500D01*
X380200Y363700D02*
X380600Y363300D01*
Y356900D02*
Y363300D01*
X369800Y357900D02*
Y363500D01*
X375600Y356900D02*
Y362700D01*
X375700Y362800D01*
X369800Y360200D02*
X370600Y359400D01*
Y359200D02*
Y359400D01*
D23*
X315700Y302231D02*
D03*
Y296168D02*
D03*
X331600Y345731D02*
D03*
Y339668D02*
D03*
X345900Y339669D02*
D03*
Y345732D02*
D03*
X338400Y339669D02*
D03*
Y345732D02*
D03*
X319000Y345631D02*
D03*
Y339568D02*
D03*
X325000Y345731D02*
D03*
Y339668D02*
D03*
X312300Y345531D02*
D03*
Y339468D02*
D03*
X305200Y339368D02*
D03*
Y345431D02*
D03*
X298300Y339268D02*
D03*
Y345331D02*
D03*
X392800Y357832D02*
D03*
Y351769D02*
D03*
X338700Y307432D02*
D03*
Y301369D02*
D03*
X346200Y301469D02*
D03*
Y307532D02*
D03*
X356200Y273531D02*
D03*
Y267468D02*
D03*
X363400Y273331D02*
D03*
Y267268D02*
D03*
X274100Y339868D02*
D03*
Y345931D02*
D03*
X249600Y345432D02*
D03*
Y339369D02*
D03*
X275800Y374831D02*
D03*
Y368768D02*
D03*
X279300Y270232D02*
D03*
Y264169D02*
D03*
X271800Y270332D02*
D03*
Y264269D02*
D03*
X264600Y270432D02*
D03*
Y264369D02*
D03*
D24*
X262427Y320800D02*
D03*
X265773D02*
D03*
X253473Y320800D02*
D03*
X250127D02*
D03*
X240073Y320900D02*
D03*
X236727D02*
D03*
X227173Y321000D02*
D03*
X223827D02*
D03*
D25*
X257800Y320927D02*
D03*
Y324273D02*
D03*
X245000Y320827D02*
D03*
Y324173D02*
D03*
X232000Y321027D02*
D03*
Y324373D02*
D03*
X219200Y320927D02*
D03*
Y324273D02*
D03*
D26*
X338169Y376900D02*
D03*
X344232D02*
D03*
X315332Y321700D02*
D03*
X309269D02*
D03*
X348531Y289500D02*
D03*
X342468D02*
D03*
X342569Y282100D02*
D03*
X348632D02*
D03*
X327569Y264300D02*
D03*
X333632D02*
D03*
X333831Y271800D02*
D03*
X327768D02*
D03*
X319931Y285200D02*
D03*
X313868D02*
D03*
X313769Y278200D02*
D03*
X319832D02*
D03*
X320131Y271300D02*
D03*
X314068D02*
D03*
X319732Y263800D02*
D03*
X313669D02*
D03*
X341231Y256600D02*
D03*
X335168D02*
D03*
X395232Y308400D02*
D03*
X389169D02*
D03*
X390932Y326200D02*
D03*
X384869D02*
D03*
X370069Y326000D02*
D03*
X376132D02*
D03*
X355168Y379600D02*
D03*
X361231D02*
D03*
X338969Y368300D02*
D03*
X345032D02*
D03*
D27*
X357904Y328700D02*
D03*
X350896D02*
D03*
X362004Y372000D02*
D03*
X354996D02*
D03*
D28*
X360644Y319654D02*
D03*
X346983D02*
D03*
X257856Y346755D02*
D03*
X266518D02*
D03*
Y340062D02*
D03*
X257856D02*
D03*
D29*
X340492Y329831D02*
D03*
X333012D02*
D03*
X336752Y320106D02*
D03*
X327508Y278269D02*
D03*
X334988D02*
D03*
X331248Y287994D02*
D03*
D30*
X331717Y301793D02*
D03*
Y305533D02*
D03*
Y309273D02*
D03*
X322662D02*
D03*
Y301793D02*
D03*
D31*
X349440Y274721D02*
D03*
X341960D02*
D03*
X345700Y264879D02*
D03*
X345440Y362521D02*
D03*
X337960D02*
D03*
X341700Y352679D02*
D03*
D34*
X243008Y366160D02*
D03*
Y361240D02*
D03*
D35*
X231592Y376200D02*
D03*
Y351201D02*
D03*
D38*
X296890Y380610D02*
D03*
Y359586D02*
D03*
D41*
X380848Y308237D02*
D03*
X367462D02*
D03*
D42*
X389423Y317352D02*
D03*
X377779D02*
D03*
D43*
X357400Y338471D02*
D03*
Y348729D02*
D03*
D44*
X352469Y364392D02*
D03*
Y356912D02*
D03*
X362194Y360652D02*
D03*
D45*
X370600Y334900D02*
D03*
X375600D02*
D03*
X380600D02*
D03*
X385600D02*
D03*
X375600Y356900D02*
D03*
X380600D02*
D03*
X385600D02*
D03*
X370600D02*
D03*
D46*
X378100Y345900D02*
D03*
D47*
X260222Y303200D02*
D03*
X244474D02*
D03*
D48*
X252348D02*
D03*
D49*
X236600D02*
D03*
D50*
X407714Y296027D02*
D03*
X404570Y293658D02*
D03*
X401426Y291289D02*
D03*
X398283Y288920D02*
D03*
D51*
X411489Y298872D02*
D03*
X394508Y286076D02*
D03*
D52*
X277303Y248444D02*
D03*
X265097Y253956D02*
D03*
Y248444D02*
D03*
X277303Y253956D02*
D03*
D93*
X242878Y339500D02*
G03*
X243537Y337908I2251J0D01*
G01*
X243678Y339500D02*
G03*
X244903Y336543I4182J0D01*
G01*
X244478Y339500D02*
G03*
X246269Y335177I6114J0D01*
G01*
X241792Y335791D02*
G03*
X243461Y335100I1670J1670D01*
G01*
D02*
G03*
X241792Y334408I0J-2361D01*
G01*
X260826Y371474D02*
G03*
X260146Y369832I1642J-1642D01*
G01*
X261391Y370908D02*
G03*
X260146Y367901I3008J-3008D01*
G01*
X252692Y367809D02*
G03*
X252272Y366795I1014J-1014D01*
G01*
Y365483D02*
G03*
X251308Y367809I-3288J0D01*
G01*
X267000Y372822D02*
G03*
X265331Y372130I0J-2361D01*
G01*
X265331Y372130D02*
G03*
X266022Y373800I-1670J1670D01*
G01*
X256826Y368374D02*
G03*
X256209Y366884I1490J-1490D01*
G01*
X257392Y367809D02*
G03*
X256209Y364953I2856J-2856D01*
G01*
X280678Y349700D02*
G03*
X281369Y348030I2361J0D01*
G01*
X281369Y348030D02*
G03*
X279700Y348722I-1670J-1670D01*
G01*
X288700Y349222D02*
G03*
X287031Y348531I0J-2361D01*
G01*
X287031Y348531D02*
G03*
X287722Y350200I-1670J1670D01*
G01*
X290091Y344008D02*
G03*
X289300Y342098I1911J-1911D01*
G01*
Y342580D02*
G03*
X288708Y344008I-2020J0D01*
G01*
X285708Y290592D02*
G03*
X286000Y291295I-704J704D01*
G01*
D02*
G03*
X286526Y290026I1795J0D01*
G01*
X286000Y293227D02*
G03*
X287091Y290592I3727J0D01*
G01*
X289108Y287192D02*
G03*
X289800Y288861I-1670J1670D01*
G01*
D02*
G03*
X290492Y287192I2361J0D01*
G01*
X282508Y294192D02*
G03*
X283453Y296471I-2280J2280D01*
G01*
Y295251D02*
G03*
X283892Y294192I1498J0D01*
G01*
X278611Y302011D02*
G03*
X277778Y300000I2011J-2011D01*
G01*
X279977Y303377D02*
G03*
X278578Y300000I3377J-3377D01*
G01*
X275420Y303932D02*
G03*
X276400Y303400I979J635D01*
G01*
D02*
G03*
X275420Y302868I0J-1167D01*
G01*
X231978Y340600D02*
G03*
X232669Y338931I2361J0D01*
G01*
X232669Y338931D02*
G03*
X231000Y339622I-1670J-1670D01*
G01*
X242458Y389139D02*
G03*
X243126Y387526I2282J0D01*
G01*
X242458Y391071D02*
G03*
X243691Y388091I4213J0D01*
G01*
X343826Y383455D02*
G03*
X345300Y382800I1474J1330D01*
G01*
D02*
G03*
X343826Y382145I0J-1985D01*
G01*
X341391Y387192D02*
G03*
X343061Y386500I1670J1670D01*
G01*
Y386700D02*
G03*
X341391Y386009I0J-2361D01*
G01*
X237879Y279579D02*
G03*
X240482Y278500I2604J2604D01*
G01*
X238444Y280144D02*
G03*
X242414Y278500I3970J3970D01*
G01*
X240000D02*
G03*
X237313Y277387I0J-3800D01*
G01*
X241931Y278500D02*
G03*
X237879Y276821I0J-5731D01*
G01*
X243862Y278500D02*
G03*
X238444Y276256I0J-7662D01*
G01*
X279106Y254814D02*
G03*
X281179Y253956I2073J2073D01*
G01*
D02*
G03*
X279106Y253097I0J-2931D01*
G01*
X263859Y254249D02*
G03*
X264600Y256037I-1788J1788D01*
G01*
X263294Y254814D02*
G03*
X264600Y257968I-3154J3154D01*
G01*
Y255806D02*
G03*
X265011Y254814I1402J0D01*
G01*
X275500Y247586D02*
G03*
X273533Y248400I-1966J-1966D01*
G01*
X273320D02*
G03*
X275500Y249303I0J3082D01*
G01*
X263586Y364197D02*
G03*
X264083Y365396I-1199J1199D01*
G01*
D02*
G03*
X264579Y364197I1696J0D01*
G01*
X259649D02*
G03*
X260146Y365396I-1199J1199D01*
G01*
D02*
G03*
X260642Y364197I1696J0D01*
G01*
X255712D02*
G03*
X256209Y365396I-1199J1199D01*
G01*
D02*
G03*
X256705Y364197I1696J0D01*
G01*
X251775D02*
G03*
X252272Y365396I-1199J1199D01*
G01*
D02*
G03*
X252768Y364197I1696J0D01*
G01*
X326757Y272910D02*
G03*
X327569Y274870I-1960J1960D01*
G01*
Y273903D02*
G03*
X328214Y272344I2205J0D01*
G01*
X327569Y275835D02*
G03*
X328780Y272910I4136J0D01*
G01*
X328214Y271256D02*
G03*
X327569Y269696I1559J-1559D01*
G01*
X328780Y270690D02*
G03*
X327569Y267765I2925J-2925D01*
G01*
Y268730D02*
G03*
X326757Y270690I-2772J0D01*
G01*
X326557Y265410D02*
G03*
X327569Y267852I-2442J2442D01*
G01*
D02*
G03*
X328580Y265410I3454J0D01*
G01*
X334643D02*
G03*
X335926Y264879I1283J1283D01*
G01*
X336314D02*
G03*
X334078Y263952I0J-3163D01*
G01*
X338245Y264879D02*
G03*
X334643Y263387I0J-5094D01*
G01*
X328060Y276792D02*
G03*
X327569Y275605I1187J-1187D01*
G01*
Y275312D02*
G03*
X326956Y276792I-2093J0D01*
G01*
X265612Y263357D02*
G03*
X264600Y260915I2442J-2442D01*
G01*
D02*
G03*
X263588Y263357I-3454J0D01*
G01*
Y271443D02*
G03*
X264600Y273886I-2442J2442D01*
G01*
D02*
G03*
X265612Y271443I3454J0D01*
G01*
X349543Y288390D02*
G03*
X348531Y285947I2442J-2442D01*
G01*
D02*
G03*
X347520Y288390I-3454J0D01*
G01*
X341038Y289598D02*
G03*
X340073Y291927I-3293J0D01*
G01*
X339912Y292088D02*
G03*
X342468Y291029I2556J2556D01*
G01*
X348531Y278428D02*
G03*
X349566Y275930I3532J0D01*
G01*
X348531Y280359D02*
G03*
X350132Y276496I5464J0D01*
G01*
X345008Y264187D02*
G03*
X343339Y264879I-1670J-1670D01*
G01*
D02*
G03*
X345008Y265570I0J2361D01*
G01*
X272812Y263257D02*
G03*
X271800Y260815I2442J-2442D01*
G01*
D02*
G03*
X270788Y263257I-3454J0D01*
G01*
Y271343D02*
G03*
X271800Y273786I-2442J2442D01*
G01*
D02*
G03*
X272812Y271343I3454J0D01*
G01*
X314880Y284090D02*
G03*
X313868Y281647I2442J-2442D01*
G01*
D02*
G03*
X312857Y284090I-3454J0D01*
G01*
X349643Y280990D02*
G03*
X348531Y278306I2684J-2684D01*
G01*
Y278789D02*
G03*
X347620Y280990I-3112J0D01*
G01*
Y283210D02*
G03*
X348531Y285411I-2200J2200D01*
G01*
Y285894D02*
G03*
X349643Y283210I3796J0D01*
G01*
X280410Y265180D02*
G03*
X282777Y264200I2367J2367D01*
G01*
X282928D02*
G03*
X280410Y263157I0J-3561D01*
G01*
X278387Y271243D02*
G03*
X279400Y273689I-2446J2446D01*
G01*
Y273682D02*
G03*
X280410Y271243I3449J0D01*
G01*
X320131Y269771D02*
G03*
X317980Y268880I0J-3043D01*
G01*
X317569Y268469D02*
G03*
X318701Y271202I-2733J2733D01*
G01*
X313057Y272410D02*
G03*
X313868Y274370I-1960J1960D01*
G01*
Y273404D02*
G03*
X314514Y271844I2206J0D01*
G01*
X313868Y275335D02*
G03*
X315080Y272410I4137J0D01*
G01*
X312657Y262788D02*
G03*
X310215Y263800I-2442J-2442D01*
G01*
D02*
G03*
X312657Y264812I0J3454D01*
G01*
X313051Y265189D02*
G03*
X313669Y266168I-468J979D01*
G01*
D02*
G03*
X314286Y265189I1086J0D01*
G01*
X314780Y277090D02*
G03*
X313868Y274888I2201J-2201D01*
G01*
Y274407D02*
G03*
X312757Y277090I-3795J0D01*
G01*
Y279310D02*
G03*
X313868Y281993I-2683J2683D01*
G01*
Y281511D02*
G03*
X314780Y279310I3113J0D01*
G01*
X334157Y255588D02*
G03*
X331714Y256600I-2442J-2442D01*
G01*
D02*
G03*
X334157Y257612I0J3454D01*
G01*
X314791Y252377D02*
G03*
X313121Y253068I-1670J-1670D01*
G01*
D02*
G03*
X314791Y253760I0J2361D01*
G01*
X325575Y254775D02*
G03*
X325128Y252870I1313J-1313D01*
G01*
X326487Y255687D02*
G03*
X325886Y253125I1766J-1766D01*
G01*
X327400Y256600D02*
G03*
X326645Y253380I2219J-2219D01*
G01*
X324954Y253974D02*
G03*
X325324Y254524I-225J550D01*
G01*
D02*
G03*
X325694Y253974I594J0D01*
G01*
X326015Y252377D02*
G03*
X325324Y250708I1670J-1670D01*
G01*
D02*
G03*
X324633Y252377I-2361J0D01*
G01*
X314665Y248594D02*
G03*
X313669Y249131I-997J-655D01*
G01*
D02*
G03*
X314665Y249669I0J1193D01*
G01*
X324633Y249823D02*
G03*
X325324Y251493I-1670J1670D01*
G01*
D02*
G03*
X326015Y249823I2361J0D01*
G01*
X270695Y321226D02*
G03*
X271835Y320753I1140J1140D01*
G01*
X271584D02*
G03*
X270695Y320385I0J-1257D01*
G01*
X252348Y305556D02*
G03*
X254239Y306339I0J2675D01*
G01*
X253986Y306086D02*
G03*
X253116Y303987I2098J-2098D01*
G01*
X255351Y307451D02*
G03*
X253917Y303987I3464J-3464D01*
G01*
X261664Y303817D02*
G03*
X262600Y303200I936J401D01*
G01*
D02*
G03*
X261664Y302583I0J-1018D01*
G01*
X315998Y320336D02*
G03*
X315332Y319232I581J-1104D01*
G01*
D02*
G03*
X314665Y320336I-1247J0D01*
G01*
X312978Y338267D02*
G03*
X311900Y336286I1281J-1981D01*
G01*
Y336742D02*
G03*
X311190Y338457I-2424J0D01*
G01*
X320060Y338509D02*
G03*
X319300Y336793I1558J-1716D01*
G01*
Y336793D02*
G03*
X318403Y338318I-1745J0D01*
G01*
X326012Y338657D02*
G03*
X325000Y336214I2442J-2442D01*
G01*
D02*
G03*
X323988Y338657I-3454J0D01*
G01*
X331870Y339156D02*
G03*
X330590Y336659I1796J-2497D01*
G01*
X332337Y338507D02*
G03*
X330590Y335098I2452J-3409D01*
G01*
X339929Y345732D02*
G03*
X340419Y344550I1671J0D01*
G01*
X340836Y344133D02*
G03*
X338498Y345101I-2338J-2338D01*
G01*
X342202Y342767D02*
G03*
X338498Y344301I-3703J-3703D01*
G01*
X344371Y339669D02*
G03*
X343714Y341255I-2243J0D01*
G01*
X343869Y341100D02*
G03*
X345802Y340299I1933J1933D01*
G01*
X342503Y342466D02*
G03*
X345802Y341099I3299J3299D01*
G01*
X344790Y346743D02*
G03*
X345500Y348458I-1714J1714D01*
G01*
Y347982D02*
G03*
X346248Y346178I2552J0D01*
G01*
X345500Y349914D02*
G03*
X346813Y346743I4484J0D01*
G01*
X348800Y377800D02*
G03*
X345360Y376119I0J-4360D01*
G01*
X243171Y390613D02*
G03*
X242458Y388891I1722J-1722D01*
G01*
X247942Y390505D02*
G03*
X247378Y389590I461J-915D01*
G01*
X296270Y379627D02*
G03*
X293948Y379368I-999J-1582D01*
G01*
X345369Y390477D02*
G03*
X344816Y389144I1333J-1333D01*
G01*
D02*
G03*
X344264Y390477I-1886J0D01*
G01*
X350291D02*
G03*
X349739Y389144I1333J-1333D01*
G01*
D02*
G03*
X349186Y390477I-1886J0D01*
G01*
X256640Y339240D02*
G03*
X254656Y340062I-1984J-1984D01*
G01*
X256074Y338674D02*
G03*
X252725Y340062I-3350J-3350D01*
G01*
X254656D02*
G03*
X256640Y340883I0J2806D01*
G01*
X252725Y340062D02*
G03*
X256074Y341449I0J4737D01*
G01*
X259637Y338674D02*
G03*
X258656Y336305I2369J-2369D01*
G01*
Y336992D02*
G03*
X257568Y339120I-2625J0D01*
G01*
X258656Y335427D02*
G03*
X257100Y338472I-3757J0D01*
G01*
X267733Y347576D02*
G03*
X270815Y346300I3082J3082D01*
G01*
X268299Y348142D02*
G03*
X272746Y346300I4447J4447D01*
G01*
X270551D02*
G03*
X268299Y345367I0J-3185D01*
G01*
X250710Y340380D02*
G03*
X251479Y340062I769J769D01*
G01*
X252894D02*
G03*
X250144Y338923I0J-3889D01*
G01*
X254826Y340062D02*
G03*
X250710Y338357I0J-5820D01*
G01*
X273556Y345485D02*
G03*
X271589Y346300I-1967J-1967D01*
G01*
X272990Y344920D02*
G03*
X269658Y346300I-3332J-3332D01*
G01*
X271437D02*
G03*
X272990Y346943I0J2196D01*
G01*
X275210D02*
G03*
X276763Y346300I1553J1553D01*
G01*
X276476D02*
G03*
X274662Y345504I0J-2465D01*
G01*
X278300Y346300D02*
G03*
X275251Y344963I0J-4143D01*
G01*
X278728Y328231D02*
Y330372D01*
X277600Y331500D02*
X278728Y330372D01*
X249946Y331500D02*
X277600D01*
X280100Y296800D02*
Y298400D01*
X319931Y285200D02*
X322725Y287994D01*
X331248D01*
X344300Y352500D02*
X345500Y351300D01*
X340800Y352500D02*
X344300D01*
X345500Y345932D02*
Y351300D01*
X292580Y318860D02*
X292899Y319178D01*
X345300Y382800D02*
X349739Y387239D01*
X343100Y382800D02*
X345300D01*
X340700Y386700D02*
X343400D01*
X344816Y388117D01*
X294090Y379510D02*
X297657Y383078D01*
X242458Y386243D02*
Y392492D01*
X325324Y253068D02*
Y254524D01*
Y249131D02*
Y253068D01*
Y254524D02*
X327400Y256600D01*
X335168D01*
X313668Y249131D02*
X315876D01*
X308800Y254000D02*
X313668Y249131D01*
X308800Y254000D02*
X309531Y253269D01*
X301700Y261100D02*
X308800Y254000D01*
X303300Y261800D02*
X312032Y253068D01*
X315876D01*
X301700Y261100D02*
Y310679D01*
X299500Y312879D02*
X301700Y310679D01*
X295655Y312879D02*
X299500D01*
X270185Y320805D02*
X270237Y320753D01*
X275975D01*
X262600Y303200D02*
X272279Y312879D01*
X260222Y303200D02*
X262600D01*
X272279Y312879D02*
X275975D01*
X266800Y310000D02*
X271254Y314454D01*
X257900Y310000D02*
X266800D01*
X252348Y304448D02*
X257900Y310000D01*
X271254Y314454D02*
X275975D01*
X252348Y303200D02*
Y304448D01*
X249600Y282400D02*
X256800D01*
X236500Y278200D02*
X236800Y278500D01*
X245700D01*
X249600Y282400D01*
X256800D02*
X291200D01*
X322800Y334900D02*
X324200D01*
X325000Y335700D02*
Y339668D01*
X324200Y334900D02*
X325000Y335700D01*
X319946Y334900D02*
X322800D01*
X316000Y335500D02*
X318000D01*
X319300Y336800D02*
Y339268D01*
X319000Y339568D02*
X319300Y339268D01*
X318000Y335500D02*
X319300Y336800D01*
X316022Y330977D02*
X319946Y334900D01*
X320691Y333100D02*
X328500D01*
X314691Y327100D02*
X320691Y333100D01*
X307477Y330977D02*
X316022D01*
X306500Y327100D02*
X314691D01*
X328500Y333100D02*
X330590Y335190D01*
X313277Y332777D02*
X316000Y335500D01*
X330590Y335190D02*
Y339743D01*
X304823Y334577D02*
X310177D01*
X311900Y339068D02*
X312300Y339468D01*
X311900Y336300D02*
Y339068D01*
X310177Y334577D02*
X311900Y336300D01*
X301447Y331200D02*
X304823Y334577D01*
X306177Y332777D02*
X313277D01*
X303100Y329700D02*
X306177Y332777D01*
X304800Y328300D02*
X307477Y330977D01*
X304700Y328300D02*
X304800D01*
X291327Y335995D02*
X294600Y339268D01*
X285028Y328231D02*
Y349572D01*
X281878Y328231D02*
Y333278D01*
X280100Y335056D02*
X281878Y333278D01*
X231000Y340600D02*
X239300Y332300D01*
X243600D01*
X343832Y377800D02*
X348800D01*
X344816Y388117D02*
Y392998D01*
X349739Y387239D02*
Y392998D01*
X337669Y376900D02*
Y377700D01*
X301728Y322328D02*
X306500Y327100D01*
X327700Y291400D02*
X329700Y293400D01*
X309100Y291400D02*
X327700D01*
X348531Y275630D02*
Y289500D01*
Y275630D02*
X349440Y274721D01*
X315332Y319232D02*
Y321700D01*
X313400Y317300D02*
X315332Y319232D01*
X306000Y317300D02*
X313400D01*
X339137Y345832D02*
X345300Y339669D01*
X291200Y282400D02*
X292700Y283900D01*
Y299500D01*
X288177Y304023D02*
X292700Y299500D01*
X288177Y304023D02*
Y308551D01*
X286602Y302998D02*
X289078Y300522D01*
Y293878D02*
Y300522D01*
X285028Y302451D02*
X286000Y301479D01*
Y290300D02*
Y301479D01*
X286602Y302998D02*
Y308551D01*
X285028Y302451D02*
Y308551D01*
X289078Y293878D02*
X289800Y293156D01*
Y286500D02*
Y293156D01*
X267900Y279200D02*
X292300D01*
X294400Y281300D01*
X273700Y277600D02*
X294500D01*
X280600Y275900D02*
X295100D01*
X294500Y277600D02*
X296100Y279200D01*
X295100Y275900D02*
X299100Y279900D01*
X286000Y290300D02*
X286400Y289900D01*
X283200Y293500D02*
X283453Y293753D01*
X308100Y263800D02*
X313669D01*
X304800Y267100D02*
X308100Y263800D01*
X303300Y261800D02*
Y301800D01*
X313669Y266169D02*
X315100Y267600D01*
X320131Y271031D02*
Y271300D01*
X316700Y267600D02*
X320131Y271031D01*
X315100Y267600D02*
X316700D01*
X313669Y263800D02*
Y266169D01*
X313868Y271500D02*
Y285200D01*
Y271500D02*
X314068Y271300D01*
X327569Y272000D02*
X327768Y271800D01*
X327569Y272000D02*
Y278208D01*
X327508Y278269D02*
X327569Y278208D01*
Y271600D02*
X327768Y271800D01*
X327569Y264300D02*
Y271600D01*
X333632Y264300D02*
X334210Y264879D01*
X345700D01*
X304800Y267100D02*
Y313000D01*
X301771Y316029D02*
X304800Y313000D01*
X295655Y316029D02*
X301771D01*
X300046Y314454D02*
X303200Y311300D01*
X295655Y314454D02*
X300046D01*
X298196Y311304D02*
X299100Y310400D01*
X295655Y311304D02*
X298196D01*
X307400Y293100D02*
Y313400D01*
X303196Y317604D02*
X307400Y313400D01*
X342468Y289500D02*
Y289532D01*
X338600Y293400D02*
X342468Y289532D01*
X329700Y293400D02*
X338600D01*
X307400Y293100D02*
X309100Y291400D01*
X295655Y317604D02*
X303196D01*
X304122Y319178D02*
X306000Y317300D01*
X292899Y319178D02*
X304122D01*
X299100Y279900D02*
Y310400D01*
X295655Y320753D02*
X308322D01*
X295655Y322328D02*
X301728D01*
X303200Y301900D02*
Y311300D01*
X279400Y270332D02*
Y274700D01*
X280600Y275900D01*
X279300Y270232D02*
X279400Y270332D01*
X300303Y323903D02*
X304700Y328300D01*
X295655Y323903D02*
X300303D01*
X298878Y325478D02*
X303100Y329700D01*
X295655Y325478D02*
X298878D01*
X308322Y320753D02*
X309269Y321700D01*
X293500Y331200D02*
X301447D01*
X289300Y334600D02*
Y344300D01*
X288177Y333477D02*
X289300Y334600D01*
X289150Y344450D02*
X289300Y344300D01*
X247400Y328500D02*
X269429D01*
X248900Y330000D02*
X270200D01*
X243500Y337946D02*
X249946Y331500D01*
X243800Y335100D02*
X248900Y330000D01*
X243600Y332300D02*
X247400Y328500D01*
X270200Y330000D02*
X274722Y325478D01*
X269429Y328500D02*
X273951Y323978D01*
X243500Y337946D02*
Y339500D01*
X274722Y325478D02*
X275975D01*
X273951Y323978D02*
X275900D01*
X275975Y323903D01*
X281878Y300178D02*
Y308551D01*
X280303Y304700D02*
Y308551D01*
Y303703D02*
Y304700D01*
X274600Y303400D02*
X276400D01*
X278728Y305728D01*
X280100Y298400D02*
X281878Y300178D01*
X278200Y301600D02*
X280303Y303703D01*
X278728Y305728D02*
Y308551D01*
X337800Y345832D02*
X339137D01*
X345300Y345732D02*
X345500Y345932D01*
X344331Y364830D02*
X345240Y363921D01*
X285200Y255800D02*
Y263100D01*
X283356Y253956D02*
X285200Y255800D01*
X279300Y264169D02*
X279331Y264200D01*
X284100D01*
X285200Y263100D01*
X277303Y253956D02*
X283356D01*
X277259Y248400D02*
X277303Y248444D01*
X272600Y248400D02*
X277259D01*
X271800Y249200D02*
X272600Y248400D01*
X271800Y249200D02*
Y264269D01*
X264600Y254453D02*
X265097Y253956D01*
X264600Y254453D02*
Y264369D01*
X292902Y304498D02*
X296100Y301300D01*
X271800Y270332D02*
Y275700D01*
X273700Y277600D01*
X264600Y275900D02*
X267900Y279200D01*
X296100D02*
Y301300D01*
X291327Y303952D02*
Y308551D01*
Y303952D02*
X294400Y300879D01*
Y281300D02*
Y300879D01*
X292902Y304498D02*
Y308551D01*
X264600Y270432D02*
Y275900D01*
X283453Y293753D02*
Y308551D01*
X250293Y340062D02*
X258656D01*
X249600Y339369D02*
X250293Y340062D01*
X267318Y346755D02*
X267772Y346300D01*
X292902Y328231D02*
Y330602D01*
X293500Y331200D01*
X303100Y329700D02*
X304400Y331000D01*
X304700Y328300D02*
X305600Y329200D01*
X289752Y328231D02*
Y331752D01*
X291327Y328231D02*
Y332200D01*
X258656Y335444D02*
Y340062D01*
Y335444D02*
X260200Y333900D01*
X278300D01*
X280303Y328231D02*
Y331897D01*
X278300Y333900D02*
X280303Y331897D01*
X289752Y331752D02*
X290200Y332200D01*
X291327D01*
Y335995D01*
X283453Y328231D02*
Y330500D01*
Y331953D01*
X267772Y346300D02*
X278300D01*
X280100Y335056D02*
Y344500D01*
X278300Y346300D02*
X280100Y344500D01*
X288177Y328231D02*
Y333477D01*
X286602Y328231D02*
Y348102D01*
X288700Y350200D01*
X283453Y330500D02*
Y345947D01*
X279700Y349700D02*
X283453Y345947D01*
X252272Y361152D02*
Y368228D01*
X252000Y368500D02*
X252272Y368228D01*
X256209Y361152D02*
Y368009D01*
X256700Y368500D01*
X260146Y361152D02*
Y371046D01*
X260700Y371600D01*
X264083Y361152D02*
Y370883D01*
X267000Y373800D01*
X330590Y345806D02*
Y346210D01*
X274576Y374831D02*
X275800D01*
X288600Y384800D02*
X288800D01*
X294090Y379510D01*
X242458Y386243D02*
X242600Y386100D01*
X283400Y351200D02*
X285028Y349572D01*
X247378Y389621D02*
Y392492D01*
X241100Y335100D02*
X243800D01*
D94*
X302144Y339712D02*
G03*
X303216Y339268I1072J1072D01*
G01*
D02*
G03*
X302144Y338824I0J-1516D01*
G01*
X301256D02*
G03*
X300184Y339268I-1072J-1072D01*
G01*
D02*
G03*
X301256Y339712I0J1516D01*
G01*
X241944Y369556D02*
G03*
X241500Y368484I1072J-1072D01*
G01*
D02*
G03*
X241056Y369556I-1516J0D01*
G01*
X351150Y304288D02*
G03*
X351844Y302613I2370J0D01*
G01*
X234844Y364056D02*
G03*
X234400Y362984I1072J-1072D01*
G01*
D02*
G03*
X233956Y364056I-1516J0D01*
G01*
X250290Y385110D02*
G03*
X252272Y384289I1981J1981D01*
G01*
X255856Y383937D02*
G03*
X254861Y386339I-3397J0D01*
G01*
X263700Y385711D02*
G03*
X264332Y384186I2157J0D01*
G01*
X334344Y311900D02*
G03*
X333329Y309292I2458J-2458D01*
G01*
X345436Y308296D02*
G03*
X346200Y310141I-1845J1845D01*
G01*
D02*
G03*
X346964Y308296I2609J0D01*
G01*
X304337Y338604D02*
G03*
X302734Y339268I-1603J-1603D01*
G01*
X302251D02*
G03*
X304337Y340133I0J2950D01*
G01*
X297437Y338504D02*
G03*
X295592Y339268I-1845J-1845D01*
G01*
D02*
G03*
X297437Y340033I0J2609D01*
G01*
X299163D02*
G03*
X301008Y339268I1845J1845D01*
G01*
D02*
G03*
X299163Y338504I0J-2609D01*
G01*
X346664Y338904D02*
G03*
X345900Y337059I1845J-1845D01*
G01*
D02*
G03*
X345136Y338904I-2609J0D01*
G01*
X340492Y329687D02*
G03*
X342978Y330717I0J3516D01*
G01*
X340492Y331187D02*
G03*
X345539Y333277I0J7137D01*
G01*
X332256Y329661D02*
G03*
X331400Y327595I2066J-2066D01*
G01*
X333317Y328601D02*
G03*
X331400Y323973I4627J-4627D01*
G01*
X333002Y329974D02*
G03*
X331400Y328358I15J-1617D01*
G01*
X333016Y328474D02*
G03*
X331400Y326843I15J-1631D01*
G01*
X333012Y328474D02*
G03*
X331721Y327940I0J-1826D01*
G01*
X300713Y390546D02*
G03*
X299879Y390892I-834J-834D01*
G01*
X305035Y391126D02*
G03*
X305502Y389998I1596J0D01*
G01*
X309956Y391126D02*
G03*
X311145Y388255I4061J0D01*
G01*
X313748Y390231D02*
G03*
X315271Y389600I1524J1524D01*
G01*
X314808Y391292D02*
G03*
X318893Y389600I4084J4084D01*
G01*
X240850Y360656D02*
G03*
X239296Y361300I-1554J-1554D01*
G01*
X239588D02*
G03*
X240850Y361823I0J1785D01*
G01*
X245166Y366744D02*
G03*
X246574Y366160I1408J1408D01*
G01*
D02*
G03*
X245166Y365577I0J-1991D01*
G01*
X240850Y366744D02*
G03*
X241500Y368312I-1568J1568D01*
G01*
Y367992D02*
G03*
X242017Y366744I1765J0D01*
G01*
X268051Y341202D02*
G03*
X270803Y340062I2752J2752D01*
G01*
D02*
G03*
X268051Y338922I0J-3892D01*
G01*
X253997Y345432D02*
G03*
X257383Y346834I0J4788D01*
G01*
X250376Y345432D02*
G03*
X256322Y347895I0J8410D01*
G01*
X250463Y346196D02*
G03*
X252308Y345432I1845J1845D01*
G01*
D02*
G03*
X250463Y344667I0J-2609D01*
G01*
X273237Y339104D02*
G03*
X270926Y340062I-2312J-2312D01*
G01*
X271859D02*
G03*
X273237Y340633I0J1949D01*
G01*
X311279Y379980D02*
G03*
X313672Y378989I2393J2393D01*
G01*
X308718Y382541D02*
G03*
X313672Y380489I4953J4953D01*
G01*
X326600Y389500D02*
X328300Y387800D01*
X322700Y392800D02*
X324400Y394500D01*
X322900Y391200D02*
X324600Y389500D01*
X331400Y327619D02*
X333512Y329731D01*
X301700Y339268D02*
X305100D01*
X298300D02*
X301700D01*
X293100Y340700D02*
Y350224D01*
X294600Y339268D02*
X298300D01*
X293100Y340700D02*
X294532Y339268D01*
X250400Y354400D02*
X288924D01*
X293100Y350224D01*
X242948Y361300D02*
X243008Y361240D01*
X235200Y361300D02*
X242948D01*
X234400Y362100D02*
X235200Y361300D01*
X234400Y362100D02*
Y364500D01*
X248800Y356000D02*
Y364700D01*
X247340Y366160D02*
X248800Y364700D01*
X243008Y366160D02*
X247340D01*
X248800Y356000D02*
X250400Y354400D01*
X273907Y340062D02*
X274100Y339868D01*
X266518Y340062D02*
X273907D01*
X256533Y345432D02*
X257856Y346755D01*
X249600Y345432D02*
X256533D01*
X351150Y302419D02*
Y312250D01*
Y302419D02*
X351400Y302169D01*
X349000Y314400D02*
X351150Y312250D01*
X350896Y328000D02*
Y328700D01*
X367325Y308100D02*
X367462Y308237D01*
X342092Y329831D02*
X345900Y333639D01*
X340492Y329831D02*
X342092D01*
X345900Y333639D02*
Y339669D01*
X262442Y387958D02*
Y393192D01*
Y387958D02*
X263700Y386700D01*
X257522Y388778D02*
Y393192D01*
Y388778D02*
X260146Y386154D01*
X252601Y388599D02*
Y393192D01*
Y388599D02*
X256209Y384991D01*
X247678Y387721D02*
Y393192D01*
Y387721D02*
X252272Y383128D01*
X334800Y314400D02*
X349000D01*
X333800Y315400D02*
X334800Y314400D01*
X334344Y311900D02*
X345800D01*
X346200Y311500D01*
X333600Y315400D02*
X333800D01*
X331400Y317600D02*
X333600Y315400D01*
X346200Y307532D02*
Y311500D01*
X331717Y309273D02*
X334344Y311900D01*
X331400Y317600D02*
Y327619D01*
X315100Y389600D02*
X319400D01*
X325383Y383617D01*
X318000Y387000D02*
X321446Y383554D01*
X312400Y387000D02*
X318000D01*
X309721Y389679D02*
X312400Y387000D01*
X309721Y389679D02*
Y393591D01*
X321446Y378988D02*
Y383554D01*
X314643Y390057D02*
X315100Y389600D01*
X314643Y390057D02*
Y393591D01*
X315200Y384700D02*
X317509Y382391D01*
X310800Y384700D02*
X315200D01*
X304801Y390700D02*
X310800Y384700D01*
X304801Y390700D02*
Y393591D01*
X317509Y378988D02*
Y382391D01*
X299879Y391381D02*
Y393591D01*
Y391381D02*
X313672Y377588D01*
X263700Y381770D02*
X264083Y381388D01*
X263700Y381770D02*
Y386700D01*
X260146Y381388D02*
Y386154D01*
X256209Y381388D02*
Y384991D01*
X252272Y381388D02*
Y383128D01*
X325383Y378988D02*
Y383617D01*
X241500Y367669D02*
X243008Y366160D01*
X241500Y367669D02*
Y370000D01*
D95*
X333831Y273411D02*
G03*
X332918Y275618I-3120J0D01*
G01*
Y274782D02*
G03*
X333831Y276989I-2206J2206D01*
G01*
X371600Y372573D02*
G03*
X369718Y377118I-6427J0D01*
G01*
Y376282D02*
G03*
X371600Y380827I-4545J4545D01*
G01*
X369818Y369482D02*
G03*
X371600Y373785I-4303J4303D01*
G01*
X373150Y369250D02*
G03*
X369303Y370482I-3121J-3121D01*
G01*
X372982Y373618D02*
G03*
X371600Y370280I3337J-3337D01*
G01*
Y376120D02*
G03*
X372982Y372782I4720J0D01*
G01*
X371600Y374093D02*
G03*
X373882Y368582I7793J0D01*
G01*
X382689Y373481D02*
G03*
X385213Y367387I8619J0D01*
G01*
X382500Y370008D02*
G03*
X381130Y372682I-3295J0D01*
G01*
X392839Y357832D02*
G03*
X391475Y361125I-4657J0D01*
G01*
X334431Y277901D02*
G03*
X333831Y276452I1449J-1449D01*
G01*
X385006Y326293D02*
G03*
X383784Y329416I-4182J164D01*
G01*
X385600Y329200D02*
G03*
X384734Y326270I2262J-2262D01*
G01*
X387067Y319707D02*
G03*
X389423Y318731I2356J2356D01*
G01*
X389083Y308409D02*
G03*
X388100Y306634I1652J-2075D01*
G01*
X377779Y316990D02*
G03*
X381127Y308909I11429J0D01*
G01*
X371600Y370800D02*
X372200Y370200D01*
X371600Y370800D02*
Y388200D01*
X351400Y301869D02*
X355369D01*
X346200Y301469D02*
X351400D01*
X377700Y382100D02*
X398400D01*
X401390Y379111D01*
X371600Y388200D02*
X377700Y382100D01*
X401390Y373481D02*
Y379111D01*
X392800Y358132D02*
Y359800D01*
Y357832D02*
Y358132D01*
X393368D01*
X389632D02*
X392800D01*
X382500Y370100D02*
X392800Y359800D01*
X381704Y373481D02*
X382500Y372686D01*
Y370100D02*
Y372686D01*
X385600Y334900D02*
Y337200D01*
Y331700D02*
Y334900D01*
X384869Y326200D02*
Y328331D01*
Y321906D02*
Y326200D01*
Y321906D02*
X389423Y317352D01*
X384800Y328400D02*
X384869Y328331D01*
X384800Y328400D02*
X385600Y329200D01*
Y334900D01*
X275700Y379600D02*
X275800Y379500D01*
Y374831D02*
Y379500D01*
X377779Y311306D02*
X380848Y308237D01*
X377779Y311306D02*
Y317352D01*
X385600Y356900D02*
X386532Y357832D01*
X392800D01*
X333831Y277113D02*
X334988Y278269D01*
X333831Y271800D02*
Y277113D01*
X355369Y302169D02*
X355400Y302200D01*
X388469Y318306D02*
X389423Y317352D01*
X387651Y302681D02*
X388300Y308400D01*
X389169D01*
X381011D02*
X388300D01*
X380848Y308237D02*
X381011Y308400D01*
X387651Y302681D02*
X393076Y295866D01*
D96*
X332898Y305533D02*
G03*
X336728Y307119I0J5416D01*
G01*
X343028Y281542D02*
G03*
X341960Y278964I2579J-2579D01*
G01*
X370528Y325442D02*
G03*
X369700Y323443I1999J-1999D01*
G01*
X368297Y307796D02*
G03*
X369700Y311182I-3386J3386D01*
G01*
X366627Y309466D02*
G03*
X369700Y316885I-7419J7419D01*
G01*
X367430Y309811D02*
G03*
X369700Y312143I-63J2332D01*
G01*
X368297Y307796D02*
G03*
X369700Y311182I-3386J3386D01*
G01*
X366627Y309466D02*
G03*
X369700Y316885I-7419J7419D01*
G01*
X315332Y321700D02*
Y324332D01*
X369700Y322700D02*
Y326500D01*
Y310475D02*
Y322700D01*
X367462Y308237D02*
X369700Y310475D01*
Y312143D02*
Y322700D01*
X335142Y305533D02*
X337640Y308032D01*
X341960Y281491D02*
X342569Y282100D01*
X341960Y274721D02*
Y281491D01*
X337640Y308032D02*
X338700D01*
D97*
X316911Y302705D02*
G03*
X318865Y301896I1953J1953D01*
G01*
X315500Y304639D02*
G03*
X316301Y302705I2735J0D01*
G01*
X322369Y320169D02*
Y326100D01*
X315500Y302204D02*
Y307000D01*
Y313300D01*
X331717Y301493D02*
X345824D01*
X315500Y313300D02*
X322369Y320169D01*
X315500Y301896D02*
X322559D01*
X322662Y301793D01*
X345824D02*
X346200Y302169D01*
D98*
X380327Y348127D02*
G03*
X384980Y346200I4653J4653D01*
G01*
X386428D02*
G03*
X380327Y343673I0J-8628D01*
G01*
X355488Y379181D02*
G03*
X353900Y375346I3835J-3835D01*
G01*
X355636Y370749D02*
G03*
X353900Y366558I4192J-4192D01*
G01*
Y377442D02*
G03*
X355636Y373251I5928J0D01*
G01*
X372035Y304965D02*
G03*
X367462Y306859I-4573J-4573D01*
G01*
X368763Y308237D02*
X376300Y300700D01*
X382660D01*
X367462Y308237D02*
X368763D01*
X382660Y300700D02*
X383670Y299689D01*
X406178Y308200D02*
Y336822D01*
Y305542D02*
Y308200D01*
X381200Y346200D02*
X394500D01*
X331717Y305533D02*
X335142D01*
X353468Y379600D02*
Y380368D01*
X353900Y365291D02*
Y379400D01*
X337760Y363921D02*
X338269Y364430D01*
X393004Y295998D02*
X402404Y302698D01*
X392972Y295590D02*
X398283Y288920D01*
X383670Y299689D02*
X394508Y286076D01*
X402404Y302698D02*
X407714Y296027D01*
X406178Y305542D02*
X411489Y298872D01*
D99*
X285815Y318391D02*
D03*
D100*
X278728Y308551D02*
D03*
X280303D02*
D03*
X281878D02*
D03*
X283453D02*
D03*
X285028D02*
D03*
X286602D02*
D03*
X288177D02*
D03*
X289752D02*
D03*
X291327D02*
D03*
X292902D02*
D03*
Y328231D02*
D03*
X291327D02*
D03*
X289752D02*
D03*
X288177D02*
D03*
X286602D02*
D03*
X285028D02*
D03*
X283453D02*
D03*
X281878D02*
D03*
X280303D02*
D03*
X278728D02*
D03*
D101*
X275975Y311304D02*
D03*
Y312879D02*
D03*
Y314454D02*
D03*
Y316029D02*
D03*
Y317604D02*
D03*
Y319178D02*
D03*
Y320753D02*
D03*
Y322328D02*
D03*
Y323903D02*
D03*
Y325478D02*
D03*
X295655D02*
D03*
Y323903D02*
D03*
Y322328D02*
D03*
Y320753D02*
D03*
Y319178D02*
D03*
Y317604D02*
D03*
Y316029D02*
D03*
Y314454D02*
D03*
Y312879D02*
D03*
Y311304D02*
D03*
D102*
X270185Y317525D02*
D03*
Y320805D02*
D03*
D103*
X315876Y253068D02*
D03*
X325324D02*
D03*
X315876Y249131D02*
D03*
X325324D02*
D03*
D104*
X313672Y357351D02*
D03*
X317609D02*
D03*
X321546D02*
D03*
X325483D02*
D03*
X329420D02*
D03*
Y377588D02*
D03*
X325483D02*
D03*
X321546D02*
D03*
X317609D02*
D03*
X313672D02*
D03*
X252272Y361152D02*
D03*
X256209D02*
D03*
X260146D02*
D03*
X264083D02*
D03*
X268020D02*
D03*
Y381388D02*
D03*
X264083D02*
D03*
X260146D02*
D03*
X256209D02*
D03*
X252272D02*
D03*
D105*
X359582Y392998D02*
D03*
X354661D02*
D03*
X349739D02*
D03*
X344816D02*
D03*
D106*
X334484Y405202D02*
D03*
X369917D02*
D03*
D107*
X314643Y393291D02*
D03*
X309721D02*
D03*
X304801D02*
D03*
X299879D02*
D03*
X294957D02*
D03*
X262442Y393192D02*
D03*
X257522D02*
D03*
X252601D02*
D03*
X247678D02*
D03*
X242758D02*
D03*
D108*
X284918Y404708D02*
D03*
X324681D02*
D03*
X232718Y404608D02*
D03*
X272481D02*
D03*
D109*
X265773Y320800D02*
X269890D01*
X262300Y320927D02*
X262427Y320800D01*
X257800Y320927D02*
X262300D01*
X257673Y320800D02*
X257800Y320927D01*
X253473Y320800D02*
X257673D01*
X249800Y320827D02*
X250127Y320500D01*
X245000Y320827D02*
X249800D01*
X244927Y320900D02*
X245000Y320827D01*
X240073Y320900D02*
X244927D01*
X236600Y321027D02*
X236727Y320900D01*
X232000Y321027D02*
X236600D01*
X231973Y321000D02*
X232000Y321027D01*
X227173Y321000D02*
X231973D01*
X223754Y320927D02*
X223827Y321000D01*
X219200Y320927D02*
X223754D01*
D110*
X381700Y373600D02*
D03*
D111*
X354550Y400250D02*
D03*
D112*
X232850Y376550D02*
D03*
D113*
X219008Y309759D02*
D03*
D114*
X391500Y373600D02*
D03*
D115*
X323900Y392350D02*
D03*
D116*
X242400Y391450D02*
D03*
D117*
X292350Y391600D02*
D03*
D118*
X293900Y384700D02*
D03*
D119*
X280350Y385300D02*
D03*
D120*
X327750Y392050D02*
D03*
D121*
X329500Y384250D02*
D03*
D122*
X383700Y345600D02*
D03*
D123*
X402800Y358850D02*
D03*
D124*
X203463Y311704D02*
D03*
D125*
X203768Y320956D02*
D03*
D126*
X189271Y320945D02*
D03*
D127*
X196017Y330186D02*
D03*
D128*
X203061Y334715D02*
D03*
X189283Y343855D02*
D03*
X203061Y352985D02*
D03*
D129*
X196212Y339346D02*
D03*
D130*
X196122Y348466D02*
D03*
D131*
X196152Y357626D02*
D03*
D132*
X189241Y362255D02*
D03*
D133*
X189057Y339336D02*
D03*
D134*
X198742Y366796D02*
D03*
D135*
X236500Y288200D02*
D03*
D136*
Y278200D02*
D03*
Y268200D02*
D03*
D137*
X398418Y270289D02*
D03*
X389414Y282238D02*
D03*
D138*
X425586Y290762D02*
D03*
X416582Y302711D02*
D03*
D139*
X381704Y373481D02*
D03*
X391547D02*
D03*
X401389D02*
D03*
D140*
X354600Y409100D02*
D03*
X336700Y325400D02*
D03*
X354700Y321800D02*
D03*
X280700Y286700D02*
D03*
X268200Y296900D02*
D03*
X382700Y388900D02*
D03*
X406800Y386200D02*
D03*
X406500Y408100D02*
D03*
X377700Y394500D02*
D03*
X377600Y402000D02*
D03*
X377700Y409000D02*
D03*
X406178Y316200D02*
D03*
X401600Y312800D02*
D03*
X383500Y276000D02*
D03*
X391900Y266400D02*
D03*
X371300Y264500D02*
D03*
X370400Y257100D02*
D03*
X357500Y253400D02*
D03*
X346500Y250400D02*
D03*
X332600Y248800D02*
D03*
X298600Y254300D02*
D03*
X289500Y254900D02*
D03*
X296500Y262300D02*
D03*
X290500Y262100D02*
D03*
X293500Y268700D02*
D03*
X297900Y272700D02*
D03*
X287700Y270400D02*
D03*
X305300Y247400D02*
D03*
X294700Y247100D02*
D03*
X286000Y247000D02*
D03*
X370100Y376200D02*
D03*
X334600Y387600D02*
D03*
X337200Y390600D02*
D03*
X346700Y356100D02*
D03*
X318000Y365800D02*
D03*
X313600D02*
D03*
X318300Y370200D02*
D03*
X313400D02*
D03*
X308400Y357200D02*
D03*
X306500Y363600D02*
D03*
Y369900D02*
D03*
Y377100D02*
D03*
X270700Y337200D02*
D03*
X253500Y350600D02*
D03*
X353500Y282700D02*
D03*
X381500Y296600D02*
D03*
X382660Y300700D02*
D03*
X352800Y318600D02*
D03*
X347700Y295800D02*
D03*
X327800Y329800D02*
D03*
X327300Y318000D02*
D03*
X329200Y313800D02*
D03*
X324100Y314100D02*
D03*
X245300Y378700D02*
D03*
X256500Y373600D02*
D03*
X252200D02*
D03*
X259842Y291339D02*
D03*
X267717D02*
D03*
X275590D02*
D03*
X244094Y299213D02*
D03*
Y307087D02*
D03*
X228346Y267717D02*
D03*
Y275590D02*
D03*
X228500Y284504D02*
D03*
Y292378D02*
D03*
Y300252D02*
D03*
Y308126D02*
D03*
X401390Y334111D02*
D03*
Y341985D02*
D03*
Y349859D02*
D03*
Y357733D02*
D03*
Y365607D02*
D03*
X258370Y260882D02*
D03*
X250496D02*
D03*
X242622D02*
D03*
X234748D02*
D03*
X226874D02*
D03*
X219000D02*
D03*
Y268756D02*
D03*
Y276630D02*
D03*
Y284504D02*
D03*
Y292378D02*
D03*
Y300252D02*
D03*
Y308126D02*
D03*
X219200Y391192D02*
D03*
Y383318D02*
D03*
Y375444D02*
D03*
Y367570D02*
D03*
Y359696D02*
D03*
Y351822D02*
D03*
Y343948D02*
D03*
Y336074D02*
D03*
X266100Y316000D02*
D03*
X261900D02*
D03*
X256800D02*
D03*
X251800D02*
D03*
X247200D02*
D03*
X242400D02*
D03*
X237500D02*
D03*
X233000D02*
D03*
X228500D02*
D03*
X223900D02*
D03*
X219000D02*
D03*
X267600Y325000D02*
D03*
X262200Y325100D02*
D03*
X253800D02*
D03*
X249400D02*
D03*
X240700Y325400D02*
D03*
X236100D02*
D03*
X231900Y328400D02*
D03*
X227800Y325500D02*
D03*
X223600Y325600D02*
D03*
X219200Y328200D02*
D03*
X345500Y326600D02*
D03*
X248700Y376300D02*
D03*
X290300Y313300D02*
D03*
Y318200D02*
D03*
Y323100D02*
D03*
X285800Y313300D02*
D03*
X285615Y318391D02*
D03*
X285700Y323200D02*
D03*
X281100Y313300D02*
D03*
Y318500D02*
D03*
X281200Y323300D02*
D03*
X366700Y331300D02*
D03*
X363900Y327600D02*
D03*
X369500Y341000D02*
D03*
Y344900D02*
D03*
Y348400D02*
D03*
X374100Y341300D02*
D03*
X373900Y344900D02*
D03*
X373800Y348300D02*
D03*
X337000Y355900D02*
D03*
X336100Y350900D02*
D03*
X354400Y361000D02*
D03*
X349800Y361100D02*
D03*
X356100Y385000D02*
D03*
X351000Y383200D02*
D03*
X374000Y372800D02*
D03*
X368500Y372700D02*
D03*
X368700Y368600D02*
D03*
X374400D02*
D03*
X340700Y386400D02*
D03*
X343100Y382800D02*
D03*
X356400Y260100D02*
D03*
X367800Y274700D02*
D03*
X355300Y278000D02*
D03*
X310400Y311200D02*
D03*
X311400Y316000D02*
D03*
X322400Y323200D02*
D03*
X315500Y307000D02*
D03*
X223300Y352000D02*
D03*
X234400Y364500D02*
D03*
X249800Y350100D02*
D03*
X405600Y286400D02*
D03*
X407500Y290200D02*
D03*
X334500Y370600D02*
D03*
X325800Y391700D02*
D03*
X303600Y354000D02*
D03*
X302200Y359300D02*
D03*
X243000Y387400D02*
D03*
X242700Y399300D02*
D03*
X242900Y383600D02*
D03*
X291800Y390000D02*
D03*
X291900Y393500D02*
D03*
X276400Y390800D02*
D03*
X272400Y390900D02*
D03*
X268400Y390800D02*
D03*
X329400Y393800D02*
D03*
X322400Y326400D02*
D03*
X380200Y363700D02*
D03*
X348800Y377800D02*
D03*
X375400Y363700D02*
D03*
X369900Y364000D02*
D03*
X332500Y275200D02*
D03*
X355369Y302169D02*
D03*
X351400D02*
D03*
X241500Y370000D02*
D03*
X231000Y340600D02*
D03*
X274600Y303400D02*
D03*
X277600Y300000D02*
D03*
X280100Y296800D02*
D03*
X283200Y293500D02*
D03*
X289800Y286500D02*
D03*
X286400Y289900D02*
D03*
X289400Y344700D02*
D03*
X288700Y350200D02*
D03*
X283800Y351200D02*
D03*
X279700Y349700D02*
D03*
X256700Y368500D02*
D03*
X267000Y373800D02*
D03*
X252000Y368500D02*
D03*
X260700Y371600D02*
D03*
X301700Y339268D02*
D03*
X322800Y391900D02*
D03*
X241100Y335100D02*
D03*
X243500Y339500D02*
D03*
M02*
