G04*
G04 #@! TF.GenerationSoftware,Altium Limited,Altium Designer,18.1.9 (240)*
G04*
G04 Layer_Color=16711935*
%FSLAX25Y25*%
%MOIN*%
G70*
G01*
G75*
%ADD11C,0.00100*%
D11*
X383798Y266613D02*
G03*
X383798Y266613I-3150J0D01*
G01*
X401578Y321731D02*
G03*
X401578Y321731I-3150J0D01*
G01*
X372247Y290235D02*
G03*
X372247Y290235I-5315J0D01*
G01*
X399806Y396534D02*
G03*
X399806Y396534I-5315J0D01*
G01*
X202956Y286298D02*
G03*
X202956Y286298I-5315J0D01*
G01*
Y396534D02*
G03*
X202956Y396534I-5315J0D01*
G01*
X383544Y257519D02*
G03*
X390348Y260764I-65412J145942D01*
G01*
X398917Y265444D02*
G03*
X406283Y270074I-75470J128238D01*
G01*
D02*
G03*
X410258Y272833I-82136J122565D01*
G01*
X201783Y260764D02*
G03*
X208588Y257519I72216J142697D01*
G01*
X185848Y270074D02*
G03*
X193215Y265444I82837J123608D01*
G01*
X181874Y272833D02*
G03*
X185848Y270074I86110J119807D01*
G01*
X428683Y287596D02*
G03*
X428630Y292302I-3182J2318D01*
G01*
X410258Y323035D02*
G03*
X414293Y311094I19685J0D01*
G01*
X296066Y240776D02*
X296805Y240777D01*
X297544Y240779D01*
X298285Y240784D01*
X299150Y240792D01*
X300016Y240802D01*
X300883Y240814D01*
X301876Y240832D01*
X302871Y240854D01*
X303867Y240879D01*
X304990Y240911D01*
X306116Y240948D01*
X307369Y240994D01*
X308752Y241053D01*
X310265Y241125D01*
X311910Y241213D01*
X313816Y241328D01*
X316372Y241504D01*
X319072Y241718D01*
X321009Y241890D01*
X322692Y242051D01*
X324120Y242197D01*
X325419Y242337D01*
X326719Y242485D01*
X327890Y242623D01*
X328932Y242752D01*
X329973Y242885D01*
X331014Y243023D01*
X331925Y243147D01*
X332835Y243275D01*
X333745Y243407D01*
X334654Y243543D01*
X335433Y243662D01*
X338153Y244101D01*
X341375Y244668D01*
X343555Y245080D01*
X345341Y245435D01*
X346866Y245751D01*
X348257Y246050D01*
X349517Y246329D01*
X350645Y246587D01*
X351769Y246850D01*
X352764Y247089D01*
X353755Y247332D01*
X354619Y247548D01*
X355479Y247768D01*
X357554Y248316D01*
X360327Y249087D01*
X362706Y249786D01*
X364820Y250437D01*
X366678Y251031D01*
X368400Y251603D01*
X369990Y252147D01*
X371452Y252663D01*
X372788Y253147D01*
X374002Y253597D01*
X375204Y254054D01*
X376505Y254559D01*
X377899Y255115D01*
X379490Y255768D01*
X381272Y256522D01*
X383544Y257519D01*
X390348Y260764D02*
X391420Y261311D01*
X392485Y261865D01*
X393734Y262529D01*
X395164Y263307D01*
X396769Y264203D01*
X398917Y265444D01*
X410258Y272833D02*
X428770Y287481D01*
X295327Y240777D02*
X296066Y240776D01*
X294587Y240779D02*
X295327Y240777D01*
X293847Y240784D02*
X294587Y240779D01*
X292982Y240792D02*
X293847Y240784D01*
X292115Y240802D02*
X292982Y240792D01*
X291248Y240814D02*
X292115Y240802D01*
X290255Y240832D02*
X291248Y240814D01*
X289261Y240854D02*
X290255Y240832D01*
X288264Y240879D02*
X289261Y240854D01*
X287141Y240911D02*
X288264Y240879D01*
X286016Y240948D02*
X287141Y240911D01*
X284762Y240994D02*
X286016Y240948D01*
X283380Y241053D02*
X284762Y240994D01*
X281867Y241125D02*
X283380Y241053D01*
X280221Y241213D02*
X281867Y241125D01*
X278315Y241328D02*
X280221Y241213D01*
X275760Y241504D02*
X278315Y241328D01*
X273060Y241718D02*
X275760Y241504D01*
X271123Y241890D02*
X273060Y241718D01*
X269439Y242051D02*
X271123Y241890D01*
X268012Y242197D02*
X269439Y242051D01*
X266713Y242337D02*
X268012Y242197D01*
X265412Y242485D02*
X266713Y242337D01*
X264241Y242623D02*
X265412Y242485D01*
X263200Y242752D02*
X264241Y242623D01*
X262158Y242885D02*
X263200Y242752D01*
X261117Y243023D02*
X262158Y242885D01*
X260207Y243147D02*
X261117Y243023D01*
X259296Y243275D02*
X260207Y243147D01*
X258386Y243407D02*
X259296Y243275D01*
X257477Y243543D02*
X258386Y243407D01*
X256698Y243662D02*
X257477Y243543D01*
X253979Y244101D02*
X256698Y243662D01*
X250756Y244668D02*
X253979Y244101D01*
X248576Y245080D02*
X250756Y244668D01*
X246790Y245435D02*
X248576Y245080D01*
X245266Y245751D02*
X246790Y245435D01*
X243874Y246050D02*
X245266Y245751D01*
X242615Y246329D02*
X243874Y246050D01*
X241486Y246587D02*
X242615Y246329D01*
X240362Y246850D02*
X241486Y246587D01*
X239367Y247089D02*
X240362Y246850D01*
X238376Y247332D02*
X239367Y247089D01*
X237512Y247548D02*
X238376Y247332D01*
X236652Y247768D02*
X237512Y247548D01*
X234577Y248316D02*
X236652Y247768D01*
X231804Y249087D02*
X234577Y248316D01*
X229425Y249786D02*
X231804Y249087D01*
X227311Y250437D02*
X229425Y249786D01*
X225454Y251031D02*
X227311Y250437D01*
X223732Y251603D02*
X225454Y251031D01*
X222141Y252147D02*
X223732Y251603D01*
X220680Y252663D02*
X222141Y252147D01*
X219343Y253147D02*
X220680Y252663D01*
X218130Y253597D02*
X219343Y253147D01*
X216927Y254054D02*
X218130Y253597D01*
X215627Y254559D02*
X216927Y254054D01*
X214232Y255115D02*
X215627Y254559D01*
X212641Y255768D02*
X214232Y255115D01*
X210860Y256522D02*
X212641Y255768D01*
X208588Y257519D02*
X210860Y256522D01*
X200711Y261311D02*
X201783Y260764D01*
X199646Y261865D02*
X200711Y261311D01*
X198397Y262529D02*
X199646Y261865D01*
X196967Y263307D02*
X198397Y262529D01*
X195362Y264203D02*
X196967Y263307D01*
X193215Y265444D02*
X195362Y264203D01*
X410258Y323035D02*
Y412282D01*
X414293Y311094D02*
X428630Y292302D01*
X181874Y412282D02*
X410258D01*
X181874Y272833D02*
Y412282D01*
M02*
